SplineFontDB: 1.0
FontName: THKoHo-Italic
FullName: THKoHo-Italic
FamilyName: TH KoHo
Weight: Book
Copyright: Copyright (c) 2006 by Department of Intellectual Property (DIP), Ministry of Commerce and Software Industry Promotion Agency (Public Organization) (SIPA). All rights reserved.
Version: 1.1
ItalicAngle: -12
UnderlinePosition: -35
UnderlineWidth: 30
Ascent: 800
Descent: 200
Order2: 1
XUID: [1021 375 425136265 16283230]
FSType: 0
OS2Version: 3
OS2_WeightWidthSlopeOnly: 0
OS2_UseTypoMetrics: 1
CreationTime: 1158666780
ModificationTime: 1174462545
PfmFamily: 17
TTFWeight: 400
TTFWidth: 5
LineGap: 30
VLineGap: 0
Panose: 2 0 5 6 0 0 0 2 0 4
OS2TypoAscent: 0
OS2TypoAOffset: 1
OS2TypoDescent: 0
OS2TypoDOffset: 1
OS2TypoLinegap: 0
OS2WinAscent: -43
OS2WinAOffset: 1
OS2WinDescent: -196
OS2WinDOffset: 1
HheadAscent: -43
HheadAOffset: 1
HheadDescent: 196
HheadDOffset: 1
OS2SubXSize: 700
OS2SubYSize: 650
OS2SubXOff: 0
OS2SubYOff: 140
OS2SupXSize: 700
OS2SupYSize: 650
OS2SupXOff: 0
OS2SupYOff: 477
OS2StrikeYSize: 30
OS2StrikeYPos: 250
OS2FamilyClass: 773
OS2Vendor: 'IPTH'
ScriptLang: 2
 1 latn 1 dflt 
 0 
ChainSub: coverage 0 0 'liga' 0 0 0 1
 1 0 1
  Coverage: 64 uni0E48.alt2 uni0E49.alt2 uni0E4A.alt2 uni0E4B.alt2 uni0E4C.alt2
  FCoverage: 7 uni0E33
 1
  SeqLookup: 0 'L027'
EndFPST
ChainSub: coverage 0 0 'liga' 0 0 0 1
 1 1 0
  Coverage: 7 uni0E47
  BCoverage: 12 uni0E2C.alt1
 1
  SeqLookup: 0 'L026'
EndFPST
ChainSub: coverage 0 0 'liga' 0 0 0 1
 1 0 1
  Coverage: 7 uni0E2C
  FCoverage: 39 uni0E34 uni0E35 uni0E36 uni0E37 uni0E47
 1
  SeqLookup: 0 'L026'
EndFPST
ChainSub: coverage 0 0 'liga' 0 0 0 1
 1 0 1
  Coverage: 15 uni0E0E uni0E0F
  FCoverage: 38 uni0E38.alt1 uni0E39.alt1 uni0E3A.alt1
 1
  SeqLookup: 0 'L026'
EndFPST
ChainSub: coverage 0 0 'liga' 0 0 0 1
 1 1 0
  Coverage: 5 a b c
  BCoverage: 23 uni0E1B uni0E1D uni0E1F
 1
  SeqLookup: 0 'L026'
EndFPST
ChainSub: coverage 0 0 'liga' 0 0 0 1
 1 0 1
  Coverage: 5 a b c

StartChar: .notdef
Encoding: 65536 -1 0
Width: 500
Flags: W
Fore
404 35 m 1,0,-1
 537 660 l 1,1,-1
 233 660 l 1,2,-1
 99 35 l 1,3,-1
 404 35 l 1,0,-1
436 0 m 1,4,-1
 63 0 l 1,5,-1
 206 695 l 1,6,-1
 578 695 l 1,7,-1
 436 0 l 1,4,-1
EndSplineSet
EndChar
StartChar: numbersign
Encoding: 35 35 4
Width: 360
Flags: W
Fore
318 291 m 1,0,1
 309 263 309 263 298.5 231 c 128,-1,2
 288 199 288 199 279 170 c 1,3,-1
 348 170 l 1,4,-1
 343 149 l 1,5,-1
 271 149 l 1,6,7
 259 111 259 111 246.5 74.5 c 128,-1,8
 234 38 234 38 226 0 c 1,9,-1
 201 0 l 1,10,-1
 246 149 l 1,11,-1
 153 149 l 1,12,-1
 109 0 l 1,13,-1
 84 0 l 1,14,-1
 128 149 l 1,15,-1
 55 149 l 1,16,-1
 60 170 l 1,17,-1
 137 170 l 1,18,19
 146 199 146 199 156.5 231 c 128,-1,20
 167 263 167 263 176 291 c 1,21,-1
 99 291 l 1,22,-1
 104 313 l 1,23,-1
 185 313 l 1,24,25
 197 348 197 348 211 390 c 128,-1,26
 225 432 225 432 237 467 c 1,27,-1
 260 467 l 1,28,-1
 209 313 l 1,29,-1
 303 313 l 1,30,31
 315 348 315 348 328.5 390 c 128,-1,32
 342 432 342 432 353 467 c 1,33,-1
 378 467 l 1,34,-1
 327 313 l 1,35,-1
 392 313 l 1,36,-1
 387 291 l 1,37,-1
 318 291 l 1,0,1
200 291 m 1,38,39
 192 263 192 263 181.5 231 c 128,-1,40
 171 199 171 199 162 170 c 1,41,-1
 255 170 l 1,42,43
 264 199 264 199 274.5 231 c 128,-1,44
 285 263 285 263 294 291 c 1,45,-1
 200 291 l 1,38,39
EndSplineSet
EndChar
StartChar: dollar
Encoding: 36 36 5
Width: 456
Flags: W
Fore
427 126 m 0,0,1
 422 91 422 91 404 65 c 128,-1,2
 386 39 386 39 360 21.5 c 128,-1,3
 334 4 334 4 303.5 -5.5 c 128,-1,4
 273 -15 273 -15 242 -18 c 1,5,-1
 225 -95 l 1,6,-1
 194 -95 l 1,7,-1
 211 -18 l 1,8,9
 184 -17 184 -17 157.5 -11 c 128,-1,10
 131 -5 131 -5 110 7.5 c 128,-1,11
 89 20 89 20 76.5 40.5 c 128,-1,12
 64 61 64 61 64 90 c 1,13,-1
 97 90 l 1,14,15
 98 68 98 68 109 52.5 c 128,-1,16
 120 37 120 37 136.5 27 c 128,-1,17
 153 17 153 17 174 12 c 128,-1,18
 195 7 195 7 216 6 c 1,19,-1
 264 231 l 1,20,21
 236 236 236 236 210 242.5 c 128,-1,22
 184 249 184 249 165.5 261.5 c 128,-1,23
 147 274 147 274 137.5 295.5 c 128,-1,24
 128 317 128 317 134 351 c 256,25,26
 140 385 140 385 158 411 c 128,-1,27
 176 437 176 437 201.5 454 c 128,-1,28
 227 471 227 471 257.5 480.5 c 128,-1,29
 288 490 288 490 319 491 c 1,30,-1
 334 564 l 1,31,-1
 366 564 l 1,32,-1
 351 490 l 1,33,34
 373 488 373 488 393.5 481 c 128,-1,35
 414 474 414 474 429.5 462 c 128,-1,36
 445 450 445 450 454 431.5 c 128,-1,37
 463 413 463 413 463 389 c 1,38,-1
 431 389 l 1,39,40
 429 427 429 427 405 445.5 c 128,-1,41
 381 464 381 464 346 469 c 1,42,-1
 300 253 l 1,43,44
 327 248 327 248 353 241 c 128,-1,45
 379 234 379 234 397.5 220.5 c 128,-1,46
 416 207 416 207 424.5 184.5 c 128,-1,47
 433 162 433 162 427 126 c 0,0,1
166 351 m 0,48,49
 162 326 162 326 169 310 c 128,-1,50
 176 294 176 294 190.5 284 c 128,-1,51
 205 274 205 274 225.5 268 c 128,-1,52
 246 262 246 262 269 258 c 1,53,-1
 314 470 l 1,54,55
 288 469 288 469 263.5 461 c 128,-1,56
 239 453 239 453 219 438 c 128,-1,57
 199 423 199 423 185 401 c 128,-1,58
 171 379 171 379 166 351 c 0,48,49
247 6 m 1,59,60
 272 9 272 9 297 18 c 128,-1,61
 322 27 322 27 343 42 c 128,-1,62
 364 57 364 57 378.5 78 c 128,-1,63
 393 99 393 99 397 126 c 0,64,65
 401 152 401 152 394 169 c 128,-1,66
 387 186 387 186 372.5 197 c 128,-1,67
 358 208 358 208 337.5 214 c 128,-1,68
 317 220 317 220 294 225 c 1,69,-1
 247 6 l 1,59,60
EndSplineSet
EndChar
StartChar: percent
Encoding: 37 37 6
Width: 581
Flags: W
Fore
314 346 m 0,0,1
 308 317 308 317 295 292.5 c 128,-1,2
 282 268 282 268 264.5 249 c 128,-1,3
 247 230 247 230 225.5 219 c 128,-1,4
 204 208 204 208 180 208 c 0,5,6
 159 208 159 208 142.5 219 c 128,-1,7
 126 230 126 230 116 249 c 128,-1,8
 106 268 106 268 104 293 c 128,-1,9
 102 318 102 318 108 346 c 256,10,11
 114 374 114 374 127.5 399.5 c 128,-1,12
 141 425 141 425 159 444 c 128,-1,13
 177 463 177 463 197.5 473.5 c 128,-1,14
 218 484 218 484 239 484 c 0,15,16
 261 484 261 484 278 473.5 c 128,-1,17
 295 463 295 463 305 444 c 128,-1,18
 315 425 315 425 317.5 399.5 c 128,-1,19
 320 374 320 374 314 346 c 0,0,1
143 348 m 2,20,21
 136 328 136 328 137 308 c 128,-1,22
 138 288 138 288 144 272 c 128,-1,23
 150 256 150 256 161 246 c 128,-1,24
 172 236 172 236 186 235 c 0,25,26
 201 234 201 234 216 243.5 c 128,-1,27
 231 253 231 253 243.5 269 c 128,-1,28
 256 285 256 285 265.5 305.5 c 128,-1,29
 275 326 275 326 279 347 c 0,30,31
 283 367 283 367 281.5 387 c 128,-1,32
 280 407 280 407 274 423 c 128,-1,33
 268 439 268 439 257 448 c 128,-1,34
 246 457 246 457 231 456 c 0,35,36
 216 454 216 454 202 443 c 128,-1,37
 188 432 188 432 176 416 c 128,-1,38
 164 400 164 400 155 382 c 128,-1,39
 146 364 146 364 143 348 c 2,20,21
496 290 m 0,40,41
 518 290 518 290 534.5 279.5 c 128,-1,42
 551 269 551 269 561 250 c 128,-1,43
 571 231 571 231 574 205.5 c 128,-1,44
 577 180 577 180 571 152 c 0,45,46
 565 123 565 123 552.5 98 c 128,-1,47
 540 73 540 73 522.5 54 c 128,-1,48
 505 35 505 35 483 24 c 128,-1,49
 461 13 461 13 436 14 c 0,50,51
 415 14 415 14 398.5 25 c 128,-1,52
 382 36 382 36 372.5 55 c 128,-1,53
 363 74 363 74 360.5 99 c 128,-1,54
 358 124 358 124 364 152 c 256,55,56
 370 180 370 180 383.5 205.5 c 128,-1,57
 397 231 397 231 415 250 c 128,-1,58
 433 269 433 269 454 279.5 c 128,-1,59
 475 290 475 290 496 290 c 0,40,41
443 41 m 0,60,61
 461 41 461 41 476 51.5 c 128,-1,62
 491 62 491 62 503 78 c 128,-1,63
 515 94 515 94 523.5 114 c 128,-1,64
 532 134 532 134 535 153 c 0,65,66
 538 173 538 173 536.5 192.5 c 128,-1,67
 535 212 535 212 529 227.5 c 128,-1,68
 523 243 523 243 513 252.5 c 128,-1,69
 503 262 503 262 488 262 c 0,70,71
 474 262 474 262 460 252 c 128,-1,72
 446 242 446 242 434 226.5 c 128,-1,73
 422 211 422 211 413.5 192 c 128,-1,74
 405 173 405 173 401 154 c 0,75,76
 393 110 393 110 404 76.5 c 128,-1,77
 415 43 415 43 443 41 c 0,60,61
550 486 m 1,78,-1
 157 1 l 1,79,-1
 123 1 l 1,80,-1
 516 486 l 1,81,-1
 550 486 l 1,78,-1
EndSplineSet
EndChar
StartChar: ampersand
Encoding: 38 38 7
Width: 438
Flags: W
Fore
382 0 m 1,0,1
 362 18 362 18 353.5 30 c 128,-1,2
 345 42 345 42 334 55 c 1,3,4
 284 20 284 20 242 5.5 c 128,-1,5
 200 -9 200 -9 158 -9 c 0,6,7
 128 -9 128 -9 104 1.5 c 128,-1,8
 80 12 80 12 64.5 30.5 c 128,-1,9
 49 49 49 49 43 74 c 128,-1,10
 37 99 37 99 44 128 c 0,11,12
 55 182 55 182 91.5 215.5 c 128,-1,13
 128 249 128 249 174 269 c 1,14,15
 159 297 159 297 153.5 324 c 128,-1,16
 148 351 148 351 154 375 c 0,17,18
 159 397 159 397 171 418.5 c 128,-1,19
 183 440 183 440 201.5 456.5 c 128,-1,20
 220 473 220 473 243.5 483 c 128,-1,21
 267 493 267 493 296 493 c 0,22,23
 341 493 341 493 363 466 c 128,-1,24
 385 439 385 439 375 395 c 0,25,26
 367 354 367 354 326.5 320 c 128,-1,27
 286 286 286 286 223 260 c 1,28,29
 240 236 240 236 257 212.5 c 128,-1,30
 274 189 274 189 289.5 168.5 c 128,-1,31
 305 148 305 148 318.5 131 c 128,-1,32
 332 114 332 114 342 102 c 1,33,34
 353 114 353 114 363.5 127 c 128,-1,35
 374 140 374 140 385 158 c 128,-1,36
 396 176 396 176 407 199.5 c 128,-1,37
 418 223 418 223 431 256 c 1,38,-1
 464 256 l 1,39,40
 414 129 414 129 358 78 c 1,41,42
 375 57 375 57 391.5 36.5 c 128,-1,43
 408 16 408 16 426 0 c 1,44,-1
 382 0 l 1,0,1
344 391 m 0,45,46
 347 404 347 404 345 417.5 c 128,-1,47
 343 431 343 431 336.5 442 c 128,-1,48
 330 453 330 453 317.5 460 c 128,-1,49
 305 467 305 467 287 467 c 256,50,51
 269 467 269 467 252 459 c 128,-1,52
 235 451 235 451 221 438.5 c 128,-1,53
 207 426 207 426 197.5 410.5 c 128,-1,54
 188 395 188 395 185 379 c 0,55,56
 179 349 179 349 188 324.5 c 128,-1,57
 197 300 197 300 207 281 c 1,58,59
 232 292 232 292 255 303.5 c 128,-1,60
 278 315 278 315 296.5 328.5 c 128,-1,61
 315 342 315 342 327.5 357.5 c 128,-1,62
 340 373 340 373 344 391 c 0,45,46
173 21 m 0,63,64
 215 21 215 21 252.5 37.5 c 128,-1,65
 290 54 290 54 318 77 c 1,66,67
 312 85 312 85 298.5 101.5 c 128,-1,68
 285 118 285 118 267 140.5 c 128,-1,69
 249 163 249 163 229 190.5 c 128,-1,70
 209 218 209 218 189 248 c 1,71,72
 176 242 176 242 158.5 232 c 128,-1,73
 141 222 141 222 124.5 208 c 128,-1,74
 108 194 108 194 94.5 175.5 c 128,-1,75
 81 157 81 157 76 133 c 0,76,77
 71 108 71 108 76.5 87.5 c 128,-1,78
 82 67 82 67 95.5 52 c 128,-1,79
 109 37 109 37 129 29 c 128,-1,80
 149 21 149 21 173 21 c 0,63,64
EndSplineSet
EndChar
StartChar: quotesingle
Encoding: 39 39 8
Width: 130
Flags: W
Fore
144 338 m 1,0,-1
 118 338 l 1,1,-1
 143 499 l 1,2,-1
 189 499 l 1,3,-1
 144 338 l 1,0,-1
EndSplineSet
EndChar
StartChar: parenleft
Encoding: 40 40 9
Width: 194
Flags: W
Fore
148 -58 m 1,0,1
 132 -35 132 -35 118 -6 c 128,-1,2
 104 23 104 23 96.5 59.5 c 128,-1,3
 89 96 89 96 88.5 139.5 c 128,-1,4
 88 183 88 183 99 234 c 0,5,6
 111 288 111 288 130 331.5 c 128,-1,7
 149 375 149 375 172 411 c 128,-1,8
 195 447 195 447 221 476.5 c 128,-1,9
 247 506 247 506 273 532 c 1,10,-1
 303 532 l 1,11,12
 238 472 238 472 193 402 c 128,-1,13
 148 332 148 332 127 234 c 0,14,15
 117 186 117 186 116.5 145 c 128,-1,16
 116 104 116 104 123.5 69 c 128,-1,17
 131 34 131 34 144.5 2.5 c 128,-1,18
 158 -29 158 -29 176 -58 c 1,19,-1
 148 -58 l 1,0,1
EndSplineSet
EndChar
StartChar: parenright
Encoding: 41 41 10
Width: 194
Flags: W
Fore
184 237 m 256,0,1
 173 184 173 184 154 140 c 128,-1,2
 135 96 135 96 112 60 c 128,-1,3
 89 24 89 24 63 -5 c 128,-1,4
 37 -34 37 -34 12 -58 c 1,5,-1
 -9 -58 l 1,6,7
 18 -28 18 -28 43 3.5 c 128,-1,8
 68 35 68 35 89.5 70.5 c 128,-1,9
 111 106 111 106 128 147 c 128,-1,10
 145 188 145 188 156 237 c 0,11,12
 166 286 166 286 167 327 c 128,-1,13
 168 368 168 368 161 403.5 c 128,-1,14
 154 439 154 439 140.5 470.5 c 128,-1,15
 127 502 127 502 110 532 c 1,16,-1
 137 532 l 1,17,18
 152 509 152 509 165.5 479.5 c 128,-1,19
 179 450 179 450 187 414 c 128,-1,20
 195 378 195 378 195 334 c 128,-1,21
 195 290 195 290 184 237 c 256,0,1
EndSplineSet
EndChar
StartChar: asterisk
Encoding: 42 42 11
Width: 288
Flags: W
Fore
358 400 m 1,0,-1
 347 349 l 1,1,-1
 247 356 l 1,2,-1
 289 279 l 1,3,-1
 240 251 l 1,4,-1
 212 336 l 1,5,-1
 154 245 l 1,6,-1
 112 268 l 1,7,-1
 185 356 l 1,8,-1
 82 349 l 1,9,-1
 93 400 l 1,10,-1
 187 394 l 1,11,-1
 145 475 l 1,12,-1
 194 502 l 1,13,-1
 224 410 l 1,14,-1
 285 505 l 1,15,-1
 325 481 l 1,16,-1
 253 393 l 1,17,-1
 358 400 l 1,18,-1
 358 400 l 1,0,-1
EndSplineSet
EndChar
StartChar: plus
Encoding: 43 43 12
Width: 429
Flags: W
Fore
274 226 m 1,0,-1
 236 50 l 1,1,-1
 201 50 l 1,2,-1
 239 226 l 1,3,-1
 72 226 l 1,4,-1
 79 259 l 1,5,-1
 246 259 l 1,6,-1
 283 433 l 1,7,-1
 318 433 l 1,8,-1
 281 259 l 1,9,-1
 449 259 l 1,10,-1
 442 226 l 1,11,-1
 274 226 l 1,0,-1
EndSplineSet
EndChar
StartChar: comma
Encoding: 44 44 13
Width: 126
Flags: W
Fore
94 56 m 0,0,1
 108 45 108 45 104 27 c 0,2,3
 96 -11 96 -11 73 -36.5 c 128,-1,4
 50 -62 50 -62 30 -74 c 1,5,-1
 11 -74 l 1,6,7
 27 -62 27 -62 44 -43.5 c 128,-1,8
 61 -25 61 -25 69 -3 c 1,9,10
 43 -14 43 -14 32 -2 c 0,11,12
 25 6 25 6 30.5 20.5 c 128,-1,13
 36 35 36 35 49 46 c 0,14,15
 61 56 61 56 73.5 58.5 c 128,-1,16
 86 61 86 61 94 56 c 0,0,1
EndSplineSet
EndChar
StartChar: hyphen
Encoding: 45 45 14
Width: 216
Flags: W
Fore
55 186 m 1,0,-1
 62 221 l 1,1,-1
 236 221 l 1,2,-1
 229 186 l 1,3,-1
 55 186 l 1,0,-1
EndSplineSet
EndChar
StartChar: period
Encoding: 46 46 15
Width: 132
Flags: W
Fore
77 68 m 1,0,1
 89 69 89 69 95 57.5 c 128,-1,2
 101 46 101 46 98 29 c 0,3,4
 94 13 94 13 83 1.5 c 128,-1,5
 72 -10 72 -10 60 -10 c 0,6,7
 47 -10 47 -10 41 1.5 c 128,-1,8
 35 13 35 13 40 29 c 0,9,10
 43 46 43 46 54 57.5 c 128,-1,11
 65 69 65 69 77 68 c 1,0,1
EndSplineSet
EndChar
StartChar: slash
Encoding: 47 47 16
Width: 269
Flags: W
Fore
8 -29 m 1,0,-1
 -15 -29 l 1,1,-1
 340 493 l 1,2,-1
 371 493 l 1,3,-1
 8 -29 l 1,4,-1
 8 -29 l 1,0,-1
EndSplineSet
EndChar
StartChar: zero
Encoding: 48 48 17
Width: 476
Flags: W
Fore
448 428 m 0,0,1
 462 399 462 399 465.5 364 c 128,-1,2
 469 329 469 329 461 278 c 0,3,4
 454 238 454 238 445.5 204.5 c 128,-1,5
 437 171 437 171 423 139 c 0,6,7
 406 101 406 101 382.5 74 c 128,-1,8
 359 47 359 47 334 29.5 c 128,-1,9
 309 12 309 12 284 4.5 c 128,-1,10
 259 -3 259 -3 240 -2 c 0,11,12
 207 -1 207 -1 179 12.5 c 128,-1,13
 151 26 151 26 132 51 c 128,-1,14
 113 76 113 76 106 112.5 c 128,-1,15
 99 149 99 149 107 197 c 0,16,17
 116 244 116 244 126.5 283 c 128,-1,18
 137 322 137 322 153 354 c 256,19,20
 169 386 169 386 188.5 411 c 128,-1,21
 208 436 208 436 231 453 c 0,22,23
 251 468 251 468 276 478.5 c 128,-1,24
 301 489 301 489 335 490 c 0,25,26
 385 489 385 489 409.5 475 c 128,-1,27
 434 461 434 461 448 428 c 0,0,1
407 167 m 0,28,29
 416 196 416 196 421.5 223 c 128,-1,30
 427 250 427 250 432 282 c 0,31,32
 441 337 441 337 435 379 c 0,33,34
 426 424 426 424 405 448 c 128,-1,35
 384 472 384 472 331 470 c 0,36,37
 300 470 300 470 274 456.5 c 128,-1,38
 248 443 248 443 227.5 421 c 128,-1,39
 207 399 207 399 191 371.5 c 128,-1,40
 175 344 175 344 165 316 c 0,41,42
 155 289 155 289 147.5 260 c 128,-1,43
 140 231 140 231 135 199 c 0,44,45
 129 162 129 162 131 129.5 c 128,-1,46
 133 97 133 97 146 72.5 c 128,-1,47
 159 48 159 48 183 33.5 c 128,-1,48
 207 19 207 19 245 18 c 0,49,50
 274 17 274 17 300 31 c 128,-1,51
 326 45 326 45 347 67 c 128,-1,52
 368 89 368 89 383.5 115.5 c 128,-1,53
 399 142 399 142 407 167 c 0,28,29
EndSplineSet
EndChar
StartChar: one
Encoding: 49 49 18
Width: 476
Flags: W
Fore
318 446 m 1,0,-1
 269 420 l 1,1,-1
 274 446 l 1,2,-1
 331 475 l 1,3,-1
 357 475 l 1,4,-1
 262 0 l 1,5,-1
 228 0 l 1,6,-1
 318 446 l 1,7,-1
 318 446 l 1,0,-1
EndSplineSet
EndChar
StartChar: two
Encoding: 50 50 19
Width: 476
Flags: W
Fore
76 24 m 1,0,1
 110 54 110 54 187 114 c 0,2,3
 225 146 225 146 257.5 172 c 128,-1,4
 290 198 290 198 316 221 c 0,5,6
 343 244 343 244 364 267.5 c 128,-1,7
 385 291 385 291 405 312 c 0,8,9
 423 334 423 334 432.5 352 c 128,-1,10
 442 370 442 370 445 385 c 0,11,12
 451 408 451 408 442 427 c 0,13,14
 437 437 437 437 431 444 c 128,-1,15
 425 451 425 451 411 457 c 0,16,17
 397 462 397 462 377 462.5 c 128,-1,18
 357 463 357 463 334 463 c 0,19,20
 319 463 319 463 299.5 457 c 128,-1,21
 280 451 280 451 259 440.5 c 128,-1,22
 238 430 238 430 216.5 417 c 128,-1,23
 195 404 195 404 174 390 c 1,24,-1
 181 419 l 1,25,26
 233 455 233 455 272 470.5 c 128,-1,27
 311 486 311 486 343 486 c 0,28,29
 374 486 374 486 394 483.5 c 128,-1,30
 414 481 414 481 431 472 c 0,31,32
 461 456 461 456 469 432 c 0,33,34
 474 421 474 421 474.5 409 c 128,-1,35
 475 397 475 397 473 386 c 0,36,37
 469 371 469 371 463 354.5 c 128,-1,38
 457 338 457 338 440 318 c 0,39,40
 425 299 425 299 405.5 276.5 c 128,-1,41
 386 254 386 254 363 234 c 0,42,43
 339 212 339 212 313 189.5 c 128,-1,44
 287 167 287 167 255 141 c 0,45,46
 224 116 224 116 187 86 c 128,-1,47
 150 56 150 56 105 20 c 1,48,49
 137 20 137 20 155 19.5 c 128,-1,50
 173 19 173 19 199 21 c 0,51,52
 259 23 259 23 308.5 22.5 c 128,-1,53
 358 22 358 22 384 23 c 1,54,-1
 378 -1 l 1,55,-1
 69 -1 l 1,56,-1
 76 24 l 1,0,1
EndSplineSet
EndChar
StartChar: three
Encoding: 51 51 20
Width: 476
Flags: W
Fore
210 262 m 1,0,1
 224 261 224 261 232 261 c 128,-1,2
 240 261 240 261 244 261 c 0,3,4
 299 262 299 262 339 281 c 0,5,6
 379 298 379 298 399 324 c 0,7,8
 410 337 410 337 415 344.5 c 128,-1,9
 420 352 420 352 422 366 c 0,10,11
 432 418 432 418 399 439 c 0,12,13
 367 461 367 461 306 459 c 0,14,15
 274 457 274 457 249.5 451 c 128,-1,16
 225 445 225 445 195 436 c 1,17,-1
 202 461 l 1,18,19
 238 468 238 468 261 473 c 128,-1,20
 284 478 284 478 306 479 c 0,21,22
 362 481 362 481 395 469 c 0,23,24
 412 462 412 462 425.5 453 c 128,-1,25
 439 444 439 444 447 433 c 1,26,27
 460 408 460 408 456 379 c 0,28,29
 445 323 445 323 410.5 295.5 c 128,-1,30
 376 268 376 268 313 256 c 1,31,-1
 312 254 l 1,32,33
 373 255 373 255 402 228 c 0,34,35
 432 201 432 201 423 146 c 0,36,37
 415 114 415 114 400 90 c 0,38,39
 391 77 391 77 379.5 65.5 c 128,-1,40
 368 54 368 54 353 43 c 0,41,42
 339 34 339 34 321.5 25.5 c 128,-1,43
 304 17 304 17 284 10 c 0,44,45
 263 4 263 4 246.5 1.5 c 128,-1,46
 230 -1 230 -1 206 -3 c 0,47,48
 198 -3 198 -3 184 -1.5 c 128,-1,49
 170 0 170 0 154 2.5 c 128,-1,50
 138 5 138 5 123 8.5 c 128,-1,51
 108 12 108 12 99 17 c 1,52,-1
 100 40 l 1,53,54
 131 27 131 27 155.5 21.5 c 128,-1,55
 180 16 180 16 215 18 c 0,56,57
 236 18 236 18 251 22 c 128,-1,58
 266 26 266 26 286 33 c 0,59,60
 326 47 326 47 356 76 c 0,61,62
 384 101 384 101 390 140 c 0,63,64
 402 202 402 202 363 221 c 0,65,66
 326 243 326 243 252 241 c 1,67,68
 247 240 247 240 240.5 240 c 128,-1,69
 234 240 234 240 226 239 c 0,70,71
 219 238 219 238 213.5 238 c 128,-1,72
 208 238 208 238 205 238 c 1,73,-1
 210 262 l 1,74,-1
 210 262 l 1,0,1
EndSplineSet
EndChar
StartChar: four
Encoding: 52 52 21
Width: 476
Flags: W
Fore
422 134 m 1,0,-1
 360 134 l 1,1,2
 359 130 359 130 356.5 117 c 128,-1,3
 354 104 354 104 350 85.5 c 128,-1,4
 346 67 346 67 341.5 45 c 128,-1,5
 337 23 337 23 333 2 c 1,6,-1
 301 1 l 1,7,8
 309 39 309 39 312.5 58 c 128,-1,9
 316 77 316 77 318.5 88.5 c 128,-1,10
 321 100 321 100 323 108.5 c 128,-1,11
 325 117 325 117 329 134 c 1,12,-1
 109 134 l 1,13,-1
 115 161 l 1,14,15
 187 245 187 245 259 327 c 128,-1,16
 331 409 331 409 388 479 c 1,17,-1
 434 479 l 1,18,19
 425 440 425 440 414.5 392 c 128,-1,20
 404 344 404 344 394.5 298 c 128,-1,21
 385 252 385 252 376.5 213.5 c 128,-1,22
 368 175 368 175 364 155 c 1,23,-1
 426 155 l 1,24,-1
 422 134 l 1,0,-1
332 155 m 1,25,26
 338 188 338 188 347 227.5 c 128,-1,27
 356 267 356 267 365 307.5 c 128,-1,28
 374 348 374 348 382.5 386.5 c 128,-1,29
 391 425 391 425 397 455 c 1,30,-1
 138 155 l 1,31,-1
 332 155 l 1,25,26
EndSplineSet
EndChar
StartChar: five
Encoding: 53 53 22
Width: 476
Flags: W
Fore
492 479 m 1,0,-1
 487 454 l 1,1,2
 406 460 406 460 311 460 c 2,3,-1
 247 460 l 1,4,-1
 183 268 l 1,5,6
 216 272 216 272 240 274 c 128,-1,7
 264 276 264 276 281 276 c 0,8,9
 372 276 372 276 407 243 c 256,10,11
 442 210 442 210 431 157 c 0,12,13
 421 108 421 108 383 70 c 0,14,15
 346 31 346 31 293 13 c 0,16,17
 266 2 266 2 238.5 -2 c 128,-1,18
 211 -6 211 -6 182 -6 c 0,19,20
 135 -6 135 -6 83 6 c 1,21,-1
 83 31 l 1,22,23
 112 23 112 23 138 19 c 128,-1,24
 164 15 164 15 190 15 c 0,25,26
 265 15 265 15 327 53 c 0,27,28
 387 91 387 91 401 157 c 0,29,30
 410 202 410 202 377 229 c 0,31,32
 343 255 343 255 264 255 c 0,33,34
 205 255 205 255 148 246 c 1,35,-1
 223 479 l 1,36,-1
 492 479 l 1,0,-1
EndSplineSet
EndChar
StartChar: six
Encoding: 54 54 23
Width: 476
Flags: W
Fore
435 212 m 1,0,1
 438 197 438 197 439 180.5 c 128,-1,2
 440 164 440 164 436 146 c 0,3,4
 431 125 431 125 421.5 107 c 128,-1,5
 412 89 412 89 400 72 c 0,6,7
 372 36 372 36 330 17 c 0,8,9
 289 -3 289 -3 238 -3 c 0,10,11
 194 -3 194 -3 160 9 c 0,12,13
 122 23 122 23 105 52 c 0,14,15
 86 83 86 83 96 134 c 0,16,17
 99 149 99 149 104.5 165 c 128,-1,18
 110 181 110 181 118 198 c 0,19,20
 125 214 125 214 136.5 233 c 128,-1,21
 148 252 148 252 163 273 c 0,22,23
 176 293 176 293 195 316 c 128,-1,24
 214 339 214 339 238 365 c 0,25,26
 260 391 260 391 289 420.5 c 128,-1,27
 318 450 318 450 353 483 c 1,28,-1
 393 483 l 1,29,30
 281 386 281 386 211 293 c 0,31,32
 201 281 201 281 193 269 c 128,-1,33
 185 257 185 257 177 246 c 1,34,35
 200 258 200 258 235 269.5 c 128,-1,36
 270 281 270 281 308 280 c 0,37,38
 334 280 334 280 358 274 c 128,-1,39
 382 268 382 268 397 259 c 0,40,41
 424 243 424 243 435 212 c 1,0,1
377 84 m 0,42,43
 399 114 399 114 407 150 c 0,44,45
 417 196 417 196 394 227 c 0,46,47
 383 243 383 243 360 249.5 c 128,-1,48
 337 256 337 256 305 255 c 0,49,50
 269 254 269 254 226 239.5 c 128,-1,51
 183 225 183 225 149 197 c 1,52,53
 134 166 134 166 128 138 c 0,54,55
 120 100 120 100 132 73 c 256,56,57
 144 46 144 46 171 31 c 0,58,59
 197 17 197 17 235 17 c 0,60,61
 259 17 259 17 280.5 22 c 128,-1,62
 302 27 302 27 319 35 c 0,63,64
 357 56 357 56 377 84 c 0,42,43
EndSplineSet
EndChar
StartChar: seven
Encoding: 55 55 24
Width: 476
Flags: W
Fore
459 457 m 1,0,1
 393 457 393 457 327 454.5 c 128,-1,2
 261 452 261 452 188 454 c 1,3,-1
 193 478 l 1,4,-1
 489 478 l 1,5,-1
 482 451 l 1,6,7
 443 397 443 397 401 340 c 128,-1,8
 359 283 359 283 317 225.5 c 128,-1,9
 275 168 275 168 234 110.5 c 128,-1,10
 193 53 193 53 156 -1 c 1,11,-1
 123 -1 l 1,12,13
 201 105 201 105 284.5 218 c 128,-1,14
 368 331 368 331 459 457 c 1,0,1
EndSplineSet
EndChar
StartChar: eight
Encoding: 56 56 25
Width: 476
Flags: W
Fore
438 137 m 0,0,1
 430 94 430 94 404 64 c 0,2,3
 386 47 386 47 371.5 37.5 c 128,-1,4
 357 28 357 28 334 18 c 0,5,6
 313 10 313 10 288.5 4.5 c 128,-1,7
 264 -1 264 -1 237 -1 c 0,8,9
 236 -1 236 -1 235 -2 c 1,10,11
 208 -2 208 -2 186 1.5 c 128,-1,12
 164 5 164 5 145 13 c 0,13,14
 127 21 127 21 115 31.5 c 128,-1,15
 103 42 103 42 95 56 c 0,16,17
 81 84 81 84 87 119 c 0,18,19
 102 221 102 221 224 248 c 1,20,21
 184 258 184 258 164 287 c 0,22,23
 147 312 147 312 152 352 c 0,24,25
 158 383 158 383 175.5 408.5 c 128,-1,26
 193 434 193 434 218 452.5 c 128,-1,27
 243 471 243 471 273 480.5 c 128,-1,28
 303 490 303 490 333 490 c 2,29,-1
 342 490 l 2,30,31
 368 491 368 491 393 484 c 128,-1,32
 418 477 418 477 436.5 462.5 c 128,-1,33
 455 448 455 448 464.5 426.5 c 128,-1,34
 474 405 474 405 470 377 c 0,35,36
 462 327 462 327 434 299.5 c 128,-1,37
 406 272 406 272 355 250 c 1,38,39
 404 239 404 239 424.5 208.5 c 128,-1,40
 445 178 445 178 438 137 c 0,0,1
203 282 m 256,41,42
 230 256 230 256 283 258 c 2,43,-1
 287 258 l 2,44,45
 326 260 326 260 357 272 c 0,46,47
 390 288 390 288 412 313.5 c 128,-1,48
 434 339 434 339 440 373 c 0,49,50
 445 422 445 422 415.5 447 c 128,-1,51
 386 472 386 472 333 470 c 2,52,-1
 328 470 l 2,53,54
 302 468 302 468 278 460 c 128,-1,55
 254 452 254 452 234.5 437 c 128,-1,56
 215 422 215 422 201.5 401 c 128,-1,57
 188 380 188 380 184 352 c 0,58,59
 176 308 176 308 203 282 c 256,41,42
381 80 m 0,60,61
 392 94 392 94 398.5 107 c 128,-1,62
 405 120 405 120 408 137 c 0,63,64
 412 164 412 164 403.5 183.5 c 128,-1,65
 395 203 395 203 378.5 215 c 128,-1,66
 362 227 362 227 338 232.5 c 128,-1,67
 314 238 314 238 287 237 c 2,68,-1
 284 237 l 2,69,70
 261 237 261 237 240.5 233 c 128,-1,71
 220 229 220 229 202 222 c 0,72,73
 184 214 184 214 169.5 204.5 c 128,-1,74
 155 195 155 195 144 182 c 0,75,76
 135 169 135 169 128 155 c 128,-1,77
 121 141 121 141 119 124 c 0,78,79
 110 76 110 76 145 46 c 0,80,81
 179 18 179 18 241 18 c 2,82,-1
 244 18 l 2,83,84
 287 20 287 20 321 36 c 0,85,86
 356 52 356 52 381 80 c 0,60,61
EndSplineSet
EndChar
StartChar: nine
Encoding: 57 57 26
Width: 476
Flags: W
Fore
140 270 m 0,0,1
 136 285 136 285 135.5 301 c 128,-1,2
 135 317 135 317 139 335 c 0,3,4
 144 356 144 356 153.5 374.5 c 128,-1,5
 163 393 163 393 175 410 c 0,6,7
 205 446 205 446 245 465 c 0,8,9
 286 485 286 485 338 485 c 0,10,11
 380 485 380 485 415 473 c 0,12,13
 452 459 452 459 471 430 c 0,14,15
 480 414 480 414 482.5 393.5 c 128,-1,16
 485 373 485 373 479 347 c 0,17,18
 476 332 476 332 471 316 c 128,-1,19
 466 300 466 300 458 284 c 256,20,21
 450 268 450 268 439 249 c 128,-1,22
 428 230 428 230 413 209 c 0,23,24
 399 188 399 188 380.5 165 c 128,-1,25
 362 142 362 142 337 116 c 0,26,27
 314 91 314 91 285.5 61.5 c 128,-1,28
 257 32 257 32 222 -1 c 1,29,-1
 182 -1 l 1,30,31
 239 48 239 48 284 95 c 128,-1,32
 329 142 329 142 364 188 c 0,33,34
 374 201 374 201 382 212.5 c 128,-1,35
 390 224 390 224 398 235 c 1,36,37
 375 223 375 223 340 212 c 128,-1,38
 305 201 305 201 267 201 c 0,39,40
 241 202 241 202 217 208 c 128,-1,41
 193 214 193 214 179 223 c 0,42,43
 151 238 151 238 140 270 c 0,0,1
198 397 m 0,44,45
 187 383 187 383 179.5 366.5 c 128,-1,46
 172 350 172 350 168 332 c 0,47,48
 158 285 158 285 181 254 c 0,49,50
 192 238 192 238 215.5 231.5 c 128,-1,51
 239 225 239 225 271 226 c 0,52,53
 306 228 306 228 349 242 c 128,-1,54
 392 256 392 256 425 284 c 1,55,56
 434 301 434 301 439.5 315.5 c 128,-1,57
 445 330 445 330 448 344 c 0,58,59
 455 380 455 380 443 408 c 0,60,61
 431 435 431 435 404 450 c 0,62,63
 376 464 376 464 340 464 c 0,64,65
 316 464 316 464 295 459 c 128,-1,66
 274 454 274 454 256 446 c 0,67,68
 239 436 239 436 224 424 c 128,-1,69
 209 412 209 412 198 397 c 0,44,45
EndSplineSet
EndChar
StartChar: colon
Encoding: 58 58 27
Width: 137
Flags: W
Fore
82 80 m 1,0,1
 94 81 94 81 100 69.5 c 128,-1,2
 106 58 106 58 102 41 c 0,3,4
 99 25 99 25 88 13.5 c 128,-1,5
 77 2 77 2 65 2 c 0,6,7
 52 2 52 2 46 13.5 c 128,-1,8
 40 25 40 25 44 41 c 0,9,10
 48 58 48 58 59 69.5 c 128,-1,11
 70 81 70 81 82 80 c 1,0,1
137 338 m 1,12,13
 149 339 149 339 155 327.5 c 128,-1,14
 161 316 161 316 157 299 c 0,15,16
 154 283 154 283 143 271.5 c 128,-1,17
 132 260 132 260 120 260 c 256,18,19
 108 260 108 260 102 271.5 c 128,-1,20
 96 283 96 283 100 299 c 0,21,22
 104 316 104 316 115 327.5 c 128,-1,23
 126 339 126 339 137 338 c 1,12,13
EndSplineSet
EndChar
StartChar: semicolon
Encoding: 59 59 28
Width: 139
Flags: W
Fore
94 56 m 0,0,1
 108 45 108 45 104 27 c 0,2,3
 96 -11 96 -11 73 -36.5 c 128,-1,4
 50 -62 50 -62 30 -74 c 1,5,-1
 11 -74 l 1,6,7
 27 -62 27 -62 44 -43.5 c 128,-1,8
 61 -25 61 -25 69 -3 c 1,9,10
 43 -14 43 -14 32 -2 c 0,11,12
 25 6 25 6 30.5 20.5 c 128,-1,13
 36 35 36 35 49 46 c 0,14,15
 61 56 61 56 73.5 58.5 c 128,-1,16
 86 61 86 61 94 56 c 0,0,1
137 338 m 1,17,18
 149 339 149 339 155 327.5 c 128,-1,19
 161 316 161 316 157 299 c 0,20,21
 154 283 154 283 143 271.5 c 128,-1,22
 132 260 132 260 120 260 c 256,23,24
 108 260 108 260 102 271.5 c 128,-1,25
 96 283 96 283 100 299 c 0,26,27
 104 316 104 316 115 327.5 c 128,-1,28
 126 339 126 339 137 338 c 1,17,18
EndSplineSet
EndChar
StartChar: less
Encoding: 60 60 29
Width: 353
Flags: W
Fore
311 -5 m 1,0,1
 293 30 293 30 265 61.5 c 128,-1,2
 237 93 237 93 204 118.5 c 128,-1,3
 171 144 171 144 136 162.5 c 128,-1,4
 101 181 101 181 70 191 c 1,5,6
 106 203 106 203 148 222 c 128,-1,7
 190 241 190 241 233 266.5 c 128,-1,8
 276 292 276 292 318 323 c 128,-1,9
 360 354 360 354 396 391 c 1,10,-1
 387 352 l 1,11,12
 360 329 360 329 328 305 c 128,-1,13
 296 281 296 281 261.5 259.5 c 128,-1,14
 227 238 227 238 192.5 220.5 c 128,-1,15
 158 203 158 203 126 193 c 1,16,17
 153 184 153 184 180.5 167.5 c 128,-1,18
 208 151 208 151 233.5 129.5 c 128,-1,19
 259 108 259 108 281 83 c 128,-1,20
 303 58 303 58 320 33 c 1,21,-1
 311 -5 l 1,0,1
EndSplineSet
EndChar
StartChar: equal
Encoding: 61 61 30
Width: 429
Flags: W
Fore
74 236 m 1,0,-1
 80 268 l 1,1,-1
 450 268 l 1,2,-1
 444 236 l 1,3,-1
 74 236 l 1,0,-1
49 123 m 1,4,-1
 56 155 l 1,5,-1
 426 155 l 1,6,-1
 420 123 l 1,7,-1
 49 123 l 1,4,-1
EndSplineSet
EndChar
StartChar: greater
Encoding: 62 62 31
Width: 365
Flags: W
Fore
129 389 m 1,0,1
 147 354 147 354 174.5 322.5 c 128,-1,2
 202 291 202 291 235 265.5 c 128,-1,3
 268 240 268 240 303.5 221.5 c 128,-1,4
 339 203 339 203 371 193 c 1,5,6
 334 181 334 181 292 162 c 128,-1,7
 250 143 250 143 207 117.5 c 128,-1,8
 164 92 164 92 122 61 c 128,-1,9
 80 30 80 30 44 -7 c 1,10,-1
 52 32 l 1,11,12
 79 55 79 55 111 79 c 128,-1,13
 143 103 143 103 177.5 124.5 c 128,-1,14
 212 146 212 146 247 163.5 c 128,-1,15
 282 181 282 181 314 191 c 1,16,17
 287 200 287 200 259.5 216.5 c 128,-1,18
 232 233 232 233 207 254.5 c 128,-1,19
 182 276 182 276 159.5 300.5 c 128,-1,20
 137 325 137 325 121 351 c 1,21,-1
 129 389 l 1,0,1
EndSplineSet
EndChar
StartChar: question
Encoding: 63 63 32
Width: 326
Flags: W
Fore
210 366 m 0,0,1
 194 334 194 334 169.5 315 c 128,-1,2
 145 296 145 296 125 302 c 0,3,4
 104 308 104 308 100.5 335 c 128,-1,5
 97 362 97 362 112 395 c 0,6,7
 117 404 117 404 123.5 413 c 128,-1,8
 130 422 130 422 137 430 c 0,9,10
 156 453 156 453 182.5 469.5 c 128,-1,11
 209 486 209 486 236 491 c 0,12,13
 286 502 286 502 319 483.5 c 128,-1,14
 352 465 352 465 363 431 c 128,-1,15
 374 397 374 397 360.5 355.5 c 128,-1,16
 347 314 347 314 304 278 c 0,17,18
 300 275 300 275 287.5 267.5 c 128,-1,19
 275 260 275 260 260 249 c 128,-1,20
 245 238 245 238 231 225 c 128,-1,21
 217 212 217 212 209 198 c 0,22,23
 200 182 200 182 194.5 169 c 128,-1,24
 189 156 189 156 186 145 c 0,25,26
 182 133 182 133 182 123 c 1,27,-1
 156 124 l 1,28,29
 155 134 155 134 159 146 c 0,30,31
 164 168 164 168 184 207 c 0,32,33
 192 221 192 221 207 235.5 c 128,-1,34
 222 250 222 250 238 262 c 0,35,36
 256 276 256 276 278 290 c 0,37,38
 311 315 311 315 326.5 347.5 c 128,-1,39
 342 380 342 380 338.5 408.5 c 128,-1,40
 335 437 335 437 313 455 c 128,-1,41
 291 473 291 473 251 469 c 0,42,43
 231 467 231 467 205 455 c 1,44,45
 221 446 221 446 223 421 c 128,-1,46
 225 396 225 396 210 366 c 0,0,1
135 388 m 256,47,48
 131 379 131 379 128 368 c 128,-1,49
 125 357 125 357 124 347 c 128,-1,50
 123 337 123 337 124.5 329 c 128,-1,51
 126 321 126 321 132 319 c 0,52,53
 139 317 139 317 147 321.5 c 128,-1,54
 155 326 155 326 162.5 334.5 c 128,-1,55
 170 343 170 343 177 353 c 128,-1,56
 184 363 184 363 188 372 c 256,57,58
 192 381 192 381 195.5 392 c 128,-1,59
 199 403 199 403 199.5 413.5 c 128,-1,60
 200 424 200 424 198 431.5 c 128,-1,61
 196 439 196 439 189 442 c 0,62,63
 183 444 183 444 175.5 439 c 128,-1,64
 168 434 168 434 160.5 425.5 c 128,-1,65
 153 417 153 417 146 407 c 128,-1,66
 139 397 139 397 135 388 c 256,47,48
160 80 m 1,67,68
 172 81 172 81 178 69.5 c 128,-1,69
 184 58 184 58 180 41 c 0,70,71
 177 25 177 25 166 13.5 c 128,-1,72
 155 2 155 2 143 2 c 0,73,74
 130 2 130 2 124 13.5 c 128,-1,75
 118 25 118 25 122 41 c 0,76,77
 126 58 126 58 137 69.5 c 128,-1,78
 148 81 148 81 160 80 c 1,67,68
EndSplineSet
EndChar
StartChar: at
Encoding: 64 64 33
Width: 604
Flags: W
Fore
351 162 m 0,0,1
 358 163 358 163 369 167 c 128,-1,2
 380 171 380 171 390.5 177 c 128,-1,3
 401 183 401 183 409 190 c 128,-1,4
 417 197 417 197 419 206 c 0,5,6
 421 217 421 217 417.5 230 c 128,-1,7
 414 243 414 243 403 252 c 0,8,9
 391 262 391 262 371.5 265.5 c 128,-1,10
 352 269 352 269 328.5 267 c 128,-1,11
 305 265 305 265 281 258.5 c 128,-1,12
 257 252 257 252 238 243 c 1,13,-1
 248 268 l 1,14,15
 270 278 270 278 294 283 c 128,-1,16
 318 288 318 288 340.5 288.5 c 128,-1,17
 363 289 363 289 384 285 c 128,-1,18
 405 281 405 281 421 272 c 0,19,20
 438 264 438 264 445 246 c 128,-1,21
 452 228 452 228 447 205 c 2,22,-1
 417 63 l 2,23,24
 415 55 415 55 413.5 43.5 c 128,-1,25
 412 32 412 32 414 26 c 1,26,27
 433 27 433 27 455.5 38.5 c 128,-1,28
 478 50 478 50 498 69.5 c 128,-1,29
 518 89 518 89 533.5 115 c 128,-1,30
 549 141 549 141 556 171 c 0,31,32
 565 213 565 213 558 250 c 128,-1,33
 551 287 551 287 530 314.5 c 128,-1,34
 509 342 509 342 474 357.5 c 128,-1,35
 439 373 439 373 393 373 c 256,36,37
 347 373 347 373 300 355.5 c 128,-1,38
 253 338 253 338 212.5 306.5 c 128,-1,39
 172 275 172 275 142.5 230.5 c 128,-1,40
 113 186 113 186 101 131 c 0,41,42
 92 86 92 86 101 48 c 128,-1,43
 110 10 110 10 133 -18.5 c 128,-1,44
 156 -47 156 -47 190 -63 c 128,-1,45
 224 -79 224 -79 265 -79 c 0,46,47
 300 -79 300 -79 331.5 -72.5 c 128,-1,48
 363 -66 363 -66 391 -51 c 1,49,-1
 400 -71 l 1,50,51
 365 -89 365 -89 329 -96.5 c 128,-1,52
 293 -104 293 -104 257 -104 c 0,53,54
 210 -104 210 -104 172 -87 c 128,-1,55
 134 -70 134 -70 109 -39.5 c 128,-1,56
 84 -9 84 -9 74.5 34 c 128,-1,57
 65 77 65 77 76 128 c 0,58,59
 88 181 88 181 116.5 229.5 c 128,-1,60
 145 278 145 278 187.5 315.5 c 128,-1,61
 230 353 230 353 284.5 375 c 128,-1,62
 339 397 339 397 403 397 c 0,63,64
 455 397 455 397 493 380 c 128,-1,65
 531 363 531 363 554 333 c 128,-1,66
 577 303 577 303 584.5 262.5 c 128,-1,67
 592 222 592 222 582 175 c 0,68,69
 574 138 574 138 555 107 c 128,-1,70
 536 76 536 76 511 53 c 128,-1,71
 486 30 486 30 459.5 17 c 128,-1,72
 433 4 433 4 410 4 c 1,73,-1
 405 5 l 1,74,75
 395 9 395 9 390 18.5 c 128,-1,76
 385 28 385 28 386 39 c 1,77,78
 377 33 377 33 362 25 c 128,-1,79
 347 17 347 17 328 11 c 128,-1,80
 309 5 309 5 287 2 c 128,-1,81
 265 -1 265 -1 243 4 c 0,82,83
 214 10 214 10 200.5 28 c 128,-1,84
 187 46 187 46 194 78 c 0,85,86
 200 105 200 105 217 120 c 128,-1,87
 234 135 234 135 256.5 142.5 c 128,-1,88
 279 150 279 150 304 153.5 c 128,-1,89
 329 157 329 157 351 162 c 0,0,1
414 171 m 1,90,91
 397 160 397 160 381 153 c 128,-1,92
 365 146 365 146 347 143 c 256,93,94
 329 140 329 140 308 136 c 128,-1,95
 287 132 287 132 268 125 c 128,-1,96
 249 118 249 118 235.5 107 c 128,-1,97
 222 96 222 96 218 78 c 0,98,99
 213 57 213 57 223.5 42 c 128,-1,100
 234 27 234 27 254 25 c 0,101,102
 280 21 280 21 300.5 24 c 128,-1,103
 321 27 321 27 337.5 34 c 128,-1,104
 354 41 354 41 367 49.5 c 128,-1,105
 380 58 380 58 392 66 c 1,106,-1
 414 171 l 1,90,91
EndSplineSet
EndChar
StartChar: A
Encoding: 65 65 34
Width: 443
Flags: W
Fore
364 156 m 1,0,-1
 133 156 l 1,1,-1
 64 0 l 1,2,-1
 33 0 l 1,3,-1
 199 371 l 2,4,5
 210 394 210 394 223 416.5 c 128,-1,6
 236 439 236 439 251 456.5 c 128,-1,7
 266 474 266 474 283 484.5 c 128,-1,8
 300 495 300 495 320 494 c 0,9,10
 344 492 344 492 356.5 480 c 128,-1,11
 369 468 369 468 375 450.5 c 128,-1,12
 381 433 381 433 383 411.5 c 128,-1,13
 385 390 385 390 388 371 c 2,14,-1
 408 0 l 1,15,-1
 372 0 l 1,16,-1
 364 156 l 1,0,-1
362 183 m 1,17,-1
 355 354 l 2,18,19
 353 375 353 375 352.5 391.5 c 128,-1,20
 352 408 352 408 347 430 c 0,21,22
 343 449 343 449 333 457 c 128,-1,23
 323 465 323 465 310.5 463.5 c 128,-1,24
 298 462 298 462 285.5 452 c 128,-1,25
 273 442 273 442 264 426 c 0,26,27
 253 406 253 406 245 390.5 c 128,-1,28
 237 375 237 375 226 354 c 2,29,-1
 145 183 l 1,30,-1
 362 183 l 1,17,-1
EndSplineSet
EndChar
StartChar: B
Encoding: 66 66 35
Width: 450
Flags: W
Fore
333 291 m 1,0,1
 350 287 350 287 370.5 277.5 c 128,-1,2
 391 268 391 268 407 251 c 128,-1,3
 423 234 423 234 430.5 208 c 128,-1,4
 438 182 438 182 429 145 c 0,5,6
 419 99 419 99 397.5 70.5 c 128,-1,7
 376 42 376 42 349.5 26.5 c 128,-1,8
 323 11 323 11 295 5.5 c 128,-1,9
 267 0 267 0 244 0 c 2,10,-1
 70 0 l 1,11,-1
 169 485 l 1,12,-1
 350 485 l 2,13,14
 377 485 377 485 391 477.5 c 128,-1,15
 405 470 405 470 416 456 c 0,16,17
 437 430 437 430 428 388 c 0,18,19
 421 356 421 356 394 328 c 0,20,21
 368 301 368 301 333 291 c 1,0,1
251 26 m 2,22,23
 271 26 271 26 293.5 31.5 c 128,-1,24
 316 37 316 37 336.5 50.5 c 128,-1,25
 357 64 357 64 373.5 88 c 128,-1,26
 390 112 390 112 398 148 c 0,27,28
 404 178 404 178 396 201.5 c 128,-1,29
 388 225 388 225 372 241.5 c 128,-1,30
 356 258 356 258 335.5 267 c 128,-1,31
 315 276 315 276 296 278 c 2,32,-1
 246 278 l 1,33,-1
 252 306 l 1,34,-1
 302 306 l 2,35,36
 317 306 317 306 332.5 312.5 c 128,-1,37
 348 319 348 319 361.5 330.5 c 128,-1,38
 375 342 375 342 385.5 356.5 c 128,-1,39
 396 371 396 371 399 386 c 0,40,41
 405 417 405 417 389.5 439 c 128,-1,42
 374 461 374 461 343 460 c 2,43,-1
 192 460 l 1,44,45
 182 413 182 413 170 355.5 c 128,-1,46
 158 298 158 298 146 239.5 c 128,-1,47
 134 181 134 181 122 125.5 c 128,-1,48
 110 70 110 70 101 26 c 1,49,-1
 251 26 l 2,22,23
EndSplineSet
EndChar
StartChar: C
Encoding: 67 67 36
Width: 431
Flags: W
Fore
154 38 m 256,0,1
 172 26 172 26 202.5 21 c 128,-1,2
 233 16 233 16 266 20 c 128,-1,3
 299 24 299 24 329 38 c 128,-1,4
 359 52 359 52 376 78 c 1,5,-1
 401 67 l 1,6,7
 379 36 379 36 341.5 19 c 128,-1,8
 304 2 304 2 263.5 -3.5 c 128,-1,9
 223 -9 223 -9 185 -3 c 128,-1,10
 147 3 147 3 125 18 c 0,11,12
 105 32 105 32 92.5 52.5 c 128,-1,13
 80 73 80 73 86 99 c 2,14,-1
 148 387 l 2,15,16
 153 413 153 413 174 433.5 c 128,-1,17
 195 454 195 454 221 467 c 0,18,19
 249 482 249 482 289.5 488 c 128,-1,20
 330 494 330 494 368 489 c 128,-1,21
 406 484 406 484 436.5 467 c 128,-1,22
 467 450 467 450 476 419 c 1,23,-1
 446 408 l 1,24,25
 441 434 441 434 417 448 c 128,-1,26
 393 462 393 462 361.5 466 c 128,-1,27
 330 470 330 470 297 465 c 128,-1,28
 264 460 264 460 241 448 c 0,29,30
 218 435 218 435 199.5 415.5 c 128,-1,31
 181 396 181 396 176 374 c 0,32,33
 169 342 169 342 162.5 309 c 128,-1,34
 156 276 156 276 148 242 c 0,35,36
 140 207 140 207 133.5 175.5 c 128,-1,37
 127 144 127 144 120 112 c 0,38,39
 115 89 115 89 125.5 69.5 c 128,-1,40
 136 50 136 50 154 38 c 256,0,1
EndSplineSet
EndChar
StartChar: D
Encoding: 68 68 37
Width: 456
Flags: W
Fore
71 0 m 1,0,1
 78 51 78 51 88 102 c 128,-1,2
 98 153 98 153 109 204 c 0,3,4
 111 215 111 215 113.5 224.5 c 128,-1,5
 116 234 116 234 118 245 c 0,6,7
 122 265 l 128,-1,8
 126 285 l 0,9,10
 138 336 138 336 148.5 387 c 128,-1,11
 159 438 159 438 170 489 c 1,12,13
 240 489 240 489 298.5 482 c 128,-1,14
 357 475 357 475 396 449.5 c 128,-1,15
 435 424 435 424 449.5 375.5 c 128,-1,16
 464 327 464 327 448 245 c 0,17,18
 433 180 433 180 411 136.5 c 128,-1,19
 389 93 389 93 361 65.5 c 128,-1,20
 333 38 333 38 299.5 24.5 c 128,-1,21
 266 11 266 11 229 5.5 c 128,-1,22
 192 0 192 0 152 0 c 128,-1,23
 112 0 112 0 71 0 c 1,0,1
418 245 m 0,24,25
 430 302 430 302 424 344 c 128,-1,26
 418 386 418 386 391.5 413 c 128,-1,27
 365 440 365 440 316 452.5 c 128,-1,28
 267 465 267 465 194 464 c 1,29,30
 183 409 183 409 171 354.5 c 128,-1,31
 159 300 159 300 148 245 c 0,32,33
 136 190 136 190 124.5 135.5 c 128,-1,34
 113 81 113 81 101 25 c 1,35,36
 178 22 178 22 232.5 33 c 128,-1,37
 287 44 287 44 324 70.5 c 128,-1,38
 361 97 361 97 383 140.5 c 128,-1,39
 405 184 405 184 418 245 c 0,24,25
EndSplineSet
EndChar
StartChar: E
Encoding: 69 69 38
Width: 438
Flags: W
Fore
338 460 m 1,0,1
 310 460 310 460 282.5 454 c 128,-1,2
 255 448 255 448 231.5 431.5 c 128,-1,3
 208 415 208 415 189.5 385.5 c 128,-1,4
 171 356 171 356 162 308 c 2,5,-1
 149 246 l 1,6,-1
 355 246 l 1,7,-1
 349 219 l 1,8,-1
 143 219 l 1,9,-1
 133 174 l 2,10,11
 122 126 122 126 127.5 96.5 c 128,-1,12
 133 67 133 67 150 50.5 c 128,-1,13
 167 34 167 34 192 27.5 c 128,-1,14
 217 21 217 21 245 21 c 2,15,-1
 383 21 l 1,16,-1
 378 -4 l 1,17,-1
 242 -4 l 2,18,19
 204 -3 204 -3 173 3 c 128,-1,20
 142 9 142 9 122 27.5 c 128,-1,21
 102 46 102 46 95.5 81 c 128,-1,22
 89 116 89 116 102 175 c 2,23,-1
 130 307 l 2,24,25
 143 366 143 366 164 401 c 128,-1,26
 185 436 185 436 213 454.5 c 128,-1,27
 241 473 241 473 274.5 479 c 128,-1,28
 308 485 308 485 346 486 c 2,29,-1
 482 486 l 1,30,-1
 476 460 l 1,31,-1
 338 460 l 1,32,-1
 338 460 l 1,0,1
EndSplineSet
EndChar
StartChar: F
Encoding: 70 70 39
Width: 428
Flags: W
Fore
340 462 m 1,0,1
 311 462 311 462 283.5 456 c 128,-1,2
 256 450 256 450 232 433.5 c 128,-1,3
 208 417 208 417 190 387.5 c 128,-1,4
 172 358 172 358 163 310 c 2,5,-1
 150 248 l 1,6,-1
 355 248 l 1,7,-1
 349 221 l 1,8,-1
 144 221 l 1,9,-1
 96 -1 l 1,10,-1
 65 -1 l 1,11,-1
 131 309 l 2,12,13
 144 368 144 368 165.5 403 c 128,-1,14
 187 438 187 438 214.5 456.5 c 128,-1,15
 242 475 242 475 275.5 481 c 128,-1,16
 309 487 309 487 346 488 c 2,17,-1
 483 488 l 1,18,-1
 478 462 l 1,19,-1
 340 462 l 1,20,-1
 340 462 l 1,0,1
EndSplineSet
EndChar
StartChar: G
Encoding: 71 71 40
Width: 470
Flags: W
Fore
344 271 m 1,0,1
 408 271 408 271 436.5 241 c 128,-1,2
 465 211 465 211 450 144 c 0,3,4
 439 98 439 98 416.5 69 c 128,-1,5
 394 40 394 40 366.5 23.5 c 128,-1,6
 339 7 339 7 310 1 c 128,-1,7
 281 -5 281 -5 258 -5 c 2,8,-1
 243 -4 l 2,9,10
 206 -3 206 -3 174.5 3 c 128,-1,11
 143 9 143 9 123 27.5 c 128,-1,12
 103 46 103 46 96.5 81 c 128,-1,13
 90 116 90 116 103 175 c 2,14,-1
 149 386 l 2,15,16
 154 412 154 412 175.5 432.5 c 128,-1,17
 197 453 197 453 223 466 c 0,18,19
 251 481 251 481 292 487 c 128,-1,20
 333 493 333 493 372 488 c 128,-1,21
 411 483 411 483 441.5 466 c 128,-1,22
 472 449 472 449 481 418 c 1,23,-1
 451 407 l 1,24,25
 446 433 446 433 421 447 c 128,-1,26
 396 461 396 461 364 465 c 128,-1,27
 332 469 332 469 298.5 464 c 128,-1,28
 265 459 265 459 243 447 c 0,29,30
 219 434 219 434 200.5 414.5 c 128,-1,31
 182 395 182 395 177 373 c 0,32,33
 173 356 173 356 169.5 337.5 c 128,-1,34
 166 319 166 319 161 296 c 128,-1,35
 156 273 156 273 149.5 243.5 c 128,-1,36
 143 214 143 214 134 174 c 0,37,38
 123 126 123 126 128.5 96.5 c 128,-1,39
 134 67 134 67 151 50.5 c 128,-1,40
 168 34 168 34 193 28 c 128,-1,41
 218 22 218 22 247 22 c 2,42,-1
 271 22 l 2,43,44
 290 22 290 22 312.5 28 c 128,-1,45
 335 34 335 34 356 48.5 c 128,-1,46
 377 63 377 63 393.5 87 c 128,-1,47
 410 111 410 111 418 148 c 0,48,49
 424 178 424 178 419.5 196 c 128,-1,50
 415 214 415 214 403.5 224.5 c 128,-1,51
 392 235 392 235 374.5 238.5 c 128,-1,52
 357 242 357 242 338 244 c 1,53,-1
 344 271 l 1,54,-1
 344 271 l 1,0,1
EndSplineSet
EndChar
StartChar: H
Encoding: 72 72 41
Width: 449
Flags: W
Fore
451 487 m 1,0,-1
 483 487 l 1,1,-1
 379 -2 l 1,2,-1
 347 -2 l 1,3,-1
 394 220 l 1,4,-1
 143 220 l 1,5,-1
 96 -2 l 1,6,-1
 64 -2 l 1,7,-1
 169 487 l 1,8,-1
 201 487 l 1,9,-1
 149 247 l 1,10,-1
 400 247 l 1,11,-1
 451 487 l 1,12,-1
 451 487 l 1,0,-1
EndSplineSet
EndChar
StartChar: I
Encoding: 73 73 42
Width: 146
Flags: W
Fore
187 489 m 1,0,-1
 87 0 l 1,1,-1
 56 0 l 1,2,-1
 155 489 l 1,3,-1
 187 489 l 1,4,-1
 187 489 l 1,0,-1
EndSplineSet
EndChar
StartChar: J
Encoding: 74 74 43
Width: 335
Flags: W
Fore
97 99 m 1,0,1
 93 71 93 71 102 52 c 128,-1,2
 111 33 111 33 126.5 24.5 c 128,-1,3
 142 16 142 16 162.5 17.5 c 128,-1,4
 183 19 183 19 202 30.5 c 128,-1,5
 221 42 221 42 236.5 63.5 c 128,-1,6
 252 85 252 85 259 117 c 0,7,8
 266 152 266 152 276.5 200.5 c 128,-1,9
 287 249 287 249 298 300.5 c 128,-1,10
 309 352 309 352 319.5 400.5 c 128,-1,11
 330 449 330 449 337 484 c 1,12,-1
 369 484 l 1,13,14
 361 445 361 445 350.5 395 c 128,-1,15
 340 345 340 345 329 292.5 c 128,-1,16
 318 240 318 240 307.5 190 c 128,-1,17
 297 140 297 140 288 101 c 0,18,19
 280 66 280 66 258.5 41.5 c 128,-1,20
 237 17 237 17 210 4.5 c 128,-1,21
 183 -8 183 -8 154 -8.5 c 128,-1,22
 125 -9 125 -9 103 2.5 c 128,-1,23
 81 14 81 14 69.5 37.5 c 128,-1,24
 58 61 58 61 65 97 c 0,25,26
 65 98 65 98 66 99 c 1,27,-1
 97 99 l 1,0,1
EndSplineSet
EndChar
StartChar: K
Encoding: 75 75 44
Width: 467
Flags: W
Fore
303 331 m 1,0,1
 334 328 334 328 362 318.5 c 128,-1,2
 390 309 390 309 408.5 289 c 128,-1,3
 427 269 427 269 434 236.5 c 128,-1,4
 441 204 441 204 430 155 c 2,5,-1
 397 -1 l 1,6,-1
 365 -1 l 1,7,-1
 399 153 l 2,8,9
 409 197 409 197 400.5 225.5 c 128,-1,10
 392 254 392 254 372.5 271 c 128,-1,11
 353 288 353 288 325.5 295.5 c 128,-1,12
 298 303 298 303 270 305 c 1,13,-1
 140 198 l 1,14,-1
 103 0 l 1,15,-1
 71 0 l 1,16,-1
 170 488 l 1,17,-1
 202 488 l 1,18,-1
 150 245 l 1,19,-1
 450 486 l 1,20,-1
 493 486 l 1,21,-1
 303 331 l 1,22,-1
 303 331 l 1,0,1
EndSplineSet
EndChar
StartChar: L
Encoding: 76 76 45
Width: 420
Flags: W
Fore
379 -1 m 1,0,1
 374 -1 374 -1 353.5 -1 c 128,-1,2
 333 -1 333 -1 310.5 -1 c 128,-1,3
 288 -1 288 -1 269.5 -0.5 c 128,-1,4
 251 0 251 0 248 0 c 0,5,6
 209 1 209 1 176.5 7 c 128,-1,7
 144 13 144 13 123.5 31.5 c 128,-1,8
 103 50 103 50 96.5 85 c 128,-1,9
 90 120 90 120 103 179 c 2,10,-1
 169 488 l 1,11,-1
 201 488 l 1,12,-1
 134 177 l 2,13,14
 123 129 123 129 128.5 99.5 c 128,-1,15
 134 70 134 70 151 53.5 c 128,-1,16
 168 37 168 37 193 31 c 128,-1,17
 218 25 218 25 246 25 c 2,18,-1
 385 25 l 1,19,-1
 379 -1 l 1,0,1
EndSplineSet
EndChar
StartChar: M
Encoding: 77 77 46
Width: 570
Flags: W
Fore
199 487 m 1,0,1
 217 477 217 477 238.5 459 c 128,-1,2
 260 441 260 441 281 418.5 c 128,-1,3
 302 396 302 396 320.5 369.5 c 128,-1,4
 339 343 339 343 351 317 c 1,5,6
 378 347 378 347 408 374 c 128,-1,7
 438 401 438 401 467.5 423 c 128,-1,8
 497 445 497 445 524 461.5 c 128,-1,9
 551 478 551 478 571 487 c 1,10,-1
 605 487 l 1,11,-1
 507 0 l 1,12,-1
 477 0 l 1,13,14
 479 16 479 16 485.5 52 c 128,-1,15
 492 88 492 88 501 133 c 128,-1,16
 510 178 510 178 520.5 228.5 c 128,-1,17
 531 279 531 279 540.5 324 c 128,-1,18
 550 369 550 369 557.5 404.5 c 128,-1,19
 565 440 565 440 568 456 c 1,20,21
 558 453 558 453 539.5 441 c 128,-1,22
 521 429 521 429 498 412 c 128,-1,23
 475 395 475 395 450.5 375 c 128,-1,24
 426 355 426 355 404 334.5 c 128,-1,25
 382 314 382 314 364.5 295.5 c 128,-1,26
 347 277 347 277 339 264 c 1,27,28
 328 297 328 297 310 328 c 128,-1,29
 292 359 292 359 271 384.5 c 128,-1,30
 250 410 250 410 229 428.5 c 128,-1,31
 208 447 208 447 190 455 c 1,32,33
 187 441 187 441 180 406.5 c 128,-1,34
 173 372 173 372 163.5 326.5 c 128,-1,35
 154 281 154 281 144 230.5 c 128,-1,36
 134 180 134 180 124.5 133.5 c 128,-1,37
 115 87 115 87 108.5 51 c 128,-1,38
 102 15 102 15 100 0 c 1,39,-1
 70 0 l 1,40,-1
 169 487 l 1,41,-1
 199 487 l 1,0,1
EndSplineSet
EndChar
StartChar: N
Encoding: 78 78 47
Width: 492
Flags: W
Fore
413 102 m 0,0,1
 420 137 420 137 431 188.5 c 128,-1,2
 442 240 442 240 454 294.5 c 128,-1,3
 466 349 466 349 476.5 400.5 c 128,-1,4
 487 452 487 452 495 487 c 1,5,-1
 526 487 l 1,6,-1
 442 91 l 2,7,8
 431 39 431 39 405.5 17.5 c 128,-1,9
 380 -4 380 -4 351 -5 c 1,10,11
 349 2 349 2 336.5 34 c 128,-1,12
 324 66 324 66 306.5 109.5 c 128,-1,13
 289 153 289 153 269 203 c 128,-1,14
 249 253 249 253 231.5 297 c 128,-1,15
 214 341 214 341 202 372.5 c 128,-1,16
 190 404 190 404 188 411 c 1,17,-1
 105 0 l 1,18,-1
 70 0 l 1,19,-1
 169 487 l 1,20,-1
 199 487 l 1,21,-1
 377 33 l 1,22,23
 393 37 393 37 399.5 54 c 128,-1,24
 406 71 406 71 413 102 c 0,0,1
EndSplineSet
EndChar
StartChar: O
Encoding: 79 79 48
Width: 481
Flags: W
Fore
144 369 m 0,0,1
 153 411 153 411 184.5 439.5 c 128,-1,2
 216 468 216 468 257.5 482.5 c 128,-1,3
 299 497 299 497 343.5 496.5 c 128,-1,4
 388 496 388 496 423.5 482 c 128,-1,5
 459 468 459 468 478.5 439.5 c 128,-1,6
 498 411 498 411 489 369 c 0,7,8
 481 333 481 333 475 302.5 c 128,-1,9
 469 272 469 272 462.5 243 c 128,-1,10
 456 214 456 214 449.5 183.5 c 128,-1,11
 443 153 443 153 435 117 c 0,12,13
 426 74 426 74 394.5 46 c 128,-1,14
 363 18 363 18 321.5 4 c 128,-1,15
 280 -10 280 -10 235 -10.5 c 128,-1,16
 190 -11 190 -11 154.5 3.5 c 128,-1,17
 119 18 119 18 99.5 46.5 c 128,-1,18
 80 75 80 75 89 117 c 0,19,20
 97 153 97 153 103.5 183.5 c 128,-1,21
 110 214 110 214 116.5 243 c 128,-1,22
 123 272 123 272 129.5 302.5 c 128,-1,23
 136 333 136 333 144 369 c 0,0,1
171 355 m 0,24,25
 164 322 164 322 158 295.5 c 128,-1,26
 152 269 152 269 147 243 c 128,-1,27
 142 217 142 217 136 190 c 128,-1,28
 130 163 130 163 123 130 c 0,29,30
 115 91 115 91 130.5 65.5 c 128,-1,31
 146 40 146 40 174.5 27 c 128,-1,32
 203 14 203 14 240 14.5 c 128,-1,33
 277 15 277 15 311 27.5 c 128,-1,34
 345 40 345 40 371.5 66 c 128,-1,35
 398 92 398 92 406 130 c 0,36,37
 413 163 413 163 419 190 c 128,-1,38
 425 217 425 217 430 243 c 128,-1,39
 435 269 435 269 441 295.5 c 128,-1,40
 447 322 447 322 454 355 c 0,41,42
 462 394 462 394 446.5 419.5 c 128,-1,43
 431 445 431 445 402.5 458 c 128,-1,44
 374 471 374 471 337.5 471 c 128,-1,45
 301 471 301 471 267 458 c 128,-1,46
 233 445 233 445 206 419 c 128,-1,47
 179 393 179 393 171 355 c 0,24,25
EndSplineSet
EndChar
StartChar: P
Encoding: 80 80 49
Width: 456
Flags: W
Fore
70 0 m 1,0,-1
 169 485 l 1,1,-1
 343 485 l 2,2,3
 366 485 366 485 391 477 c 128,-1,4
 416 469 416 469 435.5 450.5 c 128,-1,5
 455 432 455 432 464.5 401.5 c 128,-1,6
 474 371 474 371 465 325 c 0,7,8
 459 295 459 295 442 270 c 128,-1,9
 425 245 425 245 399.5 226.5 c 128,-1,10
 374 208 374 208 342.5 197.5 c 128,-1,11
 311 187 311 187 276 187 c 2,12,-1
 135 187 l 1,13,14
 124 136 124 136 114 86.5 c 128,-1,15
 104 37 104 37 100 0 c 1,16,-1
 70 0 l 1,0,-1
282 214 m 2,17,18
 304 216 304 216 328 222 c 128,-1,19
 352 228 352 228 373.5 240 c 128,-1,20
 395 252 395 252 411.5 272 c 128,-1,21
 428 292 428 292 434 322 c 0,22,23
 442 358 442 358 435.5 384 c 128,-1,24
 429 410 429 410 414.5 426.5 c 128,-1,25
 400 443 400 443 379.5 451 c 128,-1,26
 359 459 359 459 340 459 c 2,27,-1
 193 459 l 1,28,29
 182 408 182 408 168.5 345.5 c 128,-1,30
 155 283 155 283 141 214 c 1,31,-1
 282 214 l 2,17,18
EndSplineSet
EndChar
StartChar: Q
Encoding: 81 81 50
Width: 481
Flags: W
Fore
398 -69 m 1,0,1
 381 -69 381 -69 363 -66.5 c 128,-1,2
 345 -64 345 -64 327.5 -57 c 128,-1,3
 310 -50 310 -50 296 -38 c 128,-1,4
 282 -26 282 -26 274 -7 c 1,5,6
 236 -12 236 -12 200 -7 c 128,-1,7
 164 -2 164 -2 137 14 c 128,-1,8
 110 30 110 30 96.5 56 c 128,-1,9
 83 82 83 82 91 118 c 2,10,-1
 145 370 l 2,11,12
 154 412 154 412 185.5 440.5 c 128,-1,13
 217 469 217 469 258.5 483 c 128,-1,14
 300 497 300 497 345 497 c 128,-1,15
 390 497 390 497 425.5 483 c 128,-1,16
 461 469 461 469 480.5 440.5 c 128,-1,17
 500 412 500 412 491 370 c 2,18,-1
 438 118 l 2,19,20
 428 72 428 72 392 42.5 c 128,-1,21
 356 13 356 13 314 0 c 1,22,23
 323 -25 323 -25 348 -34 c 128,-1,24
 373 -43 373 -43 399 -42 c 2,25,-1
 404 -42 l 1,26,-1
 398 -69 l 1,0,1
125 131 m 2,27,28
 117 92 117 92 132.5 66.5 c 128,-1,29
 148 41 148 41 176.5 28 c 128,-1,30
 205 15 205 15 242 15.5 c 128,-1,31
 279 16 279 16 313 28.5 c 128,-1,32
 347 41 347 41 373.5 67 c 128,-1,33
 400 93 400 93 408 131 c 2,34,-1
 456 356 l 2,35,36
 464 395 464 395 448.5 420.5 c 128,-1,37
 433 446 433 446 404.5 459 c 128,-1,38
 376 472 376 472 339.5 472 c 128,-1,39
 303 472 303 472 269 459 c 128,-1,40
 235 446 235 446 208 420 c 128,-1,41
 181 394 181 394 173 356 c 2,42,-1
 125 131 l 2,27,28
EndSplineSet
EndChar
StartChar: R
Encoding: 82 82 51
Width: 438
Flags: W
Fore
334 243 m 1,0,1
 352 235 352 235 367 223 c 128,-1,2
 382 211 382 211 390.5 192 c 128,-1,3
 399 173 399 173 400.5 146.5 c 128,-1,4
 402 120 402 120 394 84 c 2,5,-1
 376 -2 l 1,6,-1
 344 -2 l 1,7,-1
 363 82 l 2,8,9
 374 132 374 132 362 161.5 c 128,-1,10
 350 191 350 191 325.5 206.5 c 128,-1,11
 301 222 301 222 268.5 227.5 c 128,-1,12
 236 233 236 233 207 234 c 2,13,-1
 145 234 l 1,14,15
 140 209 140 209 133 176 c 128,-1,16
 119 110 l 128,-1,17
 112 77 112 77 105.5 47 c 128,-1,18
 99 17 99 17 95 -1 c 1,19,-1
 64 -1 l 1,20,-1
 168 484 l 1,21,-1
 316 484 l 2,22,23
 339 484 339 484 365.5 480 c 128,-1,24
 392 476 392 476 412.5 462.5 c 128,-1,25
 433 449 433 449 443 422.5 c 128,-1,26
 453 396 453 396 444 350 c 0,27,28
 436 307 436 307 406.5 280.5 c 128,-1,29
 377 254 377 254 334 243 c 1,0,1
194 458 m 1,30,31
 188 432 188 432 183.5 411 c 128,-1,32
 179 390 179 390 174.5 368 c 128,-1,33
 170 346 170 346 164 320.5 c 128,-1,34
 158 295 158 295 151 261 c 1,35,-1
 267 261 l 2,36,37
 289 263 289 263 312.5 265.5 c 128,-1,38
 336 268 336 268 356.5 276 c 128,-1,39
 377 284 377 284 392.5 300.5 c 128,-1,40
 408 317 408 317 414 347 c 0,41,42
 422 383 422 383 414.5 405 c 128,-1,43
 407 427 407 427 391.5 439 c 128,-1,44
 376 451 376 451 355 454.5 c 128,-1,45
 334 458 334 458 314 458 c 2,46,-1
 194 458 l 1,30,31
EndSplineSet
EndChar
StartChar: S
Encoding: 83 83 52
Width: 474
Flags: W
Fore
405 134 m 0,0,1
 411 174 411 174 391.5 193.5 c 128,-1,2
 372 213 372 213 340.5 223 c 128,-1,3
 309 233 309 233 271 238.5 c 128,-1,4
 233 244 233 244 202 255.5 c 128,-1,5
 171 267 171 267 152.5 290 c 128,-1,6
 134 313 134 313 142 359 c 0,7,8
 148 394 148 394 167.5 420.5 c 128,-1,9
 187 447 187 447 214 464.5 c 128,-1,10
 241 482 241 482 273 490.5 c 128,-1,11
 305 499 305 499 337 499 c 0,12,13
 362 499 362 499 386 493 c 128,-1,14
 410 487 410 487 428.5 475 c 128,-1,15
 447 463 447 463 459 443.5 c 128,-1,16
 471 424 471 424 471 397 c 1,17,-1
 439 397 l 1,18,19
 438 419 438 419 428.5 434.5 c 128,-1,20
 419 450 419 450 403.5 459.5 c 128,-1,21
 388 469 388 469 368.5 473.5 c 128,-1,22
 349 478 349 478 328 478 c 0,23,24
 301 478 301 478 275.5 470 c 128,-1,25
 250 462 250 462 229 447 c 128,-1,26
 208 432 208 432 193.5 410 c 128,-1,27
 179 388 179 388 174 359 c 0,28,29
 167 320 167 320 186.5 302 c 128,-1,30
 206 284 206 284 237.5 275 c 128,-1,31
 269 266 269 266 307 261 c 128,-1,32
 345 256 345 256 376 244 c 128,-1,33
 407 232 407 232 425 207 c 128,-1,34
 443 182 443 182 435 134 c 0,35,36
 429 96 429 96 407.5 68.5 c 128,-1,37
 386 41 386 41 357 23.5 c 128,-1,38
 328 6 328 6 293.5 -2.5 c 128,-1,39
 259 -11 259 -11 226 -11 c 0,40,41
 198 -11 198 -11 170.5 -5.5 c 128,-1,42
 143 0 143 0 121 13 c 128,-1,43
 99 26 99 26 85 47 c 128,-1,44
 71 68 71 68 71 98 c 1,45,-1
 104 98 l 1,46,47
 105 74 105 74 117.5 57.5 c 128,-1,48
 130 41 130 41 148.5 31.5 c 128,-1,49
 167 22 167 22 189.5 17.5 c 128,-1,50
 212 13 212 13 235 13 c 0,51,52
 262 13 262 13 290 20.5 c 128,-1,53
 318 28 318 28 342 43.5 c 128,-1,54
 366 59 366 59 383 81.5 c 128,-1,55
 400 104 400 104 405 134 c 0,0,1
EndSplineSet
EndChar
StartChar: T
Encoding: 84 84 53
Width: 470
Flags: W
Fore
514 487 m 1,0,-1
 507 455 l 1,1,-1
 341 456 l 1,2,-1
 250 0 l 1,3,-1
 218 0 l 1,4,-1
 309 456 l 1,5,-1
 146 456 l 1,6,-1
 153 487 l 1,7,-1
 316 487 l 1,8,-1
 316 487 l 1,9,-1
 349 487 l 1,10,-1
 349 487 l 1,11,-1
 514 487 l 1,12,-1
 514 487 l 1,0,-1
EndSplineSet
EndChar
StartChar: U
Encoding: 85 85 54
Width: 481
Flags: W
Fore
516 487 m 1,0,1
 511 462 511 462 500.5 412 c 128,-1,2
 490 362 490 362 478 306 c 128,-1,3
 466 250 466 250 455 198 c 128,-1,4
 444 146 444 146 438 118 c 0,5,6
 429 75 429 75 397 47 c 128,-1,7
 365 19 365 19 323.5 4.5 c 128,-1,8
 282 -10 282 -10 237 -10 c 128,-1,9
 192 -10 192 -10 156.5 4 c 128,-1,10
 121 18 121 18 101.5 46.5 c 128,-1,11
 82 75 82 75 91 118 c 0,12,13
 95 137 95 137 101.5 167 c 128,-1,14
 108 197 108 197 115.5 232.5 c 128,-1,15
 123 268 123 268 131 306 c 128,-1,16
 139 344 139 344 146.5 378.5 c 128,-1,17
 154 413 154 413 160.5 441.5 c 128,-1,18
 167 470 167 470 170 487 c 1,19,-1
 202 487 l 1,20,21
 198 471 198 471 192.5 443.5 c 128,-1,22
 187 416 187 416 179.5 382.5 c 128,-1,23
 172 349 172 349 164 312.5 c 128,-1,24
 156 276 156 276 149 241.5 c 128,-1,25
 142 207 142 207 135.5 178 c 128,-1,26
 129 149 129 149 125 131 c 0,27,28
 117 92 117 92 132.5 66.5 c 128,-1,29
 148 41 148 41 176.5 28 c 128,-1,30
 205 15 205 15 242 15.5 c 128,-1,31
 279 16 279 16 313 28.5 c 128,-1,32
 347 41 347 41 373.5 67 c 128,-1,33
 400 93 400 93 408 131 c 0,34,35
 412 149 412 149 418 178 c 128,-1,36
 424 207 424 207 431.5 241 c 128,-1,37
 439 275 439 275 447 312 c 128,-1,38
 455 349 455 349 462 382.5 c 128,-1,39
 469 416 469 416 475 443.5 c 128,-1,40
 481 471 481 471 484 486 c 1,41,-1
 516 487 l 1,0,1
EndSplineSet
EndChar
StartChar: V
Encoding: 86 86 55
Width: 467
Flags: W
Fore
349 116 m 2,0,1
 341 96 341 96 330.5 75 c 128,-1,2
 320 54 320 54 306 36.5 c 128,-1,3
 292 19 292 19 273 6.5 c 128,-1,4
 254 -6 254 -6 229 -7 c 0,5,6
 205 -6 205 -6 191 5 c 128,-1,7
 177 16 177 16 170.5 33 c 128,-1,8
 164 50 164 50 162 71.5 c 128,-1,9
 160 93 160 93 160 116 c 2,10,-1
 147 487 l 1,11,-1
 178 487 l 1,12,-1
 195 133 l 2,13,14
 196 112 196 112 197.5 95.5 c 128,-1,15
 199 79 199 79 202 59 c 0,16,17
 205 44 205 44 213.5 35.5 c 128,-1,18
 222 27 222 27 234 26 c 128,-1,19
 246 25 246 25 259 32 c 128,-1,20
 272 39 272 39 283 57 c 0,21,22
 296 77 296 77 304 93.5 c 128,-1,23
 312 110 312 110 323 133 c 2,24,-1
 490 487 l 1,25,-1
 521 487 l 1,26,-1
 349 116 l 2,0,1
EndSplineSet
EndChar
StartChar: W
Encoding: 87 87 56
Width: 595
Flags: W
Fore
125 -1 m 1,0,-1
 149 485 l 1,1,-1
 179 485 l 1,2,-1
 163 41 l 1,3,4
 205 75 205 75 236 120.5 c 128,-1,5
 267 166 267 166 291.5 213.5 c 128,-1,6
 316 261 316 261 335 306 c 128,-1,7
 354 351 354 351 371 386 c 1,8,9
 374 363 374 363 377 331 c 128,-1,10
 380 299 380 299 383 263 c 128,-1,11
 386 227 386 227 389.5 190.5 c 128,-1,12
 393 154 393 154 398 123 c 128,-1,13
 403 92 403 92 410.5 70.5 c 128,-1,14
 418 49 418 49 428 42 c 1,15,16
 447 89 447 89 471 146.5 c 128,-1,17
 495 204 495 204 520 263.5 c 128,-1,18
 545 323 545 323 569 380.5 c 128,-1,19
 593 438 593 438 611 485 c 1,20,-1
 642 485 l 1,21,-1
 449 -1 l 1,22,-1
 420 -1 l 1,23,24
 401 8 401 8 387.5 40.5 c 128,-1,25
 374 73 374 73 365.5 117 c 128,-1,26
 357 161 357 161 354 209.5 c 128,-1,27
 351 258 351 258 354 298 c 1,28,29
 340 251 340 251 316 202 c 128,-1,30
 292 153 292 153 263.5 111.5 c 128,-1,31
 235 70 235 70 206 39.5 c 128,-1,32
 177 9 177 9 154 -1 c 1,33,-1
 125 -1 l 1,0,-1
EndSplineSet
EndChar
StartChar: X
Encoding: 88 88 57
Width: 536
Flags: W
Fore
473 -1 m 1,0,-1
 437 0 l 1,1,-1
 309 218 l 1,2,-1
 100 0 l 1,3,-1
 52 -1 l 1,4,-1
 294 245 l 1,5,-1
 158 488 l 1,6,-1
 200 488 l 1,7,-1
 320 272 l 1,8,-1
 533 488 l 1,9,-1
 575 488 l 1,10,-1
 336 245 l 1,11,-1
 473 -1 l 1,12,-1
 473 -1 l 1,0,-1
EndSplineSet
EndChar
StartChar: Y
Encoding: 89 89 58
Width: 463
Flags: W
Fore
515 485 m 1,0,1
 469 425 469 425 416.5 357 c 128,-1,2
 364 289 364 289 318 232 c 0,3,4
 300 211 300 211 282 202 c 1,5,-1
 239 -2 l 1,6,-1
 207 -2 l 1,7,-1
 250 201 l 1,8,9
 239 207 239 207 234 218.5 c 128,-1,10
 229 230 229 230 226 235 c 0,11,12
 215 260 215 260 204 292 c 128,-1,13
 193 324 193 324 182 357.5 c 128,-1,14
 171 391 171 391 160.5 424 c 128,-1,15
 150 457 150 457 141 485 c 1,16,-1
 177 485 l 1,17,18
 185 457 185 457 195 427 c 128,-1,19
 205 397 205 397 215.5 366.5 c 128,-1,20
 226 336 226 336 236 306.5 c 128,-1,21
 246 277 246 277 254 252 c 0,22,23
 262 229 262 229 269.5 228 c 128,-1,24
 277 227 277 227 294 248 c 0,25,26
 338 302 338 302 387.5 365 c 128,-1,27
 437 428 437 428 481 485 c 1,28,-1
 515 485 l 1,0,1
EndSplineSet
EndChar
StartChar: Z
Encoding: 90 90 59
Width: 513
Flags: W
Fore
448 33 m 1,0,-1
 440 -1 l 1,1,-1
 151 -1 l 2,2,3
 125 -1 125 -1 108.5 6.5 c 128,-1,4
 92 14 92 14 83.5 25.5 c 128,-1,5
 75 37 75 37 72.5 51.5 c 128,-1,6
 70 66 70 66 73 80 c 1,7,8
 80 85 80 85 111.5 113.5 c 128,-1,9
 143 142 143 142 187 182 c 128,-1,10
 231 222 231 222 281 267 c 128,-1,11
 331 312 331 312 375 352 c 128,-1,12
 419 392 419 392 450 420 c 128,-1,13
 481 448 481 448 487 454 c 1,14,-1
 159 455 l 1,15,-1
 166 486 l 1,16,-1
 544 486 l 1,17,-1
 537 456 l 1,18,-1
 114 72 l 1,19,20
 116 57 116 57 127.5 45 c 128,-1,21
 139 33 139 33 170 33 c 2,22,-1
 448 33 l 1,0,-1
EndSplineSet
EndChar
StartChar: bracketleft
Encoding: 91 91 60
Width: 195
Flags: W
Fore
47 -80 m 1,0,-1
 170 493 l 1,1,-1
 295 493 l 1,2,-1
 291 473 l 1,3,-1
 192 473 l 1,4,-1
 78 -59 l 1,5,-1
 178 -59 l 1,6,-1
 173 -80 l 1,7,-1
 47 -80 l 1,8,-1
 47 -80 l 1,0,-1
EndSplineSet
EndChar
StartChar: backslash
Encoding: 92 92 61
Width: 266
Flags: W
Fore
97 492 m 1,0,-1
 126 492 l 1,1,-1
 269 -30 l 1,2,-1
 241 -30 l 1,3,-1
 97 492 l 1,4,-1
 97 492 l 1,0,-1
EndSplineSet
EndChar
StartChar: bracketright
Encoding: 93 93 62
Width: 194
Flags: W
Fore
-14 -80 m 1,0,-1
 -9 -59 l 1,1,-1
 82 -59 l 1,2,-1
 196 473 l 1,3,-1
 97 473 l 1,4,-1
 101 493 l 1,5,-1
 225 493 l 1,6,-1
 103 -80 l 1,7,-1
 -14 -80 l 1,8,-1
 -14 -80 l 1,0,-1
EndSplineSet
EndChar
StartChar: asciicircum
Encoding: 94 94 63
Width: 429
Flags: W
Fore
83 143 m 1,0,1
 118 174 118 174 152 216.5 c 128,-1,2
 186 259 186 259 216 305.5 c 128,-1,3
 246 352 246 352 271 399.5 c 128,-1,4
 296 447 296 447 313 489 c 1,5,6
 314 447 314 447 319 401 c 128,-1,7
 324 355 324 355 334 309 c 128,-1,8
 344 263 344 263 360 220 c 128,-1,9
 376 177 376 177 398 143 c 1,10,-1
 360 143 l 1,11,12
 334 197 334 197 315 262.5 c 128,-1,13
 296 328 296 328 297 401 c 1,14,15
 268 330 268 330 220 263.5 c 128,-1,16
 172 197 172 197 120 143 c 1,17,-1
 83 143 l 1,0,1
EndSplineSet
EndChar
StartChar: underscore
Encoding: 95 95 64
Width: 360
Flags: W
Fore
-32 -169 m 1,0,-1
 -28 -147 l 1,1,-1
 323 -147 l 1,2,-1
 319 -169 l 1,3,-1
 -32 -169 l 1,0,-1
EndSplineSet
EndChar
StartChar: grave
Encoding: 96 96 65
Width: 216
Flags: W
Fore
175 500 m 1,0,-1
 225 500 l 1,1,-1
 225 359 l 1,2,-1
 194 359 l 1,3,-1
 175 500 l 1,4,-1
 175 500 l 1,0,-1
EndSplineSet
EndChar
StartChar: a
Encoding: 97 97 66
Width: 382
Flags: W
Fore
325 204 m 1,0,1
 303 190 303 190 283 181.5 c 128,-1,2
 263 173 263 173 240 169 c 256,3,4
 217 165 217 165 191.5 160 c 128,-1,5
 166 155 166 155 142.5 146.5 c 128,-1,6
 119 138 119 138 102 124 c 128,-1,7
 85 110 85 110 80 88 c 0,8,9
 75 61 75 61 87 42.5 c 128,-1,10
 99 24 99 24 125 21 c 0,11,12
 158 16 158 16 183.5 20 c 128,-1,13
 209 24 209 24 229.5 32.5 c 128,-1,14
 250 41 250 41 266.5 52 c 128,-1,15
 283 63 283 63 297 72 c 1,16,-1
 297 74 l 1,17,-1
 325 204 l 1,0,1
313 -4 m 1,18,19
 301 1 301 1 295 12.5 c 128,-1,20
 289 24 289 24 290 38 c 1,21,22
 279 31 279 31 260.5 21 c 128,-1,23
 242 11 242 11 218 3.5 c 128,-1,24
 194 -4 194 -4 166.5 -7.5 c 128,-1,25
 139 -11 139 -11 111 -5 c 0,26,27
 76 3 76 3 59 25.5 c 128,-1,28
 42 48 42 48 50 88 c 0,29,30
 57 122 57 122 78.5 140.5 c 128,-1,31
 100 159 100 159 128 168.5 c 128,-1,32
 156 178 156 178 187 182.5 c 128,-1,33
 218 187 218 187 246 193 c 0,34,35
 255 195 255 195 268.5 199.5 c 128,-1,36
 282 204 282 204 295 211.5 c 128,-1,37
 308 219 308 219 318.5 228 c 128,-1,38
 329 237 329 237 331 248 c 0,39,40
 334 262 334 262 329.5 278 c 128,-1,41
 325 294 325 294 311 305 c 0,42,43
 296 318 296 318 271.5 322.5 c 128,-1,44
 247 327 247 327 218 324.5 c 128,-1,45
 189 322 189 322 159.5 313.5 c 128,-1,46
 130 305 130 305 106 294 c 1,47,-1
 119 326 l 1,48,49
 146 338 146 338 175.5 344.5 c 128,-1,50
 205 351 205 351 233.5 351.5 c 128,-1,51
 262 352 262 352 288 346.5 c 128,-1,52
 314 341 314 341 334 330 c 0,53,54
 354 320 354 320 363 297.5 c 128,-1,55
 372 275 372 275 366 247 c 2,56,-1
 328 69 l 2,57,58
 325 53 325 53 325.5 41 c 128,-1,59
 326 29 326 29 340 16 c 1,60,61
 332 9 332 9 325 4.5 c 128,-1,62
 318 0 318 0 313 -4 c 1,18,19
EndSplineSet
Substitution: 0 65534 'L026' uni0E38
Substitution: 0 65534 'L026' uni0E38
EndChar
StartChar: b
Encoding: 98 98 67
Width: 430
Flags: W
Fore
298 350 m 0,0,1
 340 347 340 347 366.5 328.5 c 128,-1,2
 393 310 393 310 406 282.5 c 128,-1,3
 419 255 419 255 420 220.5 c 128,-1,4
 421 186 421 186 411 152 c 0,5,6
 402 122 402 122 385.5 93.5 c 128,-1,7
 369 65 369 65 347 43.5 c 128,-1,8
 325 22 325 22 297 9 c 128,-1,9
 269 -4 269 -4 238 -4 c 0,10,11
 209 -4 209 -4 190 0 c 128,-1,12
 171 4 171 4 157.5 10 c 128,-1,13
 144 16 144 16 135 23.5 c 128,-1,14
 126 31 126 31 116 39 c 1,15,-1
 115 39 l 1,16,17
 110 25 110 25 100 13 c 128,-1,18
 90 1 90 1 76 -4 c 1,19,20
 72 1 72 1 67 5.5 c 128,-1,21
 62 10 62 10 57 17 c 1,22,23
 77 30 77 30 82.5 42 c 128,-1,24
 88 54 88 54 91 70 c 2,25,-1
 99 107 l 1,26,-1
 128 241 l 1,27,-1
 180 480 l 1,28,-1
 210 480 l 1,29,-1
 172 304 l 1,30,31
 184 317 184 317 202 326 c 128,-1,32
 220 335 220 335 239 340.5 c 128,-1,33
 258 346 258 346 274 348.5 c 128,-1,34
 290 351 290 351 298 350 c 0,0,1
379 155 m 0,35,36
 388 184 388 184 388.5 213 c 128,-1,37
 389 242 389 242 379.5 266 c 128,-1,38
 370 290 370 290 349 306.5 c 128,-1,39
 328 323 328 323 294 327 c 0,40,41
 283 328 283 328 266 324 c 128,-1,42
 249 320 249 320 231 312 c 128,-1,43
 213 304 213 304 195 291.5 c 128,-1,44
 177 279 177 279 163 263 c 1,45,-1
 159 241 l 1,46,-1
 158 241 l 1,47,-1
 122 74 l 1,48,-1
 123 74 l 1,49,-1
 123 73 l 1,50,51
 141 51 141 51 167 35.5 c 128,-1,52
 193 20 193 20 236 22 c 0,53,54
 262 23 262 23 284.5 34 c 128,-1,55
 307 45 307 45 325.5 63.5 c 128,-1,56
 344 82 344 82 357.5 105.5 c 128,-1,57
 371 129 371 129 379 155 c 0,35,36
EndSplineSet
Substitution: 0 65534 'L026' uni0E39
Substitution: 0 65534 'L026' uni0E39
EndChar
StartChar: c
Encoding: 99 99 68
Width: 422
Flags: W
Fore
117 250 m 0,0,1
 122 276 122 276 143 295.5 c 128,-1,2
 164 315 164 315 190 329 c 0,3,4
 218 344 218 344 255.5 349.5 c 128,-1,5
 293 355 293 355 328.5 350 c 128,-1,6
 364 345 364 345 391 328 c 128,-1,7
 418 311 418 311 427 281 c 1,8,-1
 398 270 l 1,9,10
 393 296 393 296 371 310 c 128,-1,11
 349 324 349 324 320.5 327.5 c 128,-1,12
 292 331 292 331 261.5 326.5 c 128,-1,13
 231 322 231 322 209 310 c 0,14,15
 186 297 186 297 168.5 278 c 128,-1,16
 151 259 151 259 146 237 c 0,17,18
 139 205 139 205 132.5 174.5 c 128,-1,19
 126 144 126 144 119 112 c 0,20,21
 114 90 114 90 124 71 c 128,-1,22
 134 52 134 52 152 39 c 0,23,24
 169 27 169 27 197.5 22.5 c 128,-1,25
 226 18 226 18 256 21.5 c 128,-1,26
 286 25 286 25 313.5 39 c 128,-1,27
 341 53 341 53 357 79 c 1,28,-1
 382 68 l 1,29,30
 361 38 361 38 326 21 c 128,-1,31
 291 4 291 4 253.5 -1 c 128,-1,32
 216 -6 216 -6 181.5 -0.5 c 128,-1,33
 147 5 147 5 125 20 c 0,34,35
 105 34 105 34 92 53.5 c 128,-1,36
 79 73 79 73 85 99 c 0,37,38
 93 137 93 137 101 174.5 c 128,-1,39
 109 212 109 212 117 250 c 0,0,1
EndSplineSet
Substitution: 0 65534 'L026' uni0E3A
Substitution: 0 65534 'L026' uni0E3A
EndChar
StartChar: d
Encoding: 100 100 69
Width: 406
Flags: W
Fore
359 70 m 2,0,1
 356 54 356 54 356.5 42 c 128,-1,2
 357 30 357 30 371 17 c 1,3,4
 363 10 363 10 356 5.5 c 128,-1,5
 349 1 349 1 343 -4 c 1,6,7
 332 1 332 1 327.5 13 c 128,-1,8
 323 25 323 25 323 39 c 1,9,10
 309 31 309 31 296.5 23.5 c 128,-1,11
 284 16 284 16 268.5 10 c 128,-1,12
 253 4 253 4 232.5 0 c 128,-1,13
 212 -4 212 -4 182 -4 c 0,14,15
 150 -4 150 -4 128 9 c 128,-1,16
 106 22 106 22 93 43.5 c 128,-1,17
 80 65 80 65 76 93.5 c 128,-1,18
 72 122 72 122 76 152 c 0,19,20
 81 186 81 186 96 220.5 c 128,-1,21
 111 255 111 255 135.5 282.5 c 128,-1,22
 160 310 160 310 194 328.5 c 128,-1,23
 228 347 228 347 272 350 c 0,24,25
 280 351 280 351 295.5 348.5 c 128,-1,26
 311 346 311 346 327.5 340.5 c 128,-1,27
 344 335 344 335 358.5 326 c 128,-1,28
 373 317 373 317 379 304 c 1,29,-1
 417 480 l 1,30,-1
 447 480 l 1,31,-1
 396 241 l 1,32,-1
 367 107 l 1,33,-1
 359 70 l 2,0,1
366 241 m 1,34,-1
 370 263 l 1,35,36
 364 279 364 279 351.5 291.5 c 128,-1,37
 339 304 339 304 324 312 c 128,-1,38
 309 320 309 320 294 324 c 128,-1,39
 279 328 279 328 267 327 c 0,40,41
 232 323 232 323 204 306.5 c 128,-1,42
 176 290 176 290 155.5 266 c 128,-1,43
 135 242 135 242 123 213 c 128,-1,44
 111 184 111 184 107 155 c 0,45,46
 104 129 104 129 108 105.5 c 128,-1,47
 112 82 112 82 122.5 63.5 c 128,-1,48
 133 45 133 45 151 34 c 128,-1,49
 169 23 169 23 195 22 c 0,50,51
 238 20 238 20 270 35.5 c 128,-1,52
 302 51 302 51 330 73 c 1,53,-1
 330 74 l 1,54,-1
 366 241 l 1,34,-1
EndSplineSet
EndChar
StartChar: e
Encoding: 101 101 70
Width: 422
Flags: W
Fore
85 96 m 0,0,1
 93 134 93 134 101 171.5 c 128,-1,2
 109 209 109 209 117 247 c 0,3,4
 122 273 122 273 143.5 292.5 c 128,-1,5
 165 312 165 312 191 326 c 0,6,7
 212 337 212 337 237 343.5 c 128,-1,8
 262 350 262 350 287.5 350 c 128,-1,9
 313 350 313 350 337.5 344 c 128,-1,10
 362 338 362 338 382 325 c 0,11,12
 401 312 401 312 413 289 c 128,-1,13
 425 266 425 266 421 239 c 0,14,15
 416 210 416 210 406 192.5 c 128,-1,16
 396 175 396 175 377 165.5 c 128,-1,17
 358 156 358 156 328.5 153 c 128,-1,18
 299 150 299 150 256 150 c 2,19,-1
 128 150 l 1,20,21
 125 137 125 137 124.5 133.5 c 128,-1,22
 124 130 124 130 123.5 128.5 c 128,-1,23
 123 127 123 127 122.5 124 c 128,-1,24
 122 121 122 121 120 109 c 0,25,26
 115 87 115 87 125.5 68 c 128,-1,27
 136 49 136 49 153 36 c 0,28,29
 171 24 171 24 199 19.5 c 128,-1,30
 227 15 227 15 257 18.5 c 128,-1,31
 287 22 287 22 314.5 36 c 128,-1,32
 342 50 342 50 358 76 c 1,33,-1
 382 65 l 1,34,35
 361 35 361 35 326.5 18 c 128,-1,36
 292 1 292 1 254.5 -4 c 128,-1,37
 217 -9 217 -9 182 -3.5 c 128,-1,38
 147 2 147 2 125 17 c 0,39,40
 105 31 105 31 92.5 50.5 c 128,-1,41
 80 70 80 70 85 96 c 0,0,1
364 303 m 0,42,43
 333 326 333 326 289.5 325.5 c 128,-1,44
 246 325 246 325 211 307 c 0,45,46
 188 294 188 294 169.5 275 c 128,-1,47
 151 256 151 256 146 234 c 0,48,49
 143 219 143 219 140 205.5 c 128,-1,50
 137 192 137 192 134 177 c 1,51,-1
 262 177 l 2,52,53
 293 177 293 177 315.5 177.5 c 128,-1,54
 338 178 338 178 353.5 184 c 128,-1,55
 369 190 369 190 378 202 c 128,-1,56
 387 214 387 214 391 236 c 0,57,58
 394 255 394 255 385.5 274 c 128,-1,59
 377 293 377 293 364 303 c 0,42,43
EndSplineSet
EndChar
StartChar: f
Encoding: 102 102 71
Width: 252
Flags: W
Fore
312 481 m 1,0,-1
 306 455 l 1,1,-1
 288 455 l 2,2,3
 256 455 256 455 235.5 447.5 c 128,-1,4
 215 440 215 440 202 426 c 128,-1,5
 189 412 189 412 182 391.5 c 128,-1,6
 175 371 175 371 170 344 c 1,7,-1
 248 344 l 1,8,-1
 242 317 l 1,9,-1
 164 317 l 1,10,-1
 114 83 l 1,11,-1
 102 25 l 2,12,13
 97 11 97 11 86 -0.5 c 128,-1,14
 75 -12 75 -12 61 -17 c 1,15,16
 56 -13 56 -13 51.5 -8.5 c 128,-1,17
 47 -4 47 -4 42 3 c 1,18,19
 62 16 62 16 67.5 28 c 128,-1,20
 73 40 73 40 76 56 c 2,21,-1
 138 340 l 2,22,23
 147 380 147 380 158.5 407 c 128,-1,24
 170 434 170 434 188 450.5 c 128,-1,25
 206 467 206 467 231.5 474 c 128,-1,26
 257 481 257 481 295 481 c 2,27,-1
 312 481 l 1,0,-1
EndSplineSet
EndChar
StartChar: g
Encoding: 103 103 72
Width: 406
Flags: W
Fore
409 348 m 1,0,1
 413 344 413 344 418 339 c 128,-1,2
 423 334 423 334 428 328 c 1,3,4
 408 315 408 315 402.5 303 c 128,-1,5
 397 291 397 291 394 275 c 2,6,-1
 386 238 l 1,7,-1
 357 103 l 1,8,-1
 333 -13 l 1,9,-1
 332 -16 l 2,10,11
 324 -55 324 -55 313 -81.5 c 128,-1,12
 302 -108 302 -108 284.5 -124 c 128,-1,13
 267 -140 267 -140 242 -146.5 c 128,-1,14
 217 -153 217 -153 180 -153 c 2,15,-1
 151 -153 l 1,16,-1
 156 -128 l 1,17,-1
 187 -128 l 2,18,19
 218 -128 218 -128 238 -120.5 c 128,-1,20
 258 -113 258 -113 270.5 -99 c 128,-1,21
 283 -85 283 -85 290 -65 c 128,-1,22
 297 -45 297 -45 302 -18 c 2,23,-1
 303 -13 l 1,24,-1
 302 -13 l 1,25,-1
 313 40 l 1,26,27
 301 27 301 27 283 18 c 128,-1,28
 265 9 265 9 246 3.5 c 128,-1,29
 227 -2 227 -2 210.5 -4 c 128,-1,30
 194 -6 194 -6 186 -6 c 0,31,32
 144 -3 144 -3 118 15.5 c 128,-1,33
 92 34 92 34 79 62 c 128,-1,34
 66 90 66 90 65.5 124 c 128,-1,35
 65 158 65 158 76 193 c 0,36,37
 85 223 85 223 101 251.5 c 128,-1,38
 117 280 117 280 138.5 301.5 c 128,-1,39
 160 323 160 323 187.5 335.5 c 128,-1,40
 215 348 215 348 246 348 c 0,41,42
 276 348 276 348 295 344.5 c 128,-1,43
 314 341 314 341 327.5 335 c 128,-1,44
 341 329 341 329 350 321.5 c 128,-1,45
 359 314 359 314 369 305 c 1,46,-1
 370 306 l 1,47,48
 375 320 375 320 385 331.5 c 128,-1,49
 395 343 395 343 409 348 c 1,0,1
362 272 m 1,50,51
 343 293 343 293 317.5 308.5 c 128,-1,52
 292 324 292 324 249 323 c 0,53,54
 223 322 223 322 200 311 c 128,-1,55
 177 300 177 300 158.5 281.5 c 128,-1,56
 140 263 140 263 126 239 c 128,-1,57
 112 215 112 215 105 190 c 0,58,59
 96 161 96 161 96 132 c 128,-1,60
 96 103 96 103 106 79 c 128,-1,61
 116 55 116 55 137 38.5 c 128,-1,62
 158 22 158 22 191 18 c 0,63,64
 202 16 202 16 219 20 c 128,-1,65
 236 24 236 24 254.5 32.5 c 128,-1,66
 273 41 273 41 290.5 53.5 c 128,-1,67
 308 66 308 66 322 82 c 1,68,-1
 362 272 l 1,50,51
EndSplineSet
EndChar
StartChar: h
Encoding: 104 104 73
Width: 403
Flags: W
Fore
307 351 m 0,0,1
 335 351 335 351 353 340 c 128,-1,2
 371 329 371 329 380 310 c 128,-1,3
 389 291 389 291 390 265 c 128,-1,4
 391 239 391 239 385 210 c 2,5,-1
 341 1 l 1,6,-1
 311 1 l 1,7,-1
 352 195 l 2,8,9
 358 221 358 221 359.5 243.5 c 128,-1,10
 361 266 361 266 355.5 283 c 128,-1,11
 350 300 350 300 335.5 310 c 128,-1,12
 321 320 321 320 294 320 c 0,13,14
 264 320 264 320 238.5 306 c 128,-1,15
 213 292 213 292 192.5 268.5 c 128,-1,16
 172 245 172 245 156.5 215.5 c 128,-1,17
 141 186 141 186 131 156 c 1,18,-1
 103 0 l 1,19,-1
 71 0 l 1,20,-1
 66 1 l 1,21,-1
 124 275 l 1,22,-1
 145 371 l 1,23,-1
 153 408 l 2,24,25
 157 424 157 424 156.5 436 c 128,-1,26
 156 448 156 448 141 461 c 1,27,28
 149 468 149 468 156.5 472.5 c 128,-1,29
 164 477 164 477 169 481 c 1,30,31
 180 476 180 476 186 464.5 c 128,-1,32
 192 453 192 453 191 439 c 1,33,-1
 181 393 l 1,34,-1
 150 246 l 1,35,36
 176 300 176 300 213.5 325.5 c 128,-1,37
 251 351 251 351 307 351 c 0,0,1
EndSplineSet
EndChar
StartChar: i
Encoding: 105 105 74
Width: 168
Flags: W
Fore
109 55 m 2,0,1
 106 39 106 39 106 27 c 128,-1,2
 106 15 106 15 120 2 c 1,3,4
 112 -5 112 -5 105.5 -9.5 c 128,-1,5
 99 -14 99 -14 93 -18 c 1,6,7
 82 -13 82 -13 75.5 -1.5 c 128,-1,8
 69 10 69 10 70 24 c 2,9,-1
 82 82 l 1,10,-1
 138 340 l 1,11,-1
 170 340 l 1,12,-1
 115 82 l 1,13,-1
 109 55 l 2,0,1
184 476 m 1,14,15
 195 477 195 477 201 465.5 c 128,-1,16
 207 454 207 454 203 437 c 0,17,18
 200 421 200 421 189 409.5 c 128,-1,19
 178 398 178 398 166 398 c 256,20,21
 154 398 154 398 148 409.5 c 128,-1,22
 142 421 142 421 146 437 c 0,23,24
 150 454 150 454 161 465.5 c 128,-1,25
 172 477 172 477 184 476 c 1,14,15
EndSplineSet
EndChar
StartChar: j
Encoding: 106 106 75
Width: 214
Flags: W
Fore
217 340 m 1,0,-1
 142 -12 l 2,1,2
 133 -52 133 -52 121.5 -79.5 c 128,-1,3
 110 -107 110 -107 92.5 -123.5 c 128,-1,4
 75 -140 75 -140 50.5 -146.5 c 128,-1,5
 26 -153 26 -153 -9 -153 c 0,6,7
 -14 -153 -14 -153 -15 -153 c 128,-1,8
 -16 -153 -16 -153 -17 -153.5 c 128,-1,9
 -18 -154 -18 -154 -19.5 -154 c 128,-1,10
 -21 -154 -21 -154 -26 -154 c 1,11,-1
 -20 -127 l 1,12,-1
 -2 -127 l 2,13,14
 27 -127 27 -127 46 -119.5 c 128,-1,15
 65 -112 65 -112 77.5 -97.5 c 128,-1,16
 90 -83 90 -83 97 -62 c 128,-1,17
 104 -41 104 -41 109 -13 c 2,18,-1
 184 340 l 1,19,-1
 217 340 l 1,0,-1
228 476 m 1,20,21
 240 477 240 477 246 465.5 c 128,-1,22
 252 454 252 454 248 437 c 0,23,24
 245 421 245 421 234 409.5 c 128,-1,25
 223 398 223 398 211 398 c 0,26,27
 198 398 198 398 192 409.5 c 128,-1,28
 186 421 186 421 190 437 c 0,29,30
 194 454 194 454 205 465.5 c 128,-1,31
 216 477 216 477 228 476 c 1,20,21
EndSplineSet
EndChar
StartChar: k
Encoding: 107 107 76
Width: 381
Flags: W
Fore
259 237 m 1,0,1
 280 234 280 234 299 226.5 c 128,-1,2
 318 219 318 219 330.5 204.5 c 128,-1,3
 343 190 343 190 347.5 167 c 128,-1,4
 352 144 352 144 345 110 c 2,5,-1
 322 1 l 1,6,-1
 289 1 l 1,7,-1
 312 109 l 2,8,9
 319 138 319 138 314 157 c 128,-1,10
 309 176 309 176 297 188 c 128,-1,11
 285 200 285 200 267.5 206 c 128,-1,12
 250 212 250 212 232 214 c 1,13,-1
 122 126 l 1,14,-1
 101 0 l 1,15,-1
 69 0 l 1,16,-1
 144 372 l 1,17,-1
 151 409 l 2,18,19
 155 425 155 425 154.5 437 c 128,-1,20
 154 449 154 449 140 462 c 1,21,22
 148 469 148 469 154.5 473.5 c 128,-1,23
 161 478 161 478 167 482 c 1,24,25
 179 477 179 477 185 465.5 c 128,-1,26
 191 454 191 454 189 440 c 2,27,-1
 179 391 l 1,28,-1
 131 169 l 1,29,-1
 348 342 l 1,30,-1
 388 342 l 1,31,-1
 259 237 l 1,32,-1
 259 237 l 1,0,1
EndSplineSet
EndChar
StartChar: l
Encoding: 108 108 77
Width: 164
Flags: W
Fore
108 56 m 1,0,1
 105 40 105 40 105 28 c 128,-1,2
 105 16 105 16 119 3 c 1,3,4
 111 -4 111 -4 104.5 -8.5 c 128,-1,5
 98 -13 98 -13 92 -18 c 1,6,7
 81 -13 81 -13 74.5 -1 c 128,-1,8
 68 11 68 11 69 25 c 2,9,-1
 81 82 l 1,10,-1
 151 407 l 2,11,12
 154 423 154 423 154 435 c 128,-1,13
 154 447 154 447 140 460 c 1,14,15
 153 472 153 472 168 480 c 1,16,17
 179 475 179 475 184.5 463.5 c 128,-1,18
 190 452 190 452 190 438 c 1,19,-1
 180 395 l 1,20,-1
 108 56 l 1,21,-1
 108 56 l 1,0,1
EndSplineSet
EndChar
StartChar: m
Encoding: 109 109 78
Width: 494
Flags: W
Fore
438 49 m 1,0,1
 435 34 435 34 435 22.5 c 128,-1,2
 435 11 435 11 448 -1 c 1,3,4
 441 -7 441 -7 434 -11.5 c 128,-1,5
 427 -16 427 -16 422 -20 c 1,6,7
 412 -15 412 -15 406 -4.5 c 128,-1,8
 400 6 400 6 401 19 c 2,9,-1
 414 83 l 1,10,-1
 438 193 l 2,11,12
 446 235 446 235 448 262.5 c 128,-1,13
 450 290 450 290 442 304 c 0,14,15
 433 321 433 321 413 320 c 128,-1,16
 393 319 393 319 376 302 c 0,17,18
 363 289 363 289 350.5 273 c 128,-1,19
 338 257 338 257 326.5 233.5 c 128,-1,20
 315 210 315 210 303.5 177 c 128,-1,21
 292 144 292 144 282 98 c 0,22,23
 280 87 280 87 278.5 80.5 c 128,-1,24
 277 74 277 74 276 68.5 c 128,-1,25
 275 63 275 63 273.5 56 c 128,-1,26
 272 49 272 49 270 39 c 1,27,-1
 269 39 l 1,28,-1
 260 -1 l 1,29,-1
 230 -1 l 1,30,-1
 272 193 l 2,31,32
 280 235 280 235 282 262.5 c 128,-1,33
 284 290 284 290 276 304 c 0,34,35
 267 321 267 321 246.5 320.5 c 128,-1,36
 226 320 226 320 210 302 c 0,37,38
 198 289 198 289 185 269 c 128,-1,39
 172 249 172 249 160 224.5 c 128,-1,40
 148 200 148 200 138 172.5 c 128,-1,41
 128 145 128 145 122 117 c 0,42,43
 121 113 121 113 120.5 110 c 128,-1,44
 120 107 120 107 119 103 c 2,45,-1
 97 -1 l 1,46,-1
 64 -1 l 1,47,-1
 73 39 l 1,48,-1
 122 269 l 2,49,50
 125 285 125 285 125 297 c 128,-1,51
 125 309 125 309 111 323 c 1,52,53
 119 329 119 329 126 334 c 128,-1,54
 133 339 133 339 138 343 c 1,55,56
 149 338 149 338 155 326.5 c 128,-1,57
 161 315 161 315 161 301 c 1,58,-1
 152 258 l 1,59,-1
 152 257 l 1,60,61
 166 286 166 286 181 306 c 128,-1,62
 196 326 196 326 211 336 c 0,63,64
 230 349 230 349 253.5 348 c 128,-1,65
 277 347 277 347 291 336 c 256,66,67
 305 325 305 325 310 307.5 c 128,-1,68
 315 290 315 290 313 267 c 1,69,70
 329 293 329 293 346.5 310.5 c 128,-1,71
 364 328 364 328 377 336 c 0,72,73
 397 347 397 347 420 347 c 128,-1,74
 443 347 443 347 457 336 c 0,75,76
 478 319 478 319 479.5 285 c 128,-1,77
 481 251 481 251 472 209 c 2,78,-1
 441 65 l 1,79,-1
 438 49 l 1,80,-1
 438 49 l 1,0,1
EndSplineSet
EndChar
StartChar: n
Encoding: 110 110 79
Width: 409
Flags: W
Fore
352 53 m 1,0,1
 348 36 348 36 349 24 c 128,-1,2
 350 12 350 12 367 0 c 1,3,4
 356 -6 356 -6 349 -10.5 c 128,-1,5
 342 -15 342 -15 336 -19 c 1,6,7
 325 -14 325 -14 319.5 -3.5 c 128,-1,8
 314 7 314 7 315 20 c 2,9,-1
 352 194 l 2,10,11
 358 220 358 220 359.5 243 c 128,-1,12
 361 266 361 266 355 283 c 128,-1,13
 349 300 349 300 334.5 309.5 c 128,-1,14
 320 319 320 319 293 319 c 0,15,16
 263 319 263 319 237 301.5 c 128,-1,17
 211 284 211 284 189 256 c 128,-1,18
 167 228 167 228 150.5 194.5 c 128,-1,19
 134 161 134 161 124 128 c 2,20,-1
 102 0 l 1,21,-1
 70 0 l 1,22,-1
 69 0 l 1,23,-1
 121 270 l 2,24,25
 124 286 124 286 124.5 298 c 128,-1,26
 125 310 125 310 111 324 c 1,27,28
 125 335 125 335 139 344 c 1,29,30
 149 339 149 339 155.5 327.5 c 128,-1,31
 162 316 162 316 161 302 c 2,32,-1
 143 217 l 1,33,34
 156 245 156 245 173 269.5 c 128,-1,35
 190 294 190 294 210.5 312 c 128,-1,36
 231 330 231 330 255 340.5 c 128,-1,37
 279 351 279 351 307 351 c 256,38,39
 335 351 335 351 353 340 c 128,-1,40
 371 329 371 329 380 310 c 128,-1,41
 389 291 389 291 390 265 c 128,-1,42
 391 239 391 239 385 210 c 2,43,-1
 352 53 l 1,44,-1
 352 53 l 1,0,1
EndSplineSet
EndChar
StartChar: o
Encoding: 111 111 80
Width: 412
Flags: W
Fore
92 221 m 0,0,1
 101 263 101 263 130.5 291 c 128,-1,2
 160 319 160 319 197.5 333 c 128,-1,3
 235 347 235 347 275 347 c 128,-1,4
 315 347 315 347 346.5 333 c 128,-1,5
 378 319 378 319 395 291 c 128,-1,6
 412 263 412 263 403 221 c 0,7,8
 398 197 398 197 395.5 186 c 128,-1,9
 393 175 393 175 392 170.5 c 128,-1,10
 391 166 391 166 391 164.5 c 128,-1,11
 391 163 391 163 390 159.5 c 128,-1,12
 389 156 389 156 387 147 c 128,-1,13
 385 138 385 138 381 117 c 0,14,15
 372 75 372 75 343.5 47 c 128,-1,16
 315 19 315 19 278.5 5 c 128,-1,17
 242 -9 242 -9 202 -9 c 128,-1,18
 162 -9 162 -9 130.5 5 c 128,-1,19
 99 19 99 19 81.5 47 c 128,-1,20
 64 75 64 75 72 117 c 0,21,22
 77 140 77 140 82 169 c 128,-1,23
 87 198 87 198 92 221 c 0,0,1
121 209 m 0,24,25
 120 204 120 204 118 193.5 c 128,-1,26
 116 183 116 183 114 171 c 128,-1,27
 112 159 112 159 109.5 147.5 c 128,-1,28
 107 136 107 136 106 130 c 0,29,30
 98 92 98 92 111 66.5 c 128,-1,31
 124 41 124 41 148.5 28.5 c 128,-1,32
 173 16 173 16 204.5 16 c 128,-1,33
 236 16 236 16 266 29 c 128,-1,34
 296 42 296 42 320 67 c 128,-1,35
 344 92 344 92 353 130 c 0,36,37
 357 145 357 145 358 150.5 c 128,-1,38
 359 156 359 156 360 161 c 128,-1,39
 361 166 361 166 363 175.5 c 128,-1,40
 365 185 365 185 370 208 c 0,41,42
 377 246 377 246 364 271.5 c 128,-1,43
 351 297 351 297 326 310 c 128,-1,44
 301 323 301 323 269 323 c 128,-1,45
 237 323 237 323 206.5 310.5 c 128,-1,46
 176 298 176 298 152.5 272.5 c 128,-1,47
 129 247 129 247 121 209 c 0,24,25
EndSplineSet
EndChar
StartChar: p
Encoding: 112 112 81
Width: 422
Flags: W
Fore
409 195 m 0,0,1
 404 160 404 160 389 126 c 128,-1,2
 374 92 374 92 349 64 c 128,-1,3
 324 36 324 36 290 17.5 c 128,-1,4
 256 -1 256 -1 213 -4 c 0,5,6
 205 -4 205 -4 189.5 -2 c 128,-1,7
 174 0 174 0 157.5 5.5 c 128,-1,8
 141 11 141 11 126 20 c 128,-1,9
 111 29 111 29 105 42 c 1,10,-1
 70 -127 l 1,11,-1
 39 -127 l 1,12,-1
 86 105 l 1,13,-1
 115 240 l 1,14,-1
 122 277 l 2,15,16
 126 292 126 292 126 304.5 c 128,-1,17
 126 317 126 317 112 330 c 1,18,19
 126 341 126 341 140 350 c 1,20,21
 150 345 150 345 156.5 333.5 c 128,-1,22
 163 322 163 322 162 308 c 2,23,-1
 162 307 l 1,24,25
 175 316 175 316 188 323.5 c 128,-1,26
 201 331 201 331 216.5 337 c 128,-1,27
 232 343 232 343 252.5 346.5 c 128,-1,28
 273 350 273 350 303 350 c 0,29,30
 334 350 334 350 356.5 337.5 c 128,-1,31
 379 325 379 325 392 303.5 c 128,-1,32
 405 282 405 282 409 253.5 c 128,-1,33
 413 225 413 225 409 195 c 0,0,1
218 20 m 0,34,35
 254 24 254 24 282 40.5 c 128,-1,36
 310 57 310 57 330 81 c 128,-1,37
 350 105 350 105 362 134 c 128,-1,38
 374 163 374 163 377 192 c 0,39,40
 380 217 380 217 376.5 241 c 128,-1,41
 373 265 373 265 362.5 283.5 c 128,-1,42
 352 302 352 302 334 313 c 128,-1,43
 316 324 316 324 291 325 c 0,44,45
 247 327 247 327 215 311 c 128,-1,46
 183 295 183 295 155 274 c 1,47,-1
 114 84 l 1,48,49
 121 68 121 68 133.5 55.5 c 128,-1,50
 146 43 146 43 161 34.5 c 128,-1,51
 176 26 176 26 191 22 c 128,-1,52
 206 18 206 18 218 20 c 0,34,35
EndSplineSet
EndChar
StartChar: q
Encoding: 113 113 82
Width: 417
Flags: W
Fore
332 -71 m 2,0,1
 329 -87 329 -87 329 -99 c 128,-1,2
 329 -111 329 -111 343 -124 c 1,3,4
 335 -131 335 -131 328.5 -135.5 c 128,-1,5
 322 -140 322 -140 316 -145 c 1,6,7
 305 -140 305 -140 298.5 -128 c 128,-1,8
 292 -116 292 -116 293 -102 c 2,9,-1
 300 -67 l 1,10,-1
 323 42 l 1,11,12
 311 29 311 29 293 20 c 128,-1,13
 275 11 275 11 256 5.5 c 128,-1,14
 237 0 237 0 220.5 -2 c 128,-1,15
 204 -4 204 -4 197 -4 c 0,16,17
 155 -1 155 -1 128 17.5 c 128,-1,18
 101 36 101 36 88.5 64 c 128,-1,19
 76 92 76 92 75.5 126 c 128,-1,20
 75 160 75 160 85 195 c 0,21,22
 94 225 94 225 110 253.5 c 128,-1,23
 126 282 126 282 148.5 303.5 c 128,-1,24
 171 325 171 325 198 337.5 c 128,-1,25
 225 350 225 350 257 350 c 0,26,27
 287 350 287 350 306 346.5 c 128,-1,28
 325 343 325 343 338.5 337 c 128,-1,29
 352 331 352 331 361 323.5 c 128,-1,30
 370 316 370 316 380 307 c 1,31,-1
 380 308 l 1,32,33
 385 322 385 322 396 333.5 c 128,-1,34
 407 345 407 345 421 350 c 1,35,36
 426 346 426 346 430.5 341 c 128,-1,37
 435 336 435 336 440 330 c 1,38,39
 420 317 420 317 415 304.5 c 128,-1,40
 410 292 410 292 406 277 c 2,41,-1
 332 -71 l 2,0,1
202 20 m 0,42,43
 213 18 213 18 230 22 c 128,-1,44
 247 26 247 26 265 34.5 c 128,-1,45
 283 43 283 43 300.5 55.5 c 128,-1,46
 318 68 318 68 332 84 c 1,47,-1
 337 105 l 1,48,-1
 372 272 l 1,49,-1
 373 274 l 1,50,51
 354 295 354 295 328 310.5 c 128,-1,52
 302 326 302 326 259 325 c 0,53,54
 233 324 233 324 210.5 313 c 128,-1,55
 188 302 188 302 169 283.5 c 128,-1,56
 150 265 150 265 136.5 241 c 128,-1,57
 123 217 123 217 115 192 c 0,58,59
 106 163 106 163 106 134 c 128,-1,60
 106 105 106 105 116 81 c 128,-1,61
 126 57 126 57 147 40.5 c 128,-1,62
 168 24 168 24 202 20 c 0,42,43
EndSplineSet
EndChar
StartChar: r
Encoding: 114 114 83
Width: 249
Flags: W
Fore
265 343 m 0,0,1
 270 343 270 343 271.5 343 c 128,-1,2
 273 343 273 343 274 343.5 c 128,-1,3
 275 344 275 344 276.5 344 c 128,-1,4
 278 344 278 344 283 344 c 1,5,-1
 277 318 l 1,6,-1
 259 318 l 2,7,8
 227 318 227 318 203.5 297.5 c 128,-1,9
 180 277 180 277 164 247.5 c 128,-1,10
 148 218 148 218 138 184.5 c 128,-1,11
 128 151 128 151 123 123 c 2,12,-1
 102 24 l 2,13,14
 97 10 97 10 86 -1.5 c 128,-1,15
 75 -13 75 -13 61 -18 c 1,16,17
 56 -14 56 -14 51.5 -9.5 c 128,-1,18
 47 -5 47 -5 42 2 c 1,19,20
 62 15 62 15 67.5 27 c 128,-1,21
 73 39 73 39 76 55 c 2,22,-1
 136 343 l 1,23,-1
 165 343 l 1,24,-1
 152 278 l 1,25,26
 173 307 173 307 201.5 325.5 c 128,-1,27
 230 344 230 344 265 343 c 0,0,1
EndSplineSet
EndChar
StartChar: s
Encoding: 115 115 84
Width: 334
Flags: W
Fore
279 91 m 0,0,1
 283 120 283 120 270 134 c 128,-1,2
 257 148 257 148 235.5 155 c 128,-1,3
 214 162 214 162 188.5 166 c 128,-1,4
 163 170 163 170 141.5 178.5 c 128,-1,5
 120 187 120 187 108 203.5 c 128,-1,6
 96 220 96 220 102 253 c 0,7,8
 106 278 106 278 120 297 c 128,-1,9
 134 316 134 316 153.5 328.5 c 128,-1,10
 173 341 173 341 195.5 347 c 128,-1,11
 218 353 218 353 241 353 c 0,12,13
 259 353 259 353 277.5 349 c 128,-1,14
 296 345 296 345 310.5 336 c 128,-1,15
 325 327 325 327 334.5 313 c 128,-1,16
 344 299 344 299 344 280 c 1,17,-1
 314 280 l 1,18,19
 314 296 314 296 306.5 304.5 c 128,-1,20
 299 313 299 313 287.5 317.5 c 128,-1,21
 276 322 276 322 261.5 323 c 128,-1,22
 247 324 247 324 232 324 c 0,23,24
 193 324 193 324 167 306 c 128,-1,25
 141 288 141 288 135 253 c 0,26,27
 131 225 131 225 144 212 c 128,-1,28
 157 199 157 199 178.5 192.5 c 128,-1,29
 200 186 200 186 225.5 182.5 c 128,-1,30
 251 179 251 179 272 170 c 128,-1,31
 293 161 293 161 305 143.5 c 128,-1,32
 317 126 317 126 312 91 c 0,33,34
 307 64 307 64 292 44.5 c 128,-1,35
 277 25 277 25 256 12.5 c 128,-1,36
 235 0 235 0 210.5 -6 c 128,-1,37
 186 -12 186 -12 162 -12 c 0,38,39
 142 -12 142 -12 121.5 -8 c 128,-1,40
 101 -4 101 -4 84.5 5 c 128,-1,41
 68 14 68 14 58 29 c 128,-1,42
 48 44 48 44 48 66 c 1,43,-1
 82 66 l 1,44,45
 83 49 83 49 91 39 c 128,-1,46
 99 29 99 29 111.5 24 c 128,-1,47
 124 19 124 19 139.5 17.5 c 128,-1,48
 155 16 155 16 171 16 c 0,49,50
 190 16 190 16 208 19.5 c 128,-1,51
 226 23 226 23 240.5 32 c 128,-1,52
 255 41 255 41 265.5 55.5 c 128,-1,53
 276 70 276 70 279 91 c 0,0,1
EndSplineSet
EndChar
StartChar: t
Encoding: 116 116 85
Width: 246
Flags: W
Fore
215 24 m 1,0,-1
 209 -2 l 1,1,-1
 192 -2 l 2,2,3
 154 -2 154 -2 131 5 c 128,-1,4
 108 12 108 12 96.5 28.5 c 128,-1,5
 85 45 85 45 85 72 c 128,-1,6
 85 99 85 99 94 140 c 2,7,-1
 150 399 l 2,8,9
 154 415 154 415 153.5 427 c 128,-1,10
 153 439 153 439 139 453 c 1,11,12
 146 459 146 459 153 464 c 128,-1,13
 160 469 160 469 166 473 c 1,14,15
 178 468 178 468 183.5 456.5 c 128,-1,16
 189 445 189 445 188 431 c 2,17,-1
 181 397 l 1,18,-1
 169 342 l 1,19,-1
 247 342 l 1,20,-1
 242 316 l 1,21,-1
 164 316 l 1,22,-1
 126 138 l 2,23,24
 119 111 119 111 117.5 89.5 c 128,-1,25
 116 68 116 68 123 54 c 128,-1,26
 130 40 130 40 147.5 32 c 128,-1,27
 165 24 165 24 197 24 c 2,28,-1
 215 24 l 1,0,-1
EndSplineSet
EndChar
StartChar: u
Encoding: 117 117 86
Width: 404
Flags: W
Fore
348 63 m 1,0,1
 345 48 345 48 345 36 c 128,-1,2
 345 24 345 24 359 11 c 1,3,4
 351 5 351 5 344.5 0.5 c 128,-1,5
 338 -4 338 -4 332 -8 c 1,6,7
 321 -3 321 -3 315 8 c 128,-1,8
 309 19 309 19 310 33 c 1,9,10
 285 11 285 11 255.5 0 c 128,-1,11
 226 -11 226 -11 197 -11 c 0,12,13
 172 -11 172 -11 149.5 -2.5 c 128,-1,14
 127 6 127 6 111.5 22.5 c 128,-1,15
 96 39 96 39 89.5 63 c 128,-1,16
 83 87 83 87 90 119 c 2,17,-1
 138 343 l 1,18,-1
 169 343 l 1,19,-1
 125 132 l 2,20,21
 119 103 119 103 123 80.5 c 128,-1,22
 127 58 127 58 138.5 43 c 128,-1,23
 150 28 150 28 167 21 c 128,-1,24
 184 14 184 14 204 14 c 0,25,26
 223 15 223 15 243.5 23 c 128,-1,27
 264 31 264 31 281 46 c 128,-1,28
 298 61 298 61 311.5 82.5 c 128,-1,29
 325 104 325 104 331 132 c 2,30,-1
 375 342 l 1,31,-1
 407 342 l 1,32,-1
 360 119 l 1,33,34
 358 114 358 114 357 109 c 128,-1,35
 356 104 356 104 354 99 c 1,36,-1
 356 99 l 1,37,-1
 348 63 l 1,38,-1
 348 63 l 1,0,1
EndSplineSet
EndChar
StartChar: v
Encoding: 118 118 87
Width: 323
Flags: W
Fore
245 104 m 2,0,1
 236 84 236 84 227.5 64 c 128,-1,2
 219 44 219 44 208.5 28 c 128,-1,3
 198 12 198 12 185 2.5 c 128,-1,4
 172 -7 172 -7 155 -7 c 256,5,6
 138 -7 138 -7 129.5 0 c 128,-1,7
 121 7 121 7 117 20 c 128,-1,8
 113 33 113 33 112 51.5 c 128,-1,9
 111 70 111 70 110 93 c 2,10,-1
 107 342 l 1,11,-1
 139 342 l 1,12,-1
 143 110 l 2,13,14
 143 105 143 105 142.5 90 c 128,-1,15
 142 75 142 75 143 59 c 128,-1,16
 144 43 144 43 148 31 c 128,-1,17
 152 19 152 19 161 19 c 0,18,19
 170 20 170 20 179 32 c 128,-1,20
 188 44 188 44 195.5 59 c 128,-1,21
 203 74 203 74 209 89 c 128,-1,22
 215 104 215 104 218 110 c 2,23,-1
 318 342 l 1,24,-1
 350 342 l 1,25,-1
 245 104 l 2,0,1
EndSplineSet
EndChar
StartChar: w
Encoding: 119 119 88
Width: 465
Flags: W
Fore
99 0 m 1,0,-1
 109 343 l 1,1,-1
 141 343 l 1,2,-1
 130 37 l 1,3,4
 148 47 148 47 167.5 71.5 c 128,-1,5
 187 96 187 96 207 128 c 128,-1,6
 227 160 227 160 246 197 c 128,-1,7
 265 234 265 234 282 268 c 1,8,9
 287 234 287 234 290 198 c 128,-1,10
 293 162 293 162 297.5 129.5 c 128,-1,11
 302 97 302 97 310.5 73 c 128,-1,12
 319 49 319 49 334 39 c 1,13,14
 359 102 359 102 393 183.5 c 128,-1,15
 427 265 427 265 459 343 c 1,16,-1
 490 343 l 1,17,-1
 361 0 l 1,18,-1
 332 0 l 1,19,20
 312 11 312 11 300 28.5 c 128,-1,21
 288 46 288 46 281 69.5 c 128,-1,22
 274 93 274 93 271 121 c 128,-1,23
 268 149 268 149 265 181 c 1,24,25
 233 117 233 117 200 70 c 128,-1,26
 167 23 167 23 128 0 c 1,27,-1
 99 0 l 1,0,-1
EndSplineSet
EndChar
StartChar: x
Encoding: 120 120 89
Width: 366
Flags: W
Fore
137 342 m 1,0,-1
 218 198 l 1,1,-1
 359 342 l 1,2,-1
 401 342 l 1,3,-1
 232 171 l 1,4,-1
 333 0 l 1,5,-1
 292 0 l 1,6,-1
 206 144 l 1,7,-1
 69 0 l 1,8,-1
 28 0 l 1,9,-1
 191 171 l 1,10,-1
 96 342 l 1,11,-1
 137 342 l 1,12,-1
 137 342 l 1,0,-1
EndSplineSet
EndChar
StartChar: y
Encoding: 121 121 90
Width: 404
Flags: W
Fore
428 343 m 1,0,1
 409 330 409 330 404 318.5 c 128,-1,2
 399 307 399 307 395 291 c 2,3,-1
 331 -12 l 2,4,5
 322 -52 322 -52 310.5 -79.5 c 128,-1,6
 299 -107 299 -107 281 -123.5 c 128,-1,7
 263 -140 263 -140 236.5 -146.5 c 128,-1,8
 210 -153 210 -153 172 -153 c 0,9,10
 167 -153 167 -153 166 -153 c 128,-1,11
 165 -153 165 -153 164 -153.5 c 128,-1,12
 163 -154 163 -154 161.5 -154 c 128,-1,13
 160 -154 160 -154 155 -154 c 1,14,-1
 161 -127 l 1,15,16
 166 -127 166 -127 167.5 -127 c 128,-1,17
 169 -127 169 -127 169.5 -127 c 128,-1,18
 170 -127 170 -127 172 -127 c 128,-1,19
 174 -127 174 -127 180 -127 c 0,20,21
 212 -127 212 -127 232.5 -119.5 c 128,-1,22
 253 -112 253 -112 266 -98 c 128,-1,23
 279 -84 279 -84 286 -62.5 c 128,-1,24
 293 -41 293 -41 298 -14 c 2,25,-1
 308 33 l 1,26,27
 284 12 284 12 254.5 1 c 128,-1,28
 225 -10 225 -10 196 -10 c 0,29,30
 171 -10 171 -10 148.5 -1.5 c 128,-1,31
 126 7 126 7 110.5 23.5 c 128,-1,32
 95 40 95 40 88.5 64 c 128,-1,33
 82 88 82 88 89 120 c 2,34,-1
 137 343 l 1,35,-1
 168 343 l 1,36,-1
 124 133 l 2,37,38
 118 104 118 104 122 81.5 c 128,-1,39
 126 59 126 59 138 44 c 128,-1,40
 150 29 150 29 167.5 22 c 128,-1,41
 185 15 185 15 205 15 c 0,42,43
 240 16 240 16 274 41 c 128,-1,44
 308 66 308 66 325 113 c 2,45,-1
 370 322 l 1,46,47
 376 335 376 335 386.5 346.5 c 128,-1,48
 397 358 397 358 411 363 c 1,49,50
 419 355 419 355 428 343 c 1,0,1
EndSplineSet
EndChar
StartChar: z
Encoding: 122 122 91
Width: 422
Flags: W
Fore
366 33 m 1,0,-1
 358 -1 l 1,1,-1
 151 -1 l 2,2,3
 125 -1 125 -1 109 6.5 c 128,-1,4
 93 14 93 14 84 25.5 c 128,-1,5
 75 37 75 37 73 51 c 128,-1,6
 71 65 71 65 73 79 c 1,7,8
 80 84 80 84 103 102 c 128,-1,9
 126 120 126 120 158 144 c 128,-1,10
 190 168 190 168 225.5 195 c 128,-1,11
 261 222 261 222 292 246 c 128,-1,12
 323 270 323 270 346 287.5 c 128,-1,13
 369 305 369 305 375 311 c 1,14,-1
 129 312 l 1,15,-1
 135 343 l 1,16,-1
 431 342 l 1,17,-1
 425 313 l 1,18,-1
 115 71 l 1,19,20
 116 57 116 57 127.5 45 c 128,-1,21
 139 33 139 33 170 33 c 2,22,-1
 366 33 l 1,0,-1
EndSplineSet
EndChar
StartChar: braceleft
Encoding: 123 123 92
Width: 174
Flags: W
Fore
153 -79 m 1,0,1
 109 -68 109 -68 89 -26 c 128,-1,2
 69 16 69 16 87 103 c 2,3,-1
 103 177 l 1,4,5
 73 199 73 199 44 211 c 1,6,7
 61 217 61 217 80 226.5 c 128,-1,8
 99 236 99 236 118 247 c 1,9,-1
 137 330 l 2,10,11
 155 417 155 417 192 458.5 c 128,-1,12
 229 500 229 500 278 511 c 1,13,-1
 273 487 l 1,14,15
 234 476 234 476 205.5 436.5 c 128,-1,16
 177 397 177 397 164 331 c 2,17,-1
 147 252 l 1,18,19
 147 250 147 250 146 248 c 256,20,21
 145 246 145 246 144.5 244 c 128,-1,22
 144 242 144 242 142 240 c 0,23,24
 137 235 137 235 134 233 c 256,25,26
 131 231 131 231 129 230 c 0,27,28
 109 218 109 218 93 213 c 1,29,30
 108 207 108 207 122 196 c 0,31,32
 123 195 123 195 125 194 c 1,33,34
 126 193 126 193 129 188 c 1,35,36
 130 185 130 185 130 179 c 2,37,-1
 130 174 l 1,38,-1
 115 102 l 2,39,40
 101 36 101 36 113.5 -2.5 c 128,-1,41
 126 -41 126 -41 158 -53 c 1,42,-1
 153 -79 l 1,0,1
EndSplineSet
EndChar
StartChar: bar
Encoding: 124 124 93
Width: 158
Flags: W
Fore
33 -178 m 1,0,-1
 181 539 l 1,1,-1
 205 539 l 1,2,-1
 54 -178 l 1,3,-1
 33 -178 l 1,0,-1
EndSplineSet
EndChar
StartChar: braceright
Encoding: 125 125 94
Width: 179
Flags: W
Fore
-7 -53 m 1,0,1
 26 -41 26 -41 54 -2.5 c 128,-1,2
 82 36 82 36 95 102 c 2,3,-1
 110 174 l 1,4,5
 111 176 111 176 112 179 c 0,6,7
 114 185 114 185 117 188 c 0,8,9
 122 193 122 193 124 194 c 256,10,11
 126 195 126 195 127 196 c 0,12,13
 148 207 148 207 165 213 c 1,14,15
 149 219 149 219 134 230 c 0,16,17
 132 231 132 231 131 233 c 256,18,19
 130 235 130 235 129 236.5 c 128,-1,20
 128 238 128 238 128 240 c 1,21,22
 126 243 126 243 126 248 c 0,23,24
 126 250 126 250 127 252 c 1,25,-1
 144 331 l 2,26,27
 174 464 174 464 101 487 c 1,28,-1
 106 511 l 1,29,30
 128 506 128 506 144.5 493 c 128,-1,31
 161 480 161 480 170 458.5 c 128,-1,32
 179 437 179 437 180 405 c 128,-1,33
 181 373 181 373 172 330 c 2,34,-1
 154 247 l 1,35,36
 169 236 169 236 183.5 226.5 c 128,-1,37
 198 217 198 217 212 211 c 1,38,39
 196 205 196 205 177.5 196.5 c 128,-1,40
 159 188 159 188 139 177 c 1,41,-1
 123 103 l 2,42,43
 105 16 105 16 68 -26 c 128,-1,44
 31 -68 31 -68 -12 -79 c 1,45,-1
 -7 -53 l 1,0,1
EndSplineSet
EndChar
StartChar: asciitilde
Encoding: 126 126 95
Width: 449
Flags: W
Fore
461 255 m 1,0,-1
 459 248 l 2,1,2
 454 222 454 222 443 204.5 c 128,-1,3
 432 187 432 187 418.5 176 c 128,-1,4
 405 165 405 165 389.5 160 c 128,-1,5
 374 155 374 155 359 155 c 0,6,7
 340 155 340 155 318 161 c 128,-1,8
 296 167 296 167 255 187 c 0,9,10
 233 198 233 198 212.5 212 c 128,-1,11
 192 226 192 226 166 226 c 0,12,13
 142 226 142 226 119.5 206.5 c 128,-1,14
 97 187 97 187 89 155 c 1,15,-1
 69 155 l 1,16,-1
 71 162 l 2,17,18
 81 206 81 206 110.5 230.5 c 128,-1,19
 140 255 140 255 172 255 c 0,20,21
 183 255 183 255 193 252.5 c 128,-1,22
 203 250 203 250 214 245 c 128,-1,23
 225 240 225 240 238.5 233 c 128,-1,24
 252 226 252 226 270 216 c 0,25,26
 292 205 292 205 317 194.5 c 128,-1,27
 342 184 342 184 368 184 c 0,28,29
 392 184 392 184 412.5 203.5 c 128,-1,30
 433 223 433 223 440 255 c 1,31,-1
 461 255 l 1,0,-1
EndSplineSet
EndChar
StartChar: uni0E33.alt1
Encoding: 65539 -1 96
Width: 315
Flags: W
Fore
185 404 m 0,0,1
 216 404 216 404 240.5 394 c 128,-1,2
 265 384 265 384 280.5 366.5 c 128,-1,3
 296 349 296 349 302.5 325 c 128,-1,4
 309 301 309 301 303 274 c 2,5,-1
 246 8 l 1,6,-1
 216 8 l 1,7,-1
 268 254 l 2,8,9
 275 283 275 283 272 304.5 c 128,-1,10
 269 326 269 326 258 344 c 0,11,12
 235 378 235 378 184 378 c 0,13,14
 163 378 163 378 143 371 c 1,15,-1
 156 402 l 1,16,17
 164 404 164 404 170.5 404 c 128,-1,18
 177 404 177 404 185 404 c 0,0,1
-118 558 m 2,19,20
 -94 558 -94 558 -79.5 541 c 128,-1,21
 -65 524 -65 524 -69 500 c 0,22,23
 -74 476 -74 476 -95.5 459 c 128,-1,24
 -117 442 -117 442 -143 442 c 2,25,-1
 -144 442 l 2,26,27
 -170 442 -170 442 -184 459 c 128,-1,28
 -198 476 -198 476 -194 500 c 0,29,30
 -189 525 -189 525 -167 541.5 c 128,-1,31
 -145 558 -145 558 -119 558 c 2,32,-1
 -118 558 l 2,19,20
-138 459 m 2,33,34
 -131 459 -131 459 -123.5 463 c 128,-1,35
 -116 467 -116 467 -109.5 473 c 128,-1,36
 -103 479 -103 479 -99 486.5 c 128,-1,37
 -95 494 -95 494 -93 500 c 1,38,39
 -91 512 -91 512 -99.5 526 c 128,-1,40
 -108 540 -108 540 -121 542 c 1,41,-1
 -122 542 l 2,42,43
 -130 542 -130 542 -138 537.5 c 128,-1,44
 -146 533 -146 533 -152.5 527 c 128,-1,45
 -159 521 -159 521 -163.5 513.5 c 128,-1,46
 -168 506 -168 506 -169 500 c 2,47,48
 -171 494 -171 494 -169.5 487 c 128,-1,49
 -168 480 -168 480 -163.5 474 c 128,-1,50
 -159 468 -159 468 -153 463.5 c 128,-1,51
 -147 459 -147 459 -139 459 c 2,52,-1
 -138 459 l 2,33,34
EndSplineSet
EndChar
StartChar: quotedbl
Encoding: 34 34 97
Width: 217
Flags: W
Fore
241 358 m 1,0,-1
 210 358 l 1,1,-1
 230 499 l 1,2,-1
 281 500 l 1,3,-1
 241 358 l 1,0,-1
151 358 m 1,4,-1
 121 358 l 1,5,-1
 141 499 l 1,6,-1
 192 500 l 1,7,-1
 151 358 l 1,4,-1
EndSplineSet
EndChar
StartChar: exclam
Encoding: 33 33 98
Width: 155
Flags: W
Fore
95 95 m 0,0,1
 110 95 110 95 117 81.5 c 128,-1,2
 124 68 124 68 120 48 c 0,3,4
 115 28 115 28 103 14.5 c 128,-1,5
 91 1 91 1 80 0 c 1,6,7
 61 1 61 1 53 14.5 c 128,-1,8
 45 28 45 28 50 48 c 0,9,10
 54 68 54 68 67.5 81.5 c 128,-1,11
 81 95 81 95 95 95 c 0,0,1
88 139 m 1,12,-1
 158 494 l 1,13,-1
 205 494 l 1,14,-1
 120 139 l 1,15,-1
 88 139 l 1,12,-1
EndSplineSet
EndChar
StartChar: uni0E4E.alt1
Encoding: 65540 -1 99
Width: 0
Flags: W
Fore
35 659 m 1,0,-1
 22 636 l 1,1,2
 -47 648 -47 648 -58 595 c 0,3,4
 -65 564 -65 564 -24 563 c 1,5,-1
 -34 547 l 1,6,7
 -112 540 -112 540 -120 489 c 0,8,9
 -124 457 -124 457 -57 465 c 1,10,-1
 -68 444 l 1,11,12
 -171 429 -171 429 -162 483 c 0,13,14
 -147 551 -147 551 -69 560 c 1,15,16
 -99 574 -99 574 -94 602 c 0,17,18
 -73 680 -73 680 35 659 c 1,0,-1
EndSplineSet
EndChar
StartChar: exclamdown
Encoding: 161 161 100
Width: 148
Flags: W
Fore
17 -143 m 1,0,-1
 95 209 l 1,1,-1
 127 209 l 1,2,-1
 60 -143 l 1,3,-1
 17 -143 l 1,0,-1
118 254 m 256,4,5
 104 254 104 254 97 267.5 c 128,-1,6
 90 281 90 281 94 301 c 0,7,8
 99 321 99 321 112 334.5 c 128,-1,9
 125 348 125 348 140 349 c 0,10,11
 154 348 154 348 161 334.5 c 128,-1,12
 168 321 168 321 163 301 c 0,13,14
 159 281 159 281 145.5 267.5 c 128,-1,15
 132 254 132 254 118 254 c 256,4,5
EndSplineSet
EndChar
StartChar: cent
Encoding: 162 162 101
Width: 427
Flags: W
Fore
243 84 m 1,0,1
 279 84 279 84 315 97.5 c 128,-1,2
 351 111 351 111 371 143 c 1,3,-1
 396 132 l 1,4,5
 370 96 370 96 326 79 c 128,-1,6
 282 62 282 62 238 61 c 1,7,-1
 223 -12 l 1,8,-1
 199 -12 l 1,9,-1
 215 62 l 1,10,11
 170 65 170 65 138 84 c 0,12,13
 118 98 118 98 105.5 117.5 c 128,-1,14
 93 137 93 137 98 163 c 2,15,-1
 130 314 l 2,16,17
 136 340 136 340 157 359.5 c 128,-1,18
 178 379 178 379 204 393 c 0,19,20
 243 413 243 413 290 416 c 1,21,-1
 306 491 l 1,22,-1
 330 491 l 1,23,-1
 314 417 l 1,24,25
 358 416 358 416 394 399 c 128,-1,26
 430 382 430 382 441 345 c 1,27,-1
 411 334 l 1,28,29
 405 366 405 366 375 380 c 128,-1,30
 345 394 345 394 309 394 c 1,31,-1
 243 84 l 1,0,1
165 103 m 0,32,33
 187 89 187 89 220 86 c 1,34,-1
 285 392 l 1,35,36
 250 387 250 387 223 374 c 0,37,38
 200 361 200 361 182 342 c 128,-1,39
 164 323 164 323 159 301 c 2,40,-1
 133 176 l 2,41,42
 128 154 128 154 138 135 c 128,-1,43
 148 116 148 116 165 103 c 0,32,33
EndSplineSet
EndChar
StartChar: sterling
Encoding: 163 163 102
Width: 382
Flags: W
Fore
60 -1 m 1,0,-1
 65 21 l 1,1,2
 120 48 120 48 149 84 c 128,-1,3
 178 120 178 120 187 160 c 0,4,5
 190 174 190 174 192 187.5 c 128,-1,6
 194 201 194 201 195 219 c 1,7,-1
 108 219 l 1,8,-1
 113 247 l 1,9,-1
 195 247 l 1,10,11
 195 264 195 264 196 289 c 128,-1,12
 197 314 197 314 202 337 c 0,13,14
 208 367 208 367 223.5 392.5 c 128,-1,15
 239 418 239 418 260 436 c 128,-1,16
 281 454 281 454 307.5 464.5 c 128,-1,17
 334 475 334 475 363 475 c 0,18,19
 394 475 394 475 412.5 468.5 c 128,-1,20
 431 462 431 462 443 456 c 1,21,-1
 427 434 l 1,22,23
 417 439 417 439 400 445 c 128,-1,24
 383 451 383 451 357 451 c 0,25,26
 309 451 309 451 275 418.5 c 128,-1,27
 241 386 241 386 230 336 c 0,28,29
 224 310 224 310 223 287 c 128,-1,30
 222 264 222 264 222 247 c 1,31,-1
 343 247 l 1,32,-1
 338 219 l 1,33,-1
 221 219 l 1,34,35
 220.5 210 l 130,-1,36
 220 201 220 201 218 187 c 128,-1,37
 216 173 216 173 212 155.5 c 128,-1,38
 208 138 208 138 200 121 c 0,39,40
 195 107 195 107 185.5 93 c 128,-1,41
 176 79 176 79 164.5 67 c 128,-1,42
 153 55 153 55 140.5 45 c 128,-1,43
 128 35 128 35 118 29 c 1,44,-1
 370 29 l 1,45,-1
 363 -1 l 1,46,-1
 60 -1 l 1,0,-1
EndSplineSet
EndChar
StartChar: currency
Encoding: 164 164 103
Width: 453
Flags: W
Fore
386 23 m 1,0,-1
 355 64 l 1,1,2
 329 43 329 43 295.5 32 c 128,-1,3
 262 21 262 21 229 21 c 128,-1,4
 196 21 196 21 166.5 31 c 128,-1,5
 137 41 137 41 118 61 c 1,6,-1
 71 21 l 1,7,-1
 57 39 l 1,8,-1
 105 81 l 1,9,10
 98 95 98 95 95.5 111 c 128,-1,11
 93 127 93 127 98 147 c 0,12,13
 102 170 102 170 107.5 199 c 128,-1,14
 113 228 113 228 118 251 c 0,15,16
 127 295 127 295 158 324 c 1,17,-1
 132 360 l 1,18,-1
 155 380 l 1,19,-1
 182 343 l 1,20,21
 209 361 209 361 240.5 369.5 c 128,-1,22
 272 378 272 378 303.5 377.5 c 128,-1,23
 335 377 335 377 362.5 367.5 c 128,-1,24
 390 358 390 358 408 339 c 1,25,-1
 456 379 l 1,26,-1
 471 360 l 1,27,-1
 422 319 l 1,28,29
 429 305 429 305 431.5 288 c 128,-1,30
 434 271 434 271 429 251 c 2,31,-1
 407 147 l 2,32,33
 398 110 398 110 375 84 c 1,34,-1
 408 41 l 1,35,-1
 386 23 l 1,0,-1
132 160 m 0,36,37
 124 122 124 122 136.5 96.5 c 128,-1,38
 149 71 149 71 173.5 58.5 c 128,-1,39
 198 46 198 46 229.5 46 c 128,-1,40
 261 46 261 46 291.5 59 c 128,-1,41
 322 72 322 72 346 97 c 128,-1,42
 370 122 370 122 379 160 c 0,43,44
 382 175 382 175 383.5 180.5 c 128,-1,45
 385 186 385 186 385.5 191 c 128,-1,46
 386 196 386 196 388 205.5 c 128,-1,47
 390 215 390 215 395 238 c 0,48,49
 403 276 403 276 389.5 301.5 c 128,-1,50
 376 327 376 327 351.5 340 c 128,-1,51
 327 353 327 353 294.5 353 c 128,-1,52
 262 353 262 353 232 340.5 c 128,-1,53
 202 328 202 328 178 302.5 c 128,-1,54
 154 277 154 277 146 239 c 0,55,56
 145 234 145 234 143.5 223.5 c 128,-1,57
 142 213 142 213 139.5 201 c 128,-1,58
 137 189 137 189 135 177.5 c 128,-1,59
 133 166 133 166 132 160 c 0,36,37
EndSplineSet
EndChar
StartChar: yen
Encoding: 165 165 104
Width: 473
Flags: W
Fore
326 233 m 0,0,1
 309 213 309 213 291 203 c 1,2,-1
 459 203 l 1,3,-1
 452 171 l 1,4,-1
 284 171 l 1,5,-1
 267 90 l 1,6,-1
 435 90 l 1,7,-1
 428 58 l 1,8,-1
 260 58 l 1,9,-1
 247 -1 l 1,10,-1
 215 -1 l 1,11,-1
 228 58 l 1,12,-1
 57 58 l 1,13,-1
 64 90 l 1,14,-1
 235 90 l 1,15,-1
 252 171 l 1,16,-1
 81 171 l 1,17,-1
 88 203 l 1,18,-1
 257 203 l 1,19,20
 246 209 246 209 241.5 220 c 128,-1,21
 237 231 237 231 235 236 c 0,22,23
 224 261 224 261 212 291.5 c 128,-1,24
 200 322 200 322 188.5 354 c 128,-1,25
 177 386 177 386 166.5 417.5 c 128,-1,26
 156 449 156 449 147 477 c 1,27,-1
 183 477 l 1,28,29
 200 421 200 421 222.5 362.5 c 128,-1,30
 245 304 245 304 262 253 c 0,31,32
 270 230 270 230 277.5 229 c 128,-1,33
 285 228 285 228 302 249 c 0,34,35
 347 303 347 303 395 361.5 c 128,-1,36
 443 420 443 420 487 477 c 1,37,-1
 521 477 l 1,38,39
 475 417 475 417 423.5 353.5 c 128,-1,40
 372 290 372 290 326 233 c 0,0,1
EndSplineSet
EndChar
StartChar: brokenbar
Encoding: 166 166 105
Width: 153
Flags: W
Fore
108 234 m 1,0,-1
 163 487 l 1,1,-1
 192 487 l 1,2,-1
 137 234 l 1,3,-1
 108 234 l 1,4,-1
 108 234 l 1,0,-1
34 -123 m 1,5,-1
 86 131 l 1,6,-1
 115 131 l 1,7,-1
 61 -123 l 1,8,-1
 34 -123 l 1,9,-1
 34 -123 l 1,5,-1
EndSplineSet
EndChar
StartChar: section
Encoding: 167 167 106
Width: 371
Flags: W
Fore
321 60 m 0,0,1
 316 33 316 33 301 13.5 c 128,-1,2
 286 -6 286 -6 265 -18.5 c 128,-1,3
 244 -31 244 -31 219.5 -37 c 128,-1,4
 195 -43 195 -43 171 -43 c 0,5,6
 151 -43 151 -43 131 -39 c 128,-1,7
 111 -35 111 -35 94.5 -26 c 128,-1,8
 78 -17 78 -17 67.5 -2 c 128,-1,9
 57 13 57 13 57 35 c 1,10,-1
 91 35 l 1,11,12
 92 18 92 18 100 8 c 128,-1,13
 108 -2 108 -2 120.5 -7 c 128,-1,14
 133 -12 133 -12 148.5 -13.5 c 128,-1,15
 164 -15 164 -15 180 -15 c 0,16,17
 199 -15 199 -15 217 -11.5 c 128,-1,18
 235 -8 235 -8 249.5 1 c 128,-1,19
 264 10 264 10 274.5 24.5 c 128,-1,20
 285 39 285 39 288 60 c 0,21,22
 293 89 293 89 279 103 c 128,-1,23
 265 117 265 117 242 125 c 0,24,25
 221 132 221 132 195.5 136 c 128,-1,26
 170 140 170 140 149.5 148 c 128,-1,27
 129 156 129 156 117 173 c 128,-1,28
 105 190 105 190 111 222 c 0,29,30
 116 254 116 254 137 276.5 c 128,-1,31
 158 299 158 299 186 310 c 1,32,33
 163 318 163 318 150.5 334.5 c 128,-1,34
 138 351 138 351 144 386 c 0,35,36
 148 411 148 411 161.5 430 c 128,-1,37
 175 449 175 449 194.5 461.5 c 128,-1,38
 214 474 214 474 236.5 480 c 128,-1,39
 259 486 259 486 282 486 c 0,40,41
 300 486 300 486 318.5 482 c 128,-1,42
 337 478 337 478 351.5 469 c 128,-1,43
 366 460 366 460 375.5 446 c 128,-1,44
 385 432 385 432 385 413 c 1,45,-1
 355 413 l 1,46,47
 355 429 355 429 347.5 437.5 c 128,-1,48
 340 446 340 446 329 450.5 c 128,-1,49
 318 455 318 455 303.5 456 c 128,-1,50
 289 457 289 457 274 457 c 0,51,52
 235 457 235 457 208.5 439 c 128,-1,53
 182 421 182 421 177 386 c 0,54,55
 171 353 171 353 189 340 c 128,-1,56
 207 327 207 327 236 321 c 1,57,58
 241 322 241 322 250 322 c 0,59,60
 266 322 266 322 282 319 c 128,-1,61
 298 316 298 316 311.5 309.5 c 128,-1,62
 325 303 325 303 335.5 292.5 c 128,-1,63
 346 282 346 282 350 268 c 0,64,65
 357 250 357 250 353 224 c 0,66,67
 348 192 348 192 329 171 c 128,-1,68
 310 150 310 150 284 138 c 1,69,70
 304 129 304 129 315.5 111.5 c 128,-1,71
 327 94 327 94 321 60 c 0,0,1
145 222 m 0,72,73
 142 201 142 201 149 188.5 c 128,-1,74
 156 176 156 176 170 168.5 c 128,-1,75
 184 161 184 161 202 157.5 c 128,-1,76
 220 154 220 154 239 151 c 1,77,78
 269 155 269 155 291.5 172 c 128,-1,79
 314 189 314 189 320 224 c 0,80,81
 325 258 325 258 306.5 272 c 128,-1,82
 288 286 288 286 260 293 c 1,83,-1
 242 293 l 2,84,85
 203 293 203 293 176.5 275 c 128,-1,86
 150 257 150 257 145 222 c 0,72,73
EndSplineSet
EndChar
StartChar: dieresis
Encoding: 168 168 107
Width: 216
Flags: W
Fore
266 474 m 1,0,1
 278 475 278 475 284 463.5 c 128,-1,2
 290 452 290 452 286 437 c 0,3,4
 283 422 283 422 273 411 c 128,-1,5
 263 400 263 400 251 400 c 256,6,7
 239 400 239 400 233 411 c 128,-1,8
 227 422 227 422 231 437 c 256,9,10
 235 452 235 452 245 463.5 c 128,-1,11
 255 475 255 475 266 474 c 1,0,1
139 474 m 1,12,13
 151 475 151 475 157 463.5 c 128,-1,14
 163 452 163 452 159 437 c 0,15,16
 156 422 156 422 146 411 c 128,-1,17
 136 400 136 400 124 400 c 256,18,19
 112 400 112 400 106 411 c 128,-1,20
 100 422 100 422 104 437 c 256,21,22
 108 452 108 452 118 463.5 c 128,-1,23
 128 475 128 475 139 474 c 1,12,13
EndSplineSet
EndChar
StartChar: copyright
Encoding: 169 169 108
Width: 567
Flags: W
Fore
143 366 m 2,0,1
 152 409 152 409 189.5 437 c 128,-1,2
 227 465 227 465 278 479.5 c 128,-1,3
 329 494 329 494 384 493.5 c 128,-1,4
 439 493 439 493 484 479 c 128,-1,5
 529 465 529 465 554.5 436.5 c 128,-1,6
 580 408 580 408 571 366 c 2,7,-1
 518 114 l 2,8,9
 509 72 509 72 471 43.5 c 128,-1,10
 433 15 433 15 382.5 1 c 128,-1,11
 332 -13 332 -13 276.5 -13.5 c 128,-1,12
 221 -14 221 -14 176.5 0.5 c 128,-1,13
 132 15 132 15 106 43 c 128,-1,14
 80 71 80 71 89 114 c 2,15,-1
 143 366 l 2,0,1
536 352 m 2,16,17
 544 391 544 391 522.5 416.5 c 128,-1,18
 501 442 501 442 463 455 c 128,-1,19
 425 468 425 468 378 468 c 128,-1,20
 331 468 331 468 287.5 455 c 128,-1,21
 244 442 244 442 211 416 c 128,-1,22
 178 390 178 390 170 352 c 2,23,-1
 122 127 l 2,24,25
 114 88 114 88 136 62.5 c 128,-1,26
 158 37 158 37 196 24 c 128,-1,27
 234 11 234 11 281 11.5 c 128,-1,28
 328 12 328 12 371.5 24.5 c 128,-1,29
 415 37 415 37 447.5 63 c 128,-1,30
 480 89 480 89 488 127 c 2,31,-1
 536 352 l 2,16,17
289 367 m 0,32,33
 266 355 266 355 249.5 337 c 128,-1,34
 233 319 233 319 228 298 c 2,35,-1
 203 180 l 2,36,37
 198 159 198 159 207.5 141 c 128,-1,38
 217 123 217 123 234 111 c 0,39,40
 250 100 250 100 277 95 c 128,-1,41
 304 90 304 90 332.5 94 c 128,-1,42
 361 98 361 98 387 111 c 128,-1,43
 413 124 413 124 428 149 c 1,44,-1
 452 138 l 1,45,46
 431 109 431 109 398 93 c 128,-1,47
 365 77 365 77 330 72.5 c 128,-1,48
 295 68 295 68 262 73.5 c 128,-1,49
 229 79 229 79 208 93 c 0,50,51
 189 106 189 106 177 124.5 c 128,-1,52
 165 143 165 143 170 167 c 2,53,-1
 201 311 l 2,54,55
 206 335 206 335 226 353.5 c 128,-1,56
 246 372 246 372 270 385 c 0,57,58
 297 399 297 399 332 404.5 c 128,-1,59
 367 410 367 410 400.5 405.5 c 128,-1,60
 434 401 434 401 460.5 385 c 128,-1,61
 487 369 487 369 495 340 c 1,62,-1
 466 329 l 1,63,64
 461 354 461 354 440.5 367 c 128,-1,65
 420 380 420 380 393.5 384 c 128,-1,66
 367 388 367 388 338.5 383 c 128,-1,67
 310 378 310 378 289 367 c 0,32,33
EndSplineSet
EndChar
StartChar: ordfeminine
Encoding: 170 170 109
Width: 252
Flags: W
Fore
254 323 m 1,0,1
 240 314 240 314 228 307.5 c 128,-1,2
 216 301 216 301 200 299 c 0,3,4
 152 291 152 291 129 283 c 128,-1,5
 106 275 106 275 100 247 c 0,6,7
 98 239 98 239 100 232.5 c 128,-1,8
 102 226 102 226 106.5 222 c 128,-1,9
 111 218 111 218 116.5 215.5 c 128,-1,10
 122 213 122 213 127 212 c 0,11,12
 148 209 148 209 166 212 c 128,-1,13
 184 215 184 215 198 221 c 128,-1,14
 212 227 212 227 222 234 c 128,-1,15
 232 241 232 241 238 245 c 1,16,-1
 238 247 l 1,17,-1
 254 322 l 1,18,-1
 254 323 l 1,0,1
248 192 m 1,19,20
 231 199 231 199 233 219 c 1,21,22
 226 214 226 214 214 208 c 128,-1,23
 202 202 202 202 186.5 197 c 128,-1,24
 171 192 171 192 153 189.5 c 128,-1,25
 135 187 135 187 117 191 c 0,26,27
 94 196 94 196 83.5 211 c 128,-1,28
 73 226 73 226 78 252 c 0,29,30
 82 273 82 273 95.5 285 c 128,-1,31
 109 297 109 297 127 303.5 c 128,-1,32
 145 310 145 310 166 313 c 128,-1,33
 187 316 187 316 205 320 c 0,34,35
 211 321 211 321 219.5 324 c 128,-1,36
 228 327 228 327 236.5 332 c 128,-1,37
 245 337 245 337 251.5 343 c 128,-1,38
 258 349 258 349 260 356 c 0,39,40
 265 374 265 374 246 390 c 0,41,42
 237 399 237 399 221 401.5 c 128,-1,43
 205 404 205 404 186.5 402.5 c 128,-1,44
 168 401 168 401 149 395.5 c 128,-1,45
 130 390 130 390 114 383 c 1,46,-1
 122 407 l 1,47,48
 157 423 157 423 196 423 c 128,-1,49
 235 423 235 423 261 409 c 0,50,51
 275 403 275 403 281 388 c 128,-1,52
 287 373 287 373 283 355 c 2,53,-1
 258 239 l 2,54,55
 256 229 256 229 256 221 c 128,-1,56
 256 213 256 213 266 205 c 1,57,58
 261 200 261 200 256.5 197 c 128,-1,59
 252 194 252 194 248 192 c 1,19,20
EndSplineSet
EndChar
StartChar: guillemotleft
Encoding: 171 171 110
Width: 442
Flags: W
Fore
240 22 m 1,0,1
 226 50 226 50 203.5 75.5 c 128,-1,2
 181 101 181 101 155 121 c 128,-1,3
 129 141 129 141 101.5 156 c 128,-1,4
 74 171 74 171 49 179 c 1,5,6
 77 189 77 189 110.5 204 c 128,-1,7
 144 219 144 219 178 239 c 128,-1,8
 212 259 212 259 245 284 c 128,-1,9
 278 309 278 309 307 338 c 1,10,-1
 299 299 l 1,11,12
 257 263 257 263 207 230 c 128,-1,13
 157 197 157 197 106 181 c 1,14,15
 149 167 149 167 185.5 134 c 128,-1,16
 222 101 222 101 248 60 c 1,17,-1
 240 22 l 1,0,1
393 22 m 1,18,19
 379 50 379 50 356.5 75.5 c 128,-1,20
 334 101 334 101 308 121 c 128,-1,21
 282 141 282 141 254.5 156 c 128,-1,22
 227 171 227 171 202 179 c 1,23,24
 231 189 231 189 264 204 c 128,-1,25
 297 219 297 219 331 239 c 128,-1,26
 365 259 365 259 398 284 c 128,-1,27
 431 309 431 309 460 338 c 1,28,-1
 452 299 l 1,29,30
 410 263 410 263 360 230 c 128,-1,31
 310 197 310 197 259 181 c 1,32,33
 302 167 302 167 338.5 134 c 128,-1,34
 375 101 375 101 401 60 c 1,35,-1
 393 22 l 1,18,19
EndSplineSet
EndChar
StartChar: logicalnot
Encoding: 172 172 111
Width: 429
Flags: W
Fore
387 93 m 1,0,-1
 421 252 l 1,1,-1
 77 252 l 1,2,-1
 83 278 l 1,3,-1
 453 278 l 1,4,-1
 413 93 l 1,5,-1
 387 93 l 1,0,-1
EndSplineSet
EndChar
StartChar: registered
Encoding: 174 174 112
Width: 367
Flags: W
Fore
104 369 m 0,0,1
 113 411 113 411 142 439 c 128,-1,2
 171 467 171 467 208.5 481 c 128,-1,3
 246 495 246 495 286 495 c 128,-1,4
 326 495 326 495 357.5 481 c 128,-1,5
 389 467 389 467 406 439 c 128,-1,6
 423 411 423 411 414 369 c 2,7,-1
 392 265 l 2,8,9
 383 223 383 223 354.5 195 c 128,-1,10
 326 167 326 167 289 153 c 128,-1,11
 252 139 252 139 212 139 c 128,-1,12
 172 139 172 139 141 153 c 128,-1,13
 110 167 110 167 93 195 c 128,-1,14
 76 223 76 223 84 265 c 0,15,16
 88 288 88 288 93.5 317 c 128,-1,17
 99 346 99 346 104 369 c 0,0,1
131 364 m 0,18,19
 130 359 130 359 127 346.5 c 128,-1,20
 124 334 124 334 121 319 c 128,-1,21
 118 304 118 304 115 290.5 c 128,-1,22
 112 277 112 277 111 271 c 0,23,24
 103 236 103 236 117 212 c 128,-1,25
 131 188 131 188 156.5 176 c 128,-1,26
 182 164 182 164 215 163.5 c 128,-1,27
 248 163 248 163 278.5 174 c 128,-1,28
 309 185 309 185 332.5 208.5 c 128,-1,29
 356 232 356 232 364 267 c 0,30,31
 367 282 367 282 369 290.5 c 128,-1,32
 371 299 371 299 373 308 c 128,-1,33
 375 317 375 317 377.5 329.5 c 128,-1,34
 380 342 380 342 385 365 c 0,35,36
 393 401 393 401 379.5 425.5 c 128,-1,37
 366 450 366 450 340.5 462 c 128,-1,38
 315 474 315 474 282 474 c 128,-1,39
 249 474 249 474 218.5 462 c 128,-1,40
 188 450 188 450 163.5 425.5 c 128,-1,41
 139 401 139 401 131 364 c 0,18,19
282 318 m 1,42,43
 324 329 324 329 333 367 c 0,44,45
 337 388 337 388 332 400 c 128,-1,46
 327 412 327 412 317.5 418 c 128,-1,47
 308 424 308 424 296 426 c 128,-1,48
 284 428 284 428 274 428 c 2,49,-1
 206 428 l 1,50,-1
 159 207 l 1,51,-1
 182 207 l 1,52,-1
 204 309 l 1,53,-1
 223 309 l 2,54,55
 236 309 236 309 250 307 c 128,-1,56
 264 305 264 305 274 299 c 128,-1,57
 284 293 284 293 288.5 280 c 128,-1,58
 293 267 293 267 288 245 c 2,59,-1
 279 207 l 1,60,-1
 301 207 l 1,61,-1
 310 246 l 2,62,63
 317 278 317 278 308 294.5 c 128,-1,64
 299 311 299 311 282 318 c 1,42,43
225 408 m 1,65,-1
 271 408 l 2,66,67
 289 408 289 408 302.5 400.5 c 128,-1,68
 316 393 316 393 311 367 c 0,69,70
 307 347 307 347 290.5 342 c 128,-1,71
 274 337 274 337 254 335 c 2,72,-1
 210 335 l 1,73,74
 214 351 214 351 216 360 c 128,-1,75
 218 369 218 369 219 375.5 c 128,-1,76
 220 382 220 382 221.5 389 c 128,-1,77
 223 396 223 396 225 408 c 1,65,-1
EndSplineSet
EndChar
StartChar: macron
Encoding: 175 175 113
Width: 216
Flags: W
Fore
114 426 m 1,0,-1
 120 454 l 1,1,-1
 278 454 l 1,2,-1
 272 426 l 1,3,-1
 114 426 l 1,0,-1
EndSplineSet
EndChar
StartChar: degree
Encoding: 176 176 114
Width: 182
Flags: W
Fore
195 490 m 2,0,1
 220 490 220 490 234.5 473 c 128,-1,2
 249 456 249 456 244 432 c 256,3,4
 239 408 239 408 217 391 c 128,-1,5
 195 374 195 374 169 374 c 2,6,-1
 168 374 l 2,7,8
 142 374 142 374 127 391 c 128,-1,9
 112 408 112 408 117 432 c 0,10,11
 122 457 122 457 145 473.5 c 128,-1,12
 168 490 168 490 194 490 c 2,13,-1
 195 490 l 2,0,1
174 391 m 2,14,15
 181 391 181 391 188.5 395 c 128,-1,16
 196 399 196 399 203 405 c 128,-1,17
 210 411 210 411 214.5 418.5 c 128,-1,18
 219 426 219 426 220 432 c 0,19,20
 223 444 223 444 214 458 c 128,-1,21
 205 472 205 472 191 474 c 1,22,-1
 190 474 l 2,23,24
 173 474 173 474 159 459 c 128,-1,25
 145 444 145 444 142 432 c 0,26,27
 140 421 140 421 149 406.5 c 128,-1,28
 158 392 158 392 173 391 c 2,29,-1
 174 391 l 2,14,15
EndSplineSet
EndChar
StartChar: plusminus
Encoding: 177 177 115
Width: 429
Flags: W
Fore
269 228 m 1,0,-1
 236 75 l 1,1,-1
 206 75 l 1,2,-1
 239 228 l 1,3,-1
 72 228 l 1,4,-1
 79 260 l 1,5,-1
 246 260 l 1,6,-1
 277 408 l 1,7,-1
 307 408 l 1,8,-1
 276 260 l 1,9,-1
 449 260 l 1,10,-1
 442 228 l 1,11,-1
 269 228 l 1,0,-1
28 0 m 1,12,-1
 30 33 l 1,13,-1
 401 33 l 1,14,-1
 399 0 l 1,15,-1
 28 0 l 1,12,-1
EndSplineSet
EndChar
StartChar: twosuperior
Encoding: 178 178 116
Width: 259
Flags: W
Fore
73 212 m 1,0,1
 84 221 84 221 102 236.5 c 128,-1,2
 120 252 120 252 139.5 268.5 c 128,-1,3
 159 285 159 285 175.5 299 c 128,-1,4
 192 313 192 313 200 320 c 0,5,6
 215 334 215 334 228.5 347.5 c 128,-1,7
 242 361 242 361 255 374 c 0,8,9
 279 399 279 399 277 419 c 128,-1,10
 275 439 275 439 264 445 c 256,11,12
 253 451 253 451 240.5 451 c 128,-1,13
 228 451 228 451 221 451 c 0,14,15
 203 451 203 451 177.5 438.5 c 128,-1,16
 152 426 152 426 127 409 c 1,17,-1
 134 438 l 1,18,19
 165 460 165 460 187.5 469 c 128,-1,20
 210 478 210 478 230 478 c 0,21,22
 268 478 268 478 289.5 464 c 128,-1,23
 311 450 311 450 304 414 c 0,24,25
 303 408 303 408 300.5 399.5 c 128,-1,26
 298 391 298 391 292 380.5 c 128,-1,27
 286 370 286 370 274.5 357 c 128,-1,28
 263 344 263 344 245 327 c 0,29,30
 240 322 240 322 228.5 312 c 128,-1,31
 217 302 217 302 202 289 c 128,-1,32
 187 276 187 276 171.5 262.5 c 128,-1,33
 156 249 156 249 142.5 238 c 128,-1,34
 129 227 129 227 120 219.5 c 128,-1,35
 111 212 111 212 110 212 c 1,36,37
 126 213 126 213 147.5 213 c 128,-1,38
 190.5 213 l 128,-1,39
 212 213 212 213 230 212.5 c 128,-1,40
 248 212 248 212 257 212 c 1,41,-1
 251 187 l 1,42,-1
 67 187 l 1,43,-1
 73 212 l 1,0,1
EndSplineSet
EndChar
StartChar: threesuperior
Encoding: 179 179 117
Width: 257
Flags: W
Fore
147 356 m 1,0,1
 155 356 155 356 159.5 356.5 c 128,-1,2
 164 357 164 357 166 357 c 0,3,4
 183 357 183 357 198 361 c 128,-1,5
 213 365 213 365 224 370 c 0,6,7
 250 381 250 381 260.5 401 c 128,-1,8
 271 421 271 421 260 437 c 0,9,10
 254 447 254 447 235.5 449.5 c 128,-1,11
 217 452 217 452 199 452 c 0,12,13
 179 451 179 451 165 447 c 128,-1,14
 151 443 151 443 133 438 c 1,15,-1
 141 466 l 1,16,17
 162 470 162 470 175.5 473 c 128,-1,18
 189 476 189 476 202 477 c 0,19,20
 218 477 218 477 231.5 476 c 128,-1,21
 245 475 245 475 256 471 c 0,22,23
 274 463 274 463 284 452 c 128,-1,24
 294 441 294 441 292 417 c 0,25,26
 289 385 289 385 266 367.5 c 128,-1,27
 243 350 243 350 205 343 c 1,28,-1
 205 342 l 1,29,30
 243 342 243 342 259 326 c 0,31,32
 277 306 277 306 274.5 281 c 128,-1,33
 272 256 272 256 254.5 234 c 128,-1,34
 237 212 237 212 207.5 198 c 128,-1,35
 178 184 178 184 141 187 c 0,36,37
 136 187 136 187 128 187.5 c 128,-1,38
 120 188 120 188 110.5 189.5 c 128,-1,39
 101 191 101 191 92 193.5 c 128,-1,40
 83 196 83 196 78 199 c 1,41,-1
 82 226 l 1,42,43
 99 218 99 218 113.5 213 c 128,-1,44
 128 208 128 208 149 210 c 2,45,46
 169 209 169 209 186.5 214.5 c 128,-1,47
 204 220 204 220 217 229 c 128,-1,48
 230 238 230 238 238 249.5 c 128,-1,49
 246 261 246 261 247 273 c 0,50,51
 248 290 248 290 240 301 c 128,-1,52
 232 312 232 312 218 318.5 c 128,-1,53
 204 325 204 325 185 327.5 c 128,-1,54
 166 330 166 330 144 329 c 1,55,-1
 147 356 l 1,56,-1
 147 356 l 1,0,1
EndSplineSet
EndChar
StartChar: acute
Encoding: 180 180 118
Width: 212
Flags: W
Fore
170 353 m 1,0,-1
 140 353 l 1,1,-1
 200 494 l 1,2,-1
 250 494 l 1,3,-1
 170 353 l 1,4,-1
 170 353 l 1,0,-1
EndSplineSet
EndChar
StartChar: mu
Encoding: 956 181 119
AltUni: 956
Width: 422
Flags: W
Fore
324 0 m 1,0,-1
 331 67 l 1,1,2
 308 41 308 41 270 19 c 128,-1,3
 232 -3 232 -3 186 -3 c 0,4,5
 178 -3 178 -3 166.5 -1.5 c 128,-1,6
 155 0 155 0 143.5 5 c 128,-1,7
 132 10 132 10 121 20.5 c 128,-1,8
 110 31 110 31 102 49 c 1,9,-1
 58 -168 l 1,10,-1
 34 -168 l 1,11,-1
 139 347 l 1,12,-1
 165 347 l 1,13,-1
 123 149 l 2,14,15
 118 125 118 125 118.5 102 c 128,-1,16
 119 79 119 79 127.5 61.5 c 128,-1,17
 136 44 136 44 153.5 33 c 128,-1,18
 171 22 171 22 200 22 c 0,19,20
 222 22 222 22 245.5 32 c 128,-1,21
 269 42 269 42 289 58 c 128,-1,22
 309 74 309 74 323.5 94.5 c 128,-1,23
 338 115 338 115 342 136 c 2,24,-1
 387 347 l 1,25,-1
 415 347 l 1,26,-1
 360 85 l 2,27,28
 355 64 355 64 351.5 42.5 c 128,-1,29
 348 21 348 21 349 0 c 1,30,-1
 324 0 l 1,0,-1
EndSplineSet
EndChar
StartChar: paragraph
Encoding: 182 182 120
Width: 382
Flags: W
Fore
424 486 m 1,0,-1
 313 -35 l 1,1,-1
 286 -35 l 1,2,-1
 390 452 l 1,3,-1
 313 452 l 1,4,-1
 209 -35 l 1,5,-1
 181 -35 l 1,6,-1
 237 228 l 1,7,8
 205 211 205 211 175 208 c 128,-1,9
 145 205 145 205 123 219 c 0,10,11
 106 231 106 231 99.5 251.5 c 128,-1,12
 93 272 93 272 95.5 296.5 c 128,-1,13
 98 321 98 321 110.5 348.5 c 128,-1,14
 123 376 123 376 144 402 c 0,15,16
 177 444 177 444 217 465.5 c 128,-1,17
 257 487 257 487 292 485 c 1,18,-1
 292 486 l 1,19,-1
 424 486 l 1,0,-1
EndSplineSet
EndChar
StartChar: periodcentered
Encoding: 183 183 121
Width: 230
Flags: W
Fore
225 236 m 0,0,1
 219 209 219 209 196 190.5 c 128,-1,2
 173 172 173 172 146 172 c 0,3,4
 120 172 120 172 104.5 190.5 c 128,-1,5
 89 209 89 209 96 236 c 0,6,7
 101 263 101 263 124 282 c 128,-1,8
 147 301 147 301 173 301 c 0,9,10
 200 301 200 301 215 282 c 128,-1,11
 230 263 230 263 225 236 c 0,0,1
EndSplineSet
EndChar
StartChar: cedilla
Encoding: 184 184 122
Width: 214
Flags: W
Fore
137 -65 m 0,0,1
 139 -87 139 -87 118.5 -107 c 128,-1,2
 98 -127 98 -127 68 -135 c 0,3,4
 37 -144 37 -144 14 -131 c 1,5,-1
 23 -112 l 1,6,7
 30 -117 30 -117 43 -116 c 128,-1,8
 56 -115 56 -115 67 -112 c 0,9,10
 74 -110 74 -110 83.5 -106 c 128,-1,11
 93 -102 93 -102 101 -96.5 c 128,-1,12
 109 -91 109 -91 114 -84.5 c 128,-1,13
 119 -78 119 -78 119 -71 c 1,14,15
 120 -64 120 -64 114 -60 c 128,-1,16
 108 -56 108 -56 99.5 -54.5 c 128,-1,17
 91 -53 91 -53 81 -54 c 128,-1,18
 71 -55 71 -55 63 -56 c 1,19,20
 58 -58 58 -58 51.5 -60.5 c 128,-1,21
 45 -63 45 -63 39 -66 c 1,22,-1
 40 -65 l 1,23,-1
 39 -66 l 1,24,-1
 40 -65 l 1,25,-1
 41 -63 l 1,26,-1
 45 -60 l 1,27,-1
 100 0 l 1,28,-1
 121 1 l 1,29,-1
 85 -36 l 1,30,31
 106 -34 106 -34 120.5 -41.5 c 128,-1,32
 135 -49 135 -49 137 -65 c 0,0,1
EndSplineSet
EndChar
StartChar: onesuperior
Encoding: 185 185 123
Width: 165
Flags: W
Fore
179 452 m 1,0,-1
 146 435 l 1,1,-1
 150 452 l 1,2,-1
 188 471 l 1,3,-1
 204 471 l 1,4,-1
 144 191 l 1,5,-1
 121 191 l 1,6,-1
 179 452 l 1,7,-1
 179 452 l 1,0,-1
EndSplineSet
EndChar
StartChar: ordmasculine
Encoding: 186 186 124
Width: 252
Flags: W
Fore
86 339 m 0,0,1
 92 367 92 367 111.5 386 c 128,-1,2
 131 405 131 405 156.5 414.5 c 128,-1,3
 182 424 182 424 209 424 c 128,-1,4
 236 424 236 424 257.5 414.5 c 128,-1,5
 279 405 279 405 290.5 386 c 128,-1,6
 302 367 302 367 296 339 c 2,7,-1
 280 268 l 2,8,9
 274 239 274 239 254.5 220.5 c 128,-1,10
 235 202 235 202 210.5 192 c 128,-1,11
 186 182 186 182 159 182 c 128,-1,12
 132 182 132 182 111 191.5 c 128,-1,13
 90 201 90 201 78.5 220.5 c 128,-1,14
 67 240 67 240 72 268 c 0,15,16
 75 283 75 283 78.5 303 c 128,-1,17
 82 323 82 323 86 339 c 0,0,1
106 328 m 1,18,19
 106 325 106 325 104.5 318 c 128,-1,20
 103 311 103 311 101.5 303.5 c 128,-1,21
 98.5 288.5 l 128,-1,22
 97 281 97 281 96 277 c 0,23,24
 90 252 90 252 98.5 235.5 c 128,-1,25
 107 219 107 219 123.5 211 c 128,-1,26
 140 203 140 203 161 203 c 128,-1,27
 182 203 182 203 202 211.5 c 128,-1,28
 222 220 222 220 238 236 c 128,-1,29
 254 252 254 252 259 277 c 0,30,31
 262 287 262 287 262.5 290.5 c 128,-1,32
 263 294 263 294 263.5 297 c 128,-1,33
 264 300 264 300 265.5 306 c 128,-1,34
 267 312 267 312 270 328 c 0,35,36
 275 354 275 354 266.5 371 c 128,-1,37
 258 388 258 388 241.5 396.5 c 128,-1,38
 225 405 225 405 204 405 c 128,-1,39
 183 405 183 405 163 396.5 c 128,-1,40
 143 388 143 388 127.5 371 c 128,-1,41
 112 354 112 354 106 328 c 1,18,19
EndSplineSet
EndChar
StartChar: guillemotright
Encoding: 187 187 125
Width: 295
Flags: W
Fore
166 49 m 1,0,-1
 124 49 l 1,1,-1
 264 181 l 1,2,3
 244 213 244 213 221.5 248 c 128,-1,4
 199 283 199 283 179 315 c 1,5,-1
 222 315 l 1,6,-1
 308 181 l 1,7,-1
 166 49 l 1,0,-1
59 49 m 1,8,-1
 17 49 l 1,9,-1
 157 181 l 1,10,11
 137 213 137 213 115 248 c 128,-1,12
 93 283 93 283 73 315 c 1,13,-1
 116 315 l 1,14,-1
 201 181 l 1,15,-1
 59 49 l 1,8,-1
EndSplineSet
EndChar
StartChar: onequarter
Encoding: 188 188 126
Width: 547
Flags: W
Fore
185 451 m 1,0,-1
 153 434 l 1,1,-1
 156 451 l 1,2,-1
 193 470 l 1,3,-1
 210 470 l 1,4,-1
 151 190 l 1,5,-1
 128 190 l 1,6,-1
 185 451 l 1,0,-1
499 475 m 1,7,-1
 105 -10 l 1,8,-1
 80 -10 l 1,9,-1
 473 475 l 1,10,-1
 499 475 l 1,7,-1
510 80 m 1,11,-1
 477 80 l 1,12,13
 475 75 475 75 470 51 c 128,-1,14
 465 27 465 27 460 2 c 1,15,-1
 438 2 l 1,16,17
 443 24 443 24 445 35.5 c 128,-1,18
 447 47 447 47 448.5 53.5 c 128,-1,19
 450 60 450 60 451 65 c 128,-1,20
 452 70 452 70 455 80 c 1,21,-1
 326 80 l 1,22,-1
 329 95 l 1,23,24
 373 146 373 146 415 194 c 128,-1,25
 457 242 457 242 490 282 c 1,26,-1
 520 282 l 1,27,28
 515 259 515 259 509 232.5 c 128,-1,29
 503 206 503 206 497.5 180.5 c 128,-1,30
 492 155 492 155 487.5 134 c 128,-1,31
 483 113 483 113 481 101 c 1,32,-1
 514 101 l 1,33,-1
 510 80 l 1,11,-1
459 101 m 1,34,35
 467 139 467 139 477 181.5 c 128,-1,36
 487 224 487 224 494 259 c 1,37,-1
 357 101 l 1,38,-1
 459 101 l 1,34,35
EndSplineSet
Ligature: 0 0 'frac' one fraction four
Ligature: 0 0 'frac' one slash four
EndChar
StartChar: onehalf
Encoding: 189 189 127
Width: 603
Flags: W
Fore
190 440 m 1,0,-1
 158 423 l 1,1,-1
 162 440 l 1,2,-1
 198 459 l 1,3,-1
 216 459 l 1,4,-1
 157 179 l 1,5,-1
 134 179 l 1,6,-1
 190 440 l 1,0,-1
505 464 m 1,7,-1
 111 -21 l 1,8,-1
 86 -21 l 1,9,-1
 479 464 l 1,10,-1
 505 464 l 1,7,-1
346 27 m 1,11,12
 358 36 358 36 376.5 51.5 c 128,-1,13
 395 67 395 67 414 83.5 c 128,-1,14
 433 100 433 100 449.5 114 c 128,-1,15
 466 128 466 128 474 135 c 0,16,17
 490 149 490 149 503.5 162.5 c 128,-1,18
 517 176 517 176 530 189 c 0,19,20
 554 214 554 214 552 234 c 128,-1,21
 550 254 550 254 539 260 c 256,22,23
 528 266 528 266 515.5 266 c 128,-1,24
 503 266 503 266 496 266 c 0,25,26
 478 266 478 266 452 253.5 c 128,-1,27
 426 241 426 241 401 224 c 1,28,-1
 407 253 l 1,29,30
 438 275 438 275 461.5 284 c 128,-1,31
 485 293 485 293 505 293 c 0,32,33
 543 293 543 293 564 279 c 128,-1,34
 585 265 585 265 579 229 c 0,35,36
 578 223 578 223 575.5 214.5 c 128,-1,37
 573 206 573 206 566.5 195.5 c 128,-1,38
 560 185 560 185 549 172 c 128,-1,39
 538 159 538 159 520 142 c 0,40,41
 515 137 515 137 503.5 127 c 128,-1,42
 492 117 492 117 477 104 c 128,-1,43
 462 91 462 91 446 77.5 c 128,-1,44
 430 64 430 64 416.5 53 c 128,-1,45
 403 42 403 42 394 34.5 c 128,-1,46
 385 27 385 27 384 27 c 1,47,48
 400 28 400 28 422 28 c 128,-1,49
 444 28 444 28 465 28 c 128,-1,50
 486 28 486 28 504 27.5 c 128,-1,51
 522 27 522 27 531 27 c 1,52,-1
 526 2 l 1,53,-1
 341 2 l 1,54,-1
 346 27 l 1,11,12
EndSplineSet
Ligature: 0 0 'frac' one fraction two
Ligature: 0 0 'frac' one slash two
EndChar
StartChar: threequarters
Encoding: 190 190 128
Width: 547
Flags: W
Fore
547 475 m 1,0,-1
 153 -10 l 1,1,-1
 128 -10 l 1,2,-1
 521 475 l 1,3,-1
 547 475 l 1,0,-1
510 80 m 1,4,-1
 477 80 l 1,5,6
 475 75 475 75 470 51 c 128,-1,7
 465 27 465 27 460 2 c 1,8,-1
 438 2 l 1,9,10
 443 24 443 24 445 35.5 c 128,-1,11
 447 47 447 47 448.5 53.5 c 128,-1,12
 450 60 450 60 451 65 c 128,-1,13
 452 70 452 70 455 80 c 1,14,-1
 326 80 l 1,15,-1
 329 95 l 1,16,17
 373 146 373 146 415 194 c 128,-1,18
 457 242 457 242 490 282 c 1,19,-1
 520 282 l 1,20,21
 515 259 515 259 509 232.5 c 128,-1,22
 503 206 503 206 497.5 180.5 c 128,-1,23
 492 155 492 155 487.5 134 c 128,-1,24
 483 113 483 113 481 101 c 1,25,-1
 514 101 l 1,26,-1
 510 80 l 1,4,-1
459 101 m 1,27,28
 467 139 467 139 477 181.5 c 128,-1,29
 487 224 487 224 494 259 c 1,30,-1
 357 101 l 1,31,-1
 459 101 l 1,27,28
151 356 m 1,32,33
 159 356 159 356 164 356.5 c 128,-1,34
 169 357 169 357 171 357 c 0,35,36
 206 357 206 357 229 367 c 0,37,38
 242 372 242 372 251.5 381 c 128,-1,39
 261 390 261 390 266 399.5 c 128,-1,40
 271 409 271 409 271.5 419 c 128,-1,41
 272 429 272 429 267 437 c 0,42,43
 261 447 261 447 241.5 449.5 c 128,-1,44
 222 452 222 452 204 452 c 0,45,46
 184 451 184 451 170 447 c 128,-1,47
 156 443 156 443 138 438 c 1,48,-1
 146 466 l 1,49,50
 167 470 167 470 180.5 473 c 128,-1,51
 194 476 194 476 207 477 c 0,52,53
 223 477 223 477 236.5 476 c 128,-1,54
 250 475 250 475 261 471 c 0,55,56
 279 463 279 463 289 452 c 128,-1,57
 299 441 299 441 297 417 c 0,58,59
 294 385 294 385 271 367.5 c 128,-1,60
 248 350 248 350 210 343 c 1,61,-1
 210 342 l 1,62,63
 248 342 248 342 264 326 c 0,64,65
 282 306 282 306 279.5 281 c 128,-1,66
 277 256 277 256 259.5 234 c 128,-1,67
 242 212 242 212 212.5 198 c 128,-1,68
 183 184 183 184 146 187 c 0,69,70
 141 187 141 187 133 187.5 c 128,-1,71
 125 188 125 188 115.5 189.5 c 128,-1,72
 106 191 106 191 97 193.5 c 128,-1,73
 88 196 88 196 82 199 c 1,74,-1
 85 220 l 1,75,76
 103 212 103 212 117.5 209 c 128,-1,77
 132 206 132 206 154 208 c 2,78,79
 172 206 172 206 188.5 210.5 c 128,-1,80
 205 215 205 215 218.5 224.5 c 128,-1,81
 232 234 232 234 241.5 246.5 c 128,-1,82
 251 259 251 259 254 273 c 0,83,84
 257 290 257 290 248.5 301 c 128,-1,85
 240 312 240 312 224.5 318 c 128,-1,86
 209 324 209 324 188 326 c 128,-1,87
 167 328 167 328 145 327 c 1,88,-1
 151 356 l 1,32,33
EndSplineSet
Ligature: 0 0 'frac' three fraction four
Ligature: 0 0 'frac' three slash four
EndChar
StartChar: questiondown
Encoding: 191 191 129
Width: 371
Flags: W
Fore
201 -23 m 0,0,1
 217 8 217 8 242 27.5 c 128,-1,2
 267 47 267 47 287 41 c 0,3,4
 308 35 308 35 311.5 8 c 128,-1,5
 315 -19 315 -19 299 -52 c 0,6,7
 294 -61 294 -61 288 -70 c 128,-1,8
 282 -79 282 -79 275 -87 c 0,9,10
 256 -110 256 -110 229.5 -126.5 c 128,-1,11
 203 -143 203 -143 175 -148 c 0,12,13
 126 -159 126 -159 94 -140.5 c 128,-1,14
 62 -122 62 -122 51.5 -88 c 128,-1,15
 41 -54 41 -54 54 -12.5 c 128,-1,16
 67 29 67 29 107 65 c 0,17,18
 111 68 111 68 123.5 75.5 c 128,-1,19
 136 83 136 83 150.5 94 c 128,-1,20
 165 105 165 105 179.5 118 c 128,-1,21
 194 131 194 131 202 145 c 0,22,23
 211 160 211 160 216 173.5 c 128,-1,24
 221 187 221 187 224 198 c 0,25,26
 228 210 228 210 229 220 c 1,27,-1
 255 219 l 1,28,29
 255 209 255 209 251 197 c 0,30,31
 248 186 248 186 242.5 171 c 128,-1,32
 237 156 237 156 226 136 c 0,33,34
 218 122 218 122 203 107.5 c 128,-1,35
 188 93 188 93 172 81 c 0,36,37
 154 67 154 67 133 53 c 0,38,39
 100 28 100 28 85 -4.5 c 128,-1,40
 70 -37 70 -37 73.5 -65.5 c 128,-1,41
 77 -94 77 -94 98.5 -112 c 128,-1,42
 120 -130 120 -130 160 -126 c 0,43,44
 180 -124 180 -124 206 -112 c 1,45,46
 190 -103 190 -103 188 -78 c 128,-1,47
 186 -53 186 -53 201 -23 c 0,0,1
277 -45 m 0,48,49
 281 -36 281 -36 284 -25 c 128,-1,50
 287 -14 287 -14 288 -4 c 128,-1,51
 289 6 289 6 287 14 c 128,-1,52
 285 22 285 22 279 24 c 0,53,54
 272 26 272 26 264 21.5 c 128,-1,55
 256 17 256 17 248.5 8.5 c 128,-1,56
 241 0 241 0 234 -10 c 128,-1,57
 227 -20 227 -20 223 -29 c 0,58,59
 218 -38 218 -38 215 -49 c 128,-1,60
 212 -60 212 -60 211 -70.5 c 128,-1,61
 210 -81 210 -81 212.5 -88.5 c 128,-1,62
 215 -96 215 -96 221 -99 c 1,63,64
 228 -101 228 -101 236 -96 c 128,-1,65
 244 -91 244 -91 251.5 -82.5 c 128,-1,66
 259 -74 259 -74 265.5 -64 c 128,-1,67
 272 -54 272 -54 277 -45 c 0,48,49
251 263 m 1,68,69
 239 262 239 262 233 273.5 c 128,-1,70
 227 285 227 285 231 302 c 0,71,72
 234 318 234 318 245 329.5 c 128,-1,73
 256 341 256 341 268 341 c 0,74,75
 281 341 281 341 287 329.5 c 128,-1,76
 293 318 293 318 289 302 c 0,77,78
 285 285 285 285 274 273.5 c 128,-1,79
 263 262 263 262 251 263 c 1,68,69
EndSplineSet
EndChar
StartChar: Aring
Encoding: 197 197 134
Width: 461
Flags: W
Fore
415 1 m 1,0,-1
 384 1 l 1,1,-1
 376 157 l 1,2,-1
 145 157 l 1,3,-1
 71 1 l 1,4,-1
 40 1 l 1,5,-1
 212 372 l 2,6,7
 228 410 228 410 247.5 441.5 c 128,-1,8
 267 473 267 473 299 487 c 1,9,10
 286 498 286 498 282 517.5 c 128,-1,11
 278 537 278 537 284 560 c 0,12,13
 293 593 293 593 315 615 c 128,-1,14
 337 637 337 637 362 636 c 0,15,16
 386 635 386 635 397.5 611 c 128,-1,17
 409 587 409 587 399 554 c 0,18,19
 394 533 394 533 382.5 516.5 c 128,-1,20
 371 500 371 500 356 489 c 1,21,22
 372 483 372 483 381 470 c 128,-1,23
 390 457 390 457 394.5 440.5 c 128,-1,24
 399 424 399 424 400 406 c 128,-1,25
 401 388 401 388 401 372 c 2,26,-1
 415 1 l 1,0,-1
356 618 m 0,27,28
 348 619 348 619 341 613 c 128,-1,29
 334 607 334 607 328 598 c 128,-1,30
 322 589 322 589 317.5 578.5 c 128,-1,31
 313 568 313 568 310 559 c 0,32,33
 308 550 308 550 307.5 539.5 c 128,-1,34
 307 529 307 529 308.5 519.5 c 128,-1,35
 310 510 310 510 314 503 c 128,-1,36
 318 496 318 496 326 495 c 0,37,38
 335 495 335 495 342.5 501 c 128,-1,39
 350 507 350 507 356.5 516 c 128,-1,40
 363 525 363 525 367.5 536 c 128,-1,41
 372 547 372 547 374 556 c 256,42,43
 376 565 376 565 376.5 575.5 c 128,-1,44
 377 586 377 586 375 595 c 128,-1,45
 373 604 373 604 368 610.5 c 128,-1,46
 363 617 363 617 356 618 c 0,27,28
375 184 m 1,47,-1
 367 355 l 2,48,49
 365 377 365 377 364.5 394 c 128,-1,50
 364 411 364 411 359 431 c 0,51,52
 356 449 356 449 346 456 c 128,-1,53
 336 463 336 463 323.5 462 c 128,-1,54
 311 461 311 461 298.5 452.5 c 128,-1,55
 286 444 286 444 278 429 c 0,56,57
 266 409 266 409 257.5 392.5 c 128,-1,58
 249 376 249 376 238 355 c 2,59,-1
 158 184 l 1,60,-1
 375 184 l 1,47,-1
EndSplineSet
EndChar
StartChar: AE
Encoding: 198 198 135
Width: 760
Flags: W
Fore
656 457 m 2,0,1
 630 457 630 457 604 452 c 128,-1,2
 578 447 578 447 555.5 433.5 c 128,-1,3
 533 420 533 420 515 396 c 128,-1,4
 497 372 497 372 486 333 c 2,5,-1
 466 243 l 1,6,-1
 672 243 l 1,7,-1
 666 216 l 1,8,-1
 460 216 l 1,9,-1
 451 171 l 2,10,11
 439 125 439 125 444 95.5 c 128,-1,12
 449 66 449 66 465.5 49.5 c 128,-1,13
 482 33 482 33 507.5 26 c 128,-1,14
 533 19 533 19 562 18 c 2,15,-1
 700 18 l 1,16,-1
 695 -7 l 1,17,-1
 559 -7 l 2,18,19
 512 -6 512 -6 475.5 3.5 c 128,-1,20
 439 13 439 13 422 46 c 1,21,-1
 411 -7 l 1,22,-1
 380 -7 l 1,23,-1
 412 149 l 1,24,-1
 181 149 l 1,25,-1
 67 -7 l 1,26,-1
 36 -7 l 1,27,-1
 304 364 l 2,28,29
 320 387 320 387 336.5 409.5 c 128,-1,30
 353 432 353 432 371.5 449.5 c 128,-1,31
 390 467 390 467 410 477.5 c 128,-1,32
 430 488 430 488 453 487 c 0,33,34
 482 485 482 485 492 467.5 c 128,-1,35
 502 450 502 450 501 427 c 1,36,37
 532 460 532 460 574 471 c 128,-1,38
 616 482 616 482 663 483 c 2,39,-1
 799 483 l 1,40,-1
 794 457 l 1,41,-1
 656 457 l 2,0,1
455 347 m 2,42,43
 459 369 459 369 462.5 386 c 128,-1,44
 466 403 466 403 466 423 c 0,45,46
 467 441 467 441 459.5 448 c 128,-1,47
 452 455 452 455 439 454 c 128,-1,48
 426 453 426 453 411.5 444.5 c 128,-1,49
 397 436 397 436 385 421 c 0,50,51
 368 401 368 401 355 384.5 c 128,-1,52
 342 368 342 368 326 347 c 2,53,-1
 201 176 l 1,54,-1
 418 176 l 1,55,-1
 455 347 l 2,42,43
EndSplineSet
EndChar
StartChar: Eth
Encoding: 208 208 145
Width: 466
Flags: W
Fore
170 486 m 1,0,1
 240 486 240 486 298.5 479 c 128,-1,2
 357 472 357 472 395.5 446.5 c 128,-1,3
 434 421 434 421 448.5 372.5 c 128,-1,4
 463 324 463 324 447 242 c 0,5,6
 425 144 425 144 385.5 93.5 c 128,-1,7
 346 43 346 43 295.5 21.5 c 128,-1,8
 245 0 245 0 186 -1.5 c 128,-1,9
 127 -3 127 -3 65 -3 c 1,10,-1
 113 223 l 1,11,-1
 46 223 l 1,12,-1
 52 250 l 1,13,-1
 119 250 l 1,14,-1
 170 486 l 1,0,1
100 22 m 1,15,16
 177 19 177 19 231.5 30 c 128,-1,17
 286 41 286 41 323 67.5 c 128,-1,18
 360 94 360 94 382 137.5 c 128,-1,19
 404 181 404 181 417 242 c 0,20,21
 429 299 429 299 423 341 c 128,-1,22
 417 383 417 383 390.5 410 c 128,-1,23
 364 437 364 437 315 449.5 c 128,-1,24
 266 462 266 462 193 461 c 1,25,-1
 149 250 l 1,26,-1
 292 250 l 1,27,-1
 286 223 l 1,28,-1
 143 223 l 1,29,-1
 100 22 l 1,15,16
EndSplineSet
EndChar
StartChar: multiply
Encoding: 215 215 152
Width: 429
Flags: W
Fore
374 0 m 1,0,-1
 243 164 l 1,1,2
 197 126 197 126 146 82.5 c 128,-1,3
 95 39 95 39 53 0 c 1,4,-1
 28 24 l 1,5,-1
 224 189 l 1,6,-1
 99 355 l 1,7,-1
 129 379 l 1,8,-1
 254 214 l 1,9,-1
 449 379 l 1,10,-1
 469 355 l 1,11,-1
 273 189 l 1,12,-1
 399 24 l 1,13,-1
 374 0 l 1,0,-1
EndSplineSet
EndChar
StartChar: Oslash
Encoding: 216 216 153
Width: 475
Flags: W
Fore
462 275 m 0,0,1
 456 235 456 235 447.5 201.5 c 128,-1,2
 439 168 439 168 424 136 c 0,3,4
 407 98 407 98 384 71 c 128,-1,5
 361 44 361 44 335.5 26.5 c 128,-1,6
 310 9 310 9 285 1.5 c 128,-1,7
 260 -6 260 -6 241 -5 c 0,8,9
 190 -3 190 -3 153 27 c 1,10,-1
 120 -21 l 1,11,-1
 88 -21 l 1,12,-1
 135 46 l 1,13,14
 115 71 115 71 108 108 c 128,-1,15
 101 145 101 145 109 194 c 0,16,17
 117 241 117 241 127.5 280 c 128,-1,18
 138 319 138 319 154 351 c 256,19,20
 170 383 170 383 189.5 408 c 128,-1,21
 209 433 209 433 232 450 c 0,22,23
 252 465 252 465 277.5 475.5 c 128,-1,24
 303 486 303 486 336 487 c 0,25,26
 369 486 369 486 390.5 480.5 c 128,-1,27
 412 475 412 475 426 461 c 1,28,-1
 454 501 l 1,29,-1
 485 501 l 1,30,-1
 442 440 l 1,31,32
 444 436 444 436 446 432.5 c 128,-1,33
 448 429 448 429 450 425 c 0,34,35
 464 396 464 396 467 361 c 128,-1,36
 470 326 470 326 462 275 c 0,0,1
136 196 m 0,37,38
 130 158 130 158 133 124.5 c 128,-1,39
 136 91 136 91 150 66 c 1,40,-1
 411 440 l 1,41,42
 400 454 400 454 381 461.5 c 128,-1,43
 362 469 362 469 333 467 c 0,44,45
 302 467 302 467 276 453.5 c 128,-1,46
 250 440 250 440 229 418 c 128,-1,47
 208 396 208 396 192 368.5 c 128,-1,48
 176 341 176 341 166 313 c 0,49,50
 156 286 156 286 148.5 257 c 128,-1,51
 141 228 141 228 136 196 c 0,37,38
408 164 m 0,52,53
 417 193 417 193 423 220 c 128,-1,54
 429 247 429 247 434 279 c 0,55,56
 439 307 439 307 439 330.5 c 128,-1,57
 439 354 439 354 436 376 c 0,58,59
 434 387 434 387 431 397 c 128,-1,60
 428 407 428 407 425 415 c 1,61,-1
 166 45 l 1,62,63
 195 16 195 16 247 15 c 0,64,65
 275 14 275 14 301 28 c 128,-1,66
 327 42 327 42 348 64 c 128,-1,67
 369 86 369 86 384.5 112.5 c 128,-1,68
 400 139 400 139 408 164 c 0,52,53
EndSplineSet
EndChar
StartChar: Thorn
Encoding: 222 222 159
Width: 424
Flags: W
Fore
302 415 m 0,0,1
 344 412 344 412 370.5 393.5 c 128,-1,2
 397 375 397 375 410 347.5 c 128,-1,3
 423 320 423 320 424 285.5 c 128,-1,4
 425 251 425 251 415 217 c 0,5,6
 406 187 406 187 389.5 158.5 c 128,-1,7
 373 130 373 130 350.5 108.5 c 128,-1,8
 328 87 328 87 300 74 c 128,-1,9
 272 61 272 61 241 61 c 0,10,11
 212 61 212 61 193 65 c 128,-1,12
 174 69 174 69 161 75 c 128,-1,13
 148 81 148 81 139 88.5 c 128,-1,14
 130 96 130 96 120 104 c 1,15,-1
 98 1 l 1,16,-1
 65 1 l 1,17,-1
 166 475 l 1,18,-1
 198 475 l 1,19,-1
 176 369 l 1,20,21
 187 382 187 382 205.5 391 c 128,-1,22
 224 400 224 400 243 405.5 c 128,-1,23
 262 411 262 411 278 413.5 c 128,-1,24
 294 416 294 416 302 415 c 0,0,1
383 220 m 0,25,26
 392 249 392 249 392.5 278 c 128,-1,27
 393 307 393 307 383 331 c 128,-1,28
 373 355 373 355 352 371.5 c 128,-1,29
 331 388 331 388 298 392 c 0,30,31
 286 393 286 393 269.5 389 c 128,-1,32
 253 385 253 385 234.5 377 c 128,-1,33
 216 369 216 369 198 356.5 c 128,-1,34
 180 344 180 344 167 328 c 1,35,-1
 127 138 l 1,36,37
 145 116 145 116 171 100.5 c 128,-1,38
 197 85 197 85 240 87 c 0,39,40
 265 88 265 88 288 99 c 128,-1,41
 311 110 311 110 329.5 128.5 c 128,-1,42
 348 147 348 147 361.5 170.5 c 128,-1,43
 375 194 375 194 383 220 c 0,25,26
EndSplineSet
EndChar
StartChar: uni00DF
Encoding: 223 223 160
Width: 488
Flags: W
Fore
368 278 m 1,0,1
 385 274 385 274 405.5 264.5 c 128,-1,2
 426 255 426 255 441.5 238 c 128,-1,3
 457 221 457 221 465 195 c 128,-1,4
 473 169 473 169 464 132 c 0,5,6
 454 86 454 86 431.5 57.5 c 128,-1,7
 409 29 409 29 381.5 13.5 c 128,-1,8
 354 -2 354 -2 325 -7.5 c 128,-1,9
 296 -13 296 -13 273 -13 c 2,10,-1
 195 -13 l 1,11,-1
 200 13 l 1,12,-1
 285 13 l 2,13,14
 305 13 305 13 327.5 18.5 c 128,-1,15
 350 24 350 24 371 37.5 c 128,-1,16
 392 51 392 51 408 75 c 128,-1,17
 424 99 424 99 432 135 c 0,18,19
 438 165 438 165 430 188.5 c 128,-1,20
 422 212 422 212 406 228.5 c 128,-1,21
 390 245 390 245 369.5 254 c 128,-1,22
 349 263 349 263 330 265 c 2,23,-1
 280 265 l 1,24,-1
 286 293 l 1,25,-1
 336 293 l 2,26,27
 351 293 351 293 366.5 299.5 c 128,-1,28
 382 306 382 306 395.5 317.5 c 128,-1,29
 409 329 409 329 419.5 343.5 c 128,-1,30
 430 358 430 358 433 373 c 0,31,32
 439 404 439 404 424 426 c 128,-1,33
 409 448 409 448 378 447 c 2,34,-1
 299 447 l 2,35,36
 261 448 261 448 238.5 422 c 128,-1,37
 216 396 216 396 205 346 c 0,38,39
 196 301 196 301 186 253 c 128,-1,40
 176 205 176 205 167 163 c 128,-1,41
 158 121 158 121 151.5 89.5 c 128,-1,42
 145 58 145 58 142 46 c 0,43,44
 135 5 135 5 124.5 -22.5 c 128,-1,45
 114 -50 114 -50 97 -66.5 c 128,-1,46
 80 -83 80 -83 56 -89.5 c 128,-1,47
 32 -96 32 -96 -1 -96 c 2,48,-1
 -17 -96 l 1,49,-1
 -11 -70 l 1,50,-1
 2 -70 l 2,51,52
 30 -70 30 -70 49 -62 c 128,-1,53
 68 -54 68 -54 80 -40 c 128,-1,54
 92 -26 92 -26 99 -4.5 c 128,-1,55
 106 17 106 17 112 44 c 2,56,-1
 176 349 l 2,57,58
 178 357 178 357 183 377 c 128,-1,59
 188 397 188 397 201 418 c 128,-1,60
 214 439 214 439 236.5 455.5 c 128,-1,61
 259 472 259 472 297 472 c 2,62,-1
 384 472 l 2,63,64
 429 472 429 472 450 444.5 c 128,-1,65
 471 417 471 417 462 375 c 0,66,67
 455 342 455 342 428.5 314.5 c 128,-1,68
 402 287 402 287 368 278 c 1,0,1
EndSplineSet
EndChar
StartChar: ae
Encoding: 230 230 167
Width: 656
Flags: W
Fore
387 48 m 0,0,1
 404 36 404 36 432 31.5 c 128,-1,2
 460 27 460 27 490 30.5 c 128,-1,3
 520 34 520 34 547.5 48 c 128,-1,4
 575 62 575 62 591 88 c 1,5,-1
 616 77 l 1,6,7
 595 47 595 47 560 30 c 128,-1,8
 525 13 525 13 487.5 8 c 128,-1,9
 450 3 450 3 415.5 8.5 c 128,-1,10
 381 14 381 14 359 29 c 0,11,12
 358 30 358 30 353.5 33.5 c 128,-1,13
 349 37 349 37 344.5 42 c 128,-1,14
 340 47 340 47 335.5 52.5 c 128,-1,15
 331 58 331 58 330 63 c 0,16,17
 330 64 330 64 307 49 c 0,18,19
 296 42 296 42 277.5 32 c 128,-1,20
 259 22 259 22 235.5 14.5 c 128,-1,21
 212 7 212 7 184.5 3.5 c 128,-1,22
 157 0 157 0 129 6 c 0,23,24
 93 14 93 14 76 36.5 c 128,-1,25
 59 59 59 59 68 99 c 0,26,27
 75 133 75 133 96 151.5 c 128,-1,28
 117 170 117 170 144.5 179.5 c 128,-1,29
 172 189 172 189 203.5 193.5 c 128,-1,30
 235 198 235 198 263 204 c 0,31,32
 272 206 272 206 285.5 210.5 c 128,-1,33
 299 215 299 215 312.5 222.5 c 128,-1,34
 326 230 326 230 336 239 c 128,-1,35
 346 248 346 248 349 259 c 0,36,37
 352 273 352 273 347 289 c 128,-1,38
 342 305 342 305 329 316 c 0,39,40
 314 329 314 329 289 333.5 c 128,-1,41
 264 338 264 338 235.5 335.5 c 128,-1,42
 207 333 207 333 177 324.5 c 128,-1,43
 147 316 147 316 123 305 c 1,44,-1
 136 337 l 1,45,46
 163 349 163 349 192.5 355.5 c 128,-1,47
 222 362 222 362 250.5 362.5 c 128,-1,48
 279 363 279 363 305 357.5 c 128,-1,49
 331 352 331 352 351 341 c 0,50,51
 372 329 372 329 381 308 c 1,52,53
 399 325 399 325 424 338 c 0,54,55
 446 349 446 349 471 355.5 c 128,-1,56
 496 362 496 362 521.5 362 c 128,-1,57
 547 362 547 362 571 356 c 128,-1,58
 595 350 595 350 615 337 c 256,59,60
 635 324 635 324 647 301 c 128,-1,61
 659 278 659 278 655 251 c 0,62,63
 650 222 650 222 640 204.5 c 128,-1,64
 630 187 630 187 611 177.5 c 128,-1,65
 592 168 592 168 562.5 165 c 128,-1,66
 533 162 533 162 490 162 c 2,67,-1
 363 162 l 1,68,-1
 351 106 l 1,69,70
 352 89 352 89 362 74 c 128,-1,71
 372 59 372 59 387 48 c 0,0,1
444 319 m 0,72,73
 424 308 424 308 408 293.5 c 128,-1,74
 392 279 392 279 384 261 c 1,75,76
 384 259 384 259 383 258 c 1,77,-1
 369 189 l 1,78,-1
 496 189 l 2,79,80
 526 189 526 189 548.5 189.5 c 128,-1,81
 571 190 571 190 586.5 196 c 128,-1,82
 602 202 602 202 611 214 c 128,-1,83
 620 226 620 226 624 248 c 0,84,85
 628 267 628 267 619.5 286 c 128,-1,86
 611 305 611 305 597 315 c 0,87,88
 582 327 582 327 562.5 332.5 c 128,-1,89
 543 338 543 338 522.5 338 c 128,-1,90
 502 338 502 338 481.5 333 c 128,-1,91
 461 328 461 328 444 319 c 0,72,73
341 213 m 1,92,93
 319 199 319 199 300 191.5 c 128,-1,94
 281 184 281 184 258 180 c 256,95,96
 235 176 235 176 209 171 c 128,-1,97
 183 166 183 166 160 157.5 c 128,-1,98
 137 149 137 149 119.5 135 c 128,-1,99
 102 121 102 121 98 99 c 0,100,101
 92 72 92 72 104 53.5 c 128,-1,102
 116 35 116 35 142 32 c 0,103,104
 175 27 175 27 200.5 31 c 128,-1,105
 226 35 226 35 246.5 43.5 c 128,-1,106
 267 52 267 52 283 63 c 128,-1,107
 299 74 299 74 313 83 c 1,108,-1
 341 213 l 1,92,93
EndSplineSet
EndChar
StartChar: igrave
Encoding: 236 236 173
Width: 195
Flags: W
Fore
70 0 m 1,0,-1
 103 0 l 1,1,-1
 170 339 l 1,2,-1
 138 339 l 1,3,-1
 70 0 l 1,0,-1
171 403 m 1,4,-1
 100 507 l 1,5,-1
 152 507 l 1,6,-1
 203 403 l 1,7,-1
 171 403 l 1,4,-1
EndSplineSet
Ligature: 0 0 'liga' i gravecomb
EndChar
StartChar: iacute
Encoding: 237 237 174
Width: 195
Flags: W
Fore
70 0 m 1,0,-1
 103 0 l 1,1,-1
 170 339 l 1,2,-1
 138 339 l 1,3,-1
 70 0 l 1,0,-1
178 402 m 1,4,-1
 142 402 l 1,5,-1
 235 506 l 1,6,-1
 290 506 l 1,7,-1
 178 402 l 1,4,-1
EndSplineSet
Ligature: 0 0 'liga' i acutecomb
EndChar
StartChar: icircumflex
Encoding: 238 238 175
Width: 195
Flags: W
Fore
138 339 m 1,0,-1
 170 339 l 1,1,-1
 103 0 l 1,2,-1
 70 0 l 1,3,-1
 138 339 l 1,0,-1
84 403 m 1,4,5
 93 408 93 408 110 420 c 128,-1,6
 127 432 127 432 145 447.5 c 128,-1,7
 163 463 163 463 179 480 c 128,-1,8
 195 497 195 497 203 512 c 1,9,10
 209 486 209 486 230 456 c 128,-1,11
 251 426 251 426 276 403 c 1,12,-1
 235 403 l 1,13,14
 218 419 218 419 209 437 c 128,-1,15
 200 455 200 455 196 466 c 1,16,17
 189 455 189 455 169 435 c 128,-1,18
 149 415 149 415 128 403 c 1,19,-1
 84 403 l 1,4,5
EndSplineSet
EndChar
StartChar: idieresis
Encoding: 239 239 176
Width: 190
Flags: W
Fore
138 339 m 1,0,-1
 170 339 l 1,1,-1
 103 0 l 1,2,-1
 70 0 l 1,3,-1
 138 339 l 1,0,-1
250 474 m 1,4,5
 262 475 262 475 268 463.5 c 128,-1,6
 274 452 274 452 270 437 c 0,7,8
 267 422 267 422 257 411 c 128,-1,9
 247 400 247 400 235 400 c 256,10,11
 223 400 223 400 217 411 c 128,-1,12
 211 422 211 422 215 437 c 256,13,14
 219 452 219 452 229 463.5 c 128,-1,15
 239 475 239 475 250 474 c 1,4,5
123 474 m 1,16,17
 135 475 135 475 141 463.5 c 128,-1,18
 147 452 147 452 143 437 c 0,19,20
 140 422 140 422 130 411 c 128,-1,21
 120 400 120 400 108 400 c 256,22,23
 96 400 96 400 90 411 c 128,-1,24
 84 422 84 422 88 437 c 256,25,26
 92 452 92 452 102 463.5 c 128,-1,27
 112 475 112 475 123 474 c 1,16,17
EndSplineSet
EndChar
StartChar: eth
Encoding: 240 240 177
Width: 453
Flags: W
Fore
425 195 m 0,0,1
 427 161 427 161 419 131 c 0,2,3
 414 105 414 105 403 85 c 128,-1,4
 392 65 392 65 376 49 c 0,5,6
 346 20 346 20 302 6 c 0,7,8
 263 -6 263 -6 219 -6 c 0,9,10
 194 -6 194 -6 175.5 -1.5 c 128,-1,11
 157 3 157 3 135 14 c 0,12,13
 102 33 102 33 89 69 c 0,14,15
 84 86 84 86 82 104 c 128,-1,16
 80 122 80 122 85 143 c 0,17,18
 89 161 89 161 96.5 177.5 c 128,-1,19
 104 194 104 194 114 209 c 0,20,21
 137 240 137 240 172 256 c 0,22,23
 190 265 190 265 216.5 271 c 128,-1,24
 243 277 243 277 269 277 c 0,25,26
 307 278 307 278 338 266.5 c 128,-1,27
 369 255 369 255 386 243 c 1,28,29
 383 254 383 254 380 266 c 128,-1,30
 377 278 377 278 372 290 c 0,31,32
 366 307 366 307 359 325 c 128,-1,33
 352 343 352 343 343 361 c 1,34,-1
 240 319 l 1,35,-1
 234 347 l 1,36,-1
 330 385 l 1,37,38
 318 409 318 409 303 432.5 c 128,-1,39
 288 456 288 456 271 480 c 1,40,-1
 311 480 l 1,41,42
 325 457 325 457 336.5 436.5 c 128,-1,43
 348 416 348 416 359 397 c 1,44,-1
 452 434 l 1,45,-1
 458 407 l 1,46,-1
 372 372 l 1,47,48
 373 368 373 368 375 362 c 1,49,50
 389 336 389 336 398 313 c 128,-1,51
 407 290 407 290 412 270 c 0,52,53
 418 249 418 249 421 230 c 128,-1,54
 424 211 424 211 425 195 c 0,0,1
357 70 m 0,55,56
 382 100 382 100 389 135 c 0,57,58
 395 160 395 160 393 194 c 1,59,60
 371 222 371 222 334 236.5 c 128,-1,61
 297 251 297 251 262 252 c 0,62,63
 230 253 230 253 204.5 246.5 c 128,-1,64
 179 240 179 240 161 224 c 0,65,66
 125 194 125 194 115 147 c 0,67,68
 108 112 108 112 117 81 c 0,69,70
 121 66 121 66 130.5 54 c 128,-1,71
 140 42 140 42 154 32 c 0,72,73
 168 24 168 24 187 19 c 128,-1,74
 206 14 206 14 230 14 c 0,75,76
 248 14 248 14 266.5 17.5 c 128,-1,77
 285 21 285 21 300 28 c 0,78,79
 334 43 334 43 357 70 c 0,55,56
EndSplineSet
EndChar
StartChar: divide
Encoding: 247 247 184
Width: 429
Flags: W
Fore
61 178 m 1,0,-1
 68 208 l 1,1,-1
 439 208 l 1,2,-1
 432 178 l 1,3,-1
 61 178 l 1,0,-1
236 113 m 1,4,5
 248 114 248 114 254 102.5 c 128,-1,6
 260 91 260 91 256 74 c 0,7,8
 253 58 253 58 242 46.5 c 128,-1,9
 231 35 231 35 219 35 c 0,10,11
 206 35 206 35 200 46.5 c 128,-1,12
 194 58 194 58 198 74 c 0,13,14
 202 91 202 91 213 102.5 c 128,-1,15
 224 114 224 114 236 113 c 1,4,5
287 353 m 1,16,17
 299 354 299 354 305 342.5 c 128,-1,18
 311 331 311 331 307 314 c 0,19,20
 304 298 304 298 293 286.5 c 128,-1,21
 282 275 282 275 270 275 c 0,22,23
 257 275 257 275 251 286.5 c 128,-1,24
 245 298 245 298 249 314 c 0,25,26
 253 331 253 331 264 342.5 c 128,-1,27
 275 354 275 354 287 353 c 1,16,17
EndSplineSet
EndChar
StartChar: oslash
Encoding: 248 248 185
Width: 426
Flags: W
Fore
373 327 m 1,0,1
 399 312 399 312 411 286 c 128,-1,2
 423 260 423 260 415 223 c 2,3,-1
 393 119 l 2,4,5
 384 78 384 78 356 50 c 128,-1,6
 328 22 328 22 292 8 c 128,-1,7
 256 -6 256 -6 217 -7 c 128,-1,8
 178 -8 178 -8 147 5 c 1,9,-1
 116 -38 l 1,10,-1
 94 -27 l 1,11,-1
 124 17 l 1,12,13
 100 32 100 32 88.5 57.5 c 128,-1,14
 77 83 77 83 84 119 c 0,15,16
 88 142 88 142 93.5 171 c 128,-1,17
 99 200 99 200 104 223 c 0,18,19
 113 263 113 263 140.5 291 c 128,-1,20
 168 319 168 319 204 333.5 c 128,-1,21
 240 348 240 348 279 349.5 c 128,-1,22
 318 351 318 351 350 339 c 1,23,-1
 381 385 l 1,24,-1
 404 371 l 1,25,-1
 373 327 l 1,0,1
118 132 m 0,26,27
 111 101 111 101 118 78.5 c 128,-1,28
 125 56 125 56 141 42 c 1,29,-1
 332 315 l 1,30,31
 307 326 307 326 275.5 325 c 128,-1,32
 244 324 244 324 214.5 311 c 128,-1,33
 185 298 185 298 162.5 273 c 128,-1,34
 140 248 140 248 132 211 c 0,35,36
 131 206 131 206 129.5 195.5 c 128,-1,37
 128 185 128 185 125.5 173 c 128,-1,38
 123 161 123 161 121 149.5 c 128,-1,39
 119 138 119 138 118 132 c 0,26,27
365 132 m 0,40,41
 368 147 368 147 369.5 152.5 c 128,-1,42
 371 158 371 158 371.5 163 c 128,-1,43
 372 168 372 168 374 177.5 c 128,-1,44
 376 187 376 187 381 210 c 0,45,46
 387 242 387 242 379 264.5 c 128,-1,47
 371 287 371 287 354 301 c 1,48,-1
 163 29 l 1,49,50
 188 17 188 17 219.5 18 c 128,-1,51
 251 19 251 19 280.5 32 c 128,-1,52
 310 45 310 45 333 70 c 128,-1,53
 356 95 356 95 365 132 c 0,40,41
EndSplineSet
EndChar
StartChar: thorn
Encoding: 254 254 191
Width: 435
Flags: W
Fore
288 345 m 0,0,1
 330 342 330 342 356.5 323.5 c 128,-1,2
 383 305 383 305 396 277.5 c 128,-1,3
 409 250 409 250 410 215.5 c 128,-1,4
 411 181 411 181 401 147 c 0,5,6
 392 117 392 117 375.5 88.5 c 128,-1,7
 359 60 359 60 337 38.5 c 128,-1,8
 315 17 315 17 287 4 c 128,-1,9
 259 -9 259 -9 228 -9 c 0,10,11
 199 -9 199 -9 180 -5 c 128,-1,12
 161 -1 161 -1 147.5 5 c 128,-1,13
 134 11 134 11 125 18.5 c 128,-1,14
 116 26 116 26 106 34 c 1,15,-1
 68 -145 l 1,16,-1
 37 -145 l 1,17,-1
 167 473 l 1,18,-1
 199 473 l 1,19,-1
 162 299 l 1,20,21
 173 312 173 312 191.5 321 c 128,-1,22
 210 330 210 330 229 335.5 c 128,-1,23
 248 341 248 341 264 343.5 c 128,-1,24
 280 346 280 346 288 345 c 0,0,1
369 150 m 0,25,26
 378 179 378 179 378.5 208 c 128,-1,27
 379 237 379 237 369.5 261 c 128,-1,28
 360 285 360 285 339 301.5 c 128,-1,29
 318 318 318 318 284 322 c 0,30,31
 273 323 273 323 256 319 c 128,-1,32
 239 315 239 315 220.5 307 c 128,-1,33
 202 299 202 299 184 286.5 c 128,-1,34
 166 274 166 274 153 258 c 1,35,-1
 113 68 l 1,36,37
 131 46 131 46 157 30.5 c 128,-1,38
 183 15 183 15 226 17 c 0,39,40
 252 18 252 18 274.5 29 c 128,-1,41
 297 40 297 40 315.5 58.5 c 128,-1,42
 334 77 334 77 347.5 100.5 c 128,-1,43
 361 124 361 124 369 150 c 0,25,26
EndSplineSet
EndChar
StartChar: Lslash
Encoding: 321 321 193
Width: 353
Flags: W
Fore
61 0 m 1,0,-1
 100 211 l 1,1,2
 82 200 82 200 63 187.5 c 128,-1,3
 44 175 44 175 27 164 c 1,4,-1
 35 200 l 1,5,-1
 108 247 l 1,6,-1
 159 484 l 1,7,-1
 199 484 l 1,8,-1
 153 271 l 1,9,10
 182 288 182 288 212.5 306.5 c 128,-1,11
 243 325 243 325 272 342 c 1,12,-1
 264 305 l 1,13,-1
 145 235 l 1,14,-1
 103 34 l 1,15,-1
 341 34 l 1,16,-1
 339 0 l 1,17,-1
 61 0 l 1,0,-1
EndSplineSet
EndChar
StartChar: lslash
Encoding: 322 322 194
Width: 162
Flags: W
Fore
150 261 m 1,0,-1
 100 0 l 1,1,-1
 61 0 l 1,2,-1
 105 234 l 1,3,4
 91 224 91 224 75.5 212.5 c 128,-1,5
 60 201 60 201 46 191 c 1,6,-1
 54 229 l 1,7,-1
 113 270 l 1,8,-1
 166 515 l 1,9,-1
 205 515 l 1,10,-1
 158 301 l 1,11,12
 172 311 172 311 188 321.5 c 128,-1,13
 204 332 204 332 218 342 c 1,14,-1
 210 304 l 1,15,-1
 150 261 l 1,0,-1
EndSplineSet
EndChar
StartChar: OE
Encoding: 338 338 195
Width: 693
Flags: W
Fore
596 456 m 2,0,1
 568 456 568 456 540.5 450 c 128,-1,2
 513 444 513 444 489.5 427.5 c 128,-1,3
 466 411 466 411 447.5 381.5 c 128,-1,4
 429 352 429 352 420 304 c 2,5,-1
 407 242 l 1,6,-1
 613 242 l 1,7,-1
 607 215 l 1,8,-1
 401 215 l 1,9,-1
 392 170 l 2,10,11
 381 122 381 122 386.5 92.5 c 128,-1,12
 392 63 392 63 408.5 46.5 c 128,-1,13
 425 30 425 30 450 23.5 c 128,-1,14
 475 17 475 17 503 17 c 2,15,-1
 641 17 l 1,16,-1
 636 -8 l 1,17,-1
 500 -8 l 2,18,19
 455 -7 455 -7 420 2 c 128,-1,20
 385 11 385 11 367 40 c 1,21,22
 341 17 341 17 305.5 4.5 c 128,-1,23
 270 -8 270 -8 233.5 -10.5 c 128,-1,24
 197 -13 197 -13 164 -7 c 128,-1,25
 131 -1 131 -1 111 13 c 256,26,27
 91 27 91 27 78.5 47.5 c 128,-1,28
 66 68 66 68 71 94 c 2,29,-1
 134 382 l 2,30,31
 139 408 139 408 160 428.5 c 128,-1,32
 181 449 181 449 207 462 c 0,33,34
 232 475 232 475 267.5 481.5 c 128,-1,35
 303 488 303 488 338.5 485.5 c 128,-1,36
 374 483 374 483 404.5 470.5 c 128,-1,37
 435 458 435 458 451 435 c 1,38,39
 481 464 481 464 520 472.5 c 128,-1,40
 559 481 559 481 604 482 c 2,41,-1
 740 482 l 1,42,-1
 734 456 l 1,43,-1
 596 456 l 2,0,1
140 33 m 0,44,45
 157 21 157 21 186 16 c 128,-1,46
 215 11 215 11 246.5 14 c 128,-1,47
 278 17 278 17 308 29.5 c 128,-1,48
 338 42 338 42 356 65 c 1,49,50
 351 84 351 84 351.5 110 c 128,-1,51
 352 136 352 136 360 171 c 2,52,-1
 388 303 l 2,53,54
 403 372 403 372 430 410 c 1,55,56
 422 433 422 433 397.5 445.5 c 128,-1,57
 373 458 373 458 342 461.5 c 128,-1,58
 311 465 311 465 280 460 c 128,-1,59
 249 455 249 455 227 443 c 0,60,61
 204 430 204 430 185.5 410.5 c 128,-1,62
 167 391 167 391 162 369 c 2,63,-1
 106 107 l 2,64,65
 101 84 101 84 111.5 64.5 c 128,-1,66
 122 45 122 45 140 33 c 0,44,45
EndSplineSet
EndChar
StartChar: oe
Encoding: 339 339 196
Width: 688
Flags: W
Fore
675 208 m 1,0,-1
 673 208 l 1,1,-1
 672 206 l 1,2,-1
 675 208 l 1,0,-1
415 33 m 0,3,4
 432 21 432 21 460 16.5 c 128,-1,5
 488 12 488 12 518 15.5 c 128,-1,6
 548 19 548 19 575.5 33 c 128,-1,7
 603 47 603 47 619 73 c 1,8,-1
 644 62 l 1,9,10
 622 32 622 32 587.5 15 c 128,-1,11
 553 -2 553 -2 515.5 -7 c 128,-1,12
 478 -12 478 -12 443 -6.5 c 128,-1,13
 408 -1 408 -1 386 14 c 0,14,15
 375 22 375 22 365.5 31.5 c 128,-1,16
 356 41 356 41 351 53 c 1,17,18
 329 28 329 28 298 13 c 128,-1,19
 267 -2 267 -2 234 -7 c 128,-1,20
 201 -12 201 -12 169 -7 c 128,-1,21
 137 -2 137 -2 113.5 13.5 c 128,-1,22
 90 29 90 29 78 54.5 c 128,-1,23
 66 80 66 80 73 116 c 0,24,25
 78 139 78 139 83 168 c 128,-1,26
 88 197 88 197 93 220 c 0,27,28
 101 256 101 256 123.5 281.5 c 128,-1,29
 146 307 146 307 176.5 322.5 c 128,-1,30
 207 338 207 338 241.5 343.5 c 128,-1,31
 276 349 276 349 307.5 344 c 128,-1,32
 339 339 339 339 363.5 323.5 c 128,-1,33
 388 308 388 308 400 283 c 1,34,35
 410 295 410 295 424 305 c 128,-1,36
 438 315 438 315 452 323 c 0,37,38
 474 334 474 334 499 340.5 c 128,-1,39
 524 347 524 347 549.5 347 c 128,-1,40
 575 347 575 347 599 341 c 128,-1,41
 623 335 623 335 643 322 c 0,42,43
 662 309 662 309 674 286 c 128,-1,44
 686 263 686 263 683 236 c 0,45,46
 678 207 678 207 668 189.5 c 128,-1,47
 658 172 658 172 639 162.5 c 128,-1,48
 620 153 620 153 590.5 150 c 128,-1,49
 561 147 561 147 518 147 c 2,50,-1
 390 147 l 1,51,-1
 381 106 l 2,52,53
 376 84 376 84 386.5 65 c 128,-1,54
 397 46 397 46 415 33 c 0,3,4
395 174 m 1,55,-1
 523 174 l 2,56,57
 554 174 554 174 576.5 174.5 c 128,-1,58
 599 175 599 175 614.5 181 c 128,-1,59
 630 187 630 187 639 199 c 128,-1,60
 648 211 648 211 652 233 c 0,61,62
 655 252 655 252 647 271 c 128,-1,63
 639 290 639 290 625 300 c 0,64,65
 610 312 610 312 590.5 317.5 c 128,-1,66
 571 323 571 323 550.5 323 c 128,-1,67
 530 323 530 323 509.5 318 c 128,-1,68
 489 313 489 313 472 304 c 0,69,70
 449 291 449 291 431 272 c 128,-1,71
 413 253 413 253 408 231 c 2,72,-1
 395 174 l 1,55,-1
106 129 m 0,73,74
 98 91 98 91 110.5 65.5 c 128,-1,75
 123 40 123 40 147.5 27.5 c 128,-1,76
 172 15 172 15 204 15 c 128,-1,77
 236 15 236 15 266 27.5 c 128,-1,78
 296 40 296 40 320 65 c 128,-1,79
 344 90 344 90 353 127 c 2,80,-1
 371 209 l 2,81,82
 378 247 378 247 364.5 272 c 128,-1,83
 351 297 351 297 326 309.5 c 128,-1,84
 301 322 301 322 269 322 c 128,-1,85
 237 322 237 322 207 309 c 128,-1,86
 177 296 177 296 153.5 271 c 128,-1,87
 130 246 130 246 122 208 c 0,88,89
 121 203 121 203 118.5 192.5 c 128,-1,90
 116 182 116 182 114 170 c 128,-1,91
 112 158 112 158 109.5 146.5 c 128,-1,92
 107 135 107 135 106 129 c 0,73,74
EndSplineSet
EndChar
StartChar: florin
Encoding: 402 402 202
Width: 294
Flags: W
Fore
362 477 m 1,0,-1
 353 451 l 1,1,-1
 335 451 l 2,2,3
 303 451 303 451 282 443.5 c 128,-1,4
 261 436 261 436 246 422 c 128,-1,5
 231 408 231 408 221 387.5 c 128,-1,6
 211 367 211 367 203 340 c 2,7,-1
 194 313 l 1,8,-1
 183 281 l 1,9,-1
 275 281 l 1,10,-1
 270 257 l 1,11,-1
 175 257 l 1,12,-1
 102 39 l 1,13,-1
 80 -19 l 2,14,15
 73 -33 73 -33 60.5 -44.5 c 128,-1,16
 48 -56 48 -56 34 -61 c 1,17,18
 30 -57 30 -57 25 -52.5 c 128,-1,19
 20 -48 20 -48 16 -41 c 1,20,21
 36 -28 36 -28 45.5 -16 c 128,-1,22
 55 -4 55 -4 60 12 c 2,23,-1
 143 257 l 1,24,-1
 79 257 l 1,25,-1
 84 281 l 1,26,-1
 151 281 l 1,27,-1
 170 336 l 2,28,29
 183 376 183 376 198 403 c 128,-1,30
 213 430 213 430 233 446.5 c 128,-1,31
 253 463 253 463 280 470 c 128,-1,32
 307 477 307 477 345 477 c 2,33,-1
 362 477 l 1,0,-1
EndSplineSet
EndChar
StartChar: circumflex
Encoding: 710 710 203
Width: 334
Flags: W
Fore
166 475 m 1,0,1
 175 480 175 480 192 492 c 128,-1,2
 209 504 209 504 227 519.5 c 128,-1,3
 245 535 245 535 261 552 c 128,-1,4
 277 569 277 569 285 584 c 1,5,6
 291 558 291 558 312 528 c 128,-1,7
 333 498 333 498 358 475 c 1,8,-1
 317 475 l 1,9,10
 300 491 300 491 291 509 c 128,-1,11
 282 527 282 527 278 538 c 1,12,13
 271 527 271 527 251 507 c 128,-1,14
 231 487 231 487 210 475 c 1,15,-1
 166 475 l 1,0,1
EndSplineSet
EndChar
StartChar: caron
Encoding: 711 711 204
Width: 334
Flags: W
Fore
382 585 m 1,0,1
 373 580 373 580 356 568.5 c 128,-1,2
 339 557 339 557 321 541.5 c 128,-1,3
 303 526 303 526 287 508.5 c 128,-1,4
 271 491 271 491 263 476 c 1,5,6
 256 503 256 503 235.5 532.5 c 128,-1,7
 215 562 215 562 190 585 c 1,8,-1
 222 585 l 1,9,10
 240 569 240 569 254 546.5 c 128,-1,11
 268 524 268 524 270 513 c 1,12,13
 273 518 273 518 282 528 c 128,-1,14
 291 538 291 538 302.5 548.5 c 128,-1,15
 314 559 314 559 326 569 c 128,-1,16
 338 579 338 579 349 585 c 1,17,-1
 382 585 l 1,0,1
EndSplineSet
EndChar
StartChar: breve
Encoding: 728 728 205
Width: 300
Flags: W
Fore
364 528 m 1,0,1
 359 506 359 506 346.5 486.5 c 128,-1,2
 334 467 334 467 316.5 452 c 128,-1,3
 299 437 299 437 278 428.5 c 128,-1,4
 257 420 257 420 234 420 c 0,5,6
 212 420 212 420 194 428.5 c 128,-1,7
 176 437 176 437 165.5 452 c 128,-1,8
 155 467 155 467 150.5 486.5 c 128,-1,9
 146 506 146 506 151 528 c 1,10,-1
 182 528 l 1,11,12
 175 494 175 494 191 471 c 128,-1,13
 207 448 207 448 240 448 c 256,14,15
 273 448 273 448 299.5 471 c 128,-1,16
 326 494 326 494 333 528 c 1,17,-1
 364 528 l 1,0,1
EndSplineSet
EndChar
StartChar: dotaccent
Encoding: 729 729 206
Width: 158
Flags: W
Fore
181 501 m 1,0,1
 193 502 193 502 198.5 490.5 c 128,-1,2
 204 479 204 479 201 462 c 0,3,4
 197 446 197 446 186 434.5 c 128,-1,5
 175 423 175 423 164 423 c 0,6,7
 151 423 151 423 145 434.5 c 128,-1,8
 139 446 139 446 144 462 c 0,9,10
 147 479 147 479 158 490.5 c 128,-1,11
 169 502 169 502 181 501 c 1,0,1
EndSplineSet
EndChar
StartChar: ring
Encoding: 730 730 207
Width: 275
Flags: W
Fore
247 533 m 2,0,1
 273 533 273 533 287.5 516 c 128,-1,2
 302 499 302 499 297 475 c 256,3,4
 292 451 292 451 270 434 c 128,-1,5
 248 417 248 417 222 417 c 2,6,-1
 221 417 l 2,7,8
 195 417 195 417 180 434 c 128,-1,9
 165 451 165 451 170 475 c 0,10,11
 175 500 175 500 197.5 516.5 c 128,-1,12
 220 533 220 533 246 533 c 2,13,-1
 247 533 l 2,0,1
227 434 m 2,14,15
 234 434 234 434 242 438 c 128,-1,16
 250 442 250 442 256.5 448 c 128,-1,17
 263 454 263 454 267.5 461.5 c 128,-1,18
 272 469 272 469 273 475 c 0,19,20
 276 487 276 487 267 501 c 128,-1,21
 258 515 258 515 243 517 c 2,22,-1
 242 517 l 2,23,24
 225 517 225 517 211.5 502 c 128,-1,25
 198 487 198 487 195 475 c 0,26,27
 192 464 192 464 201 449.5 c 128,-1,28
 210 435 210 435 226 434 c 2,29,-1
 227 434 l 2,14,15
EndSplineSet
EndChar
StartChar: tilde
Encoding: 732 732 209
Width: 216
Flags: W
Fore
305 472 m 1,0,1
 300 443 300 443 280 426.5 c 128,-1,2
 260 410 260 410 235 408 c 0,3,4
 220 407 220 407 210 412.5 c 128,-1,5
 200 418 200 418 191.5 424.5 c 128,-1,6
 183 431 183 431 175.5 437.5 c 128,-1,7
 168 444 168 444 159 444 c 0,8,9
 147 445 147 445 134 432 c 128,-1,10
 121 419 121 419 117 405 c 1,11,-1
 95 405 l 1,12,13
 100 431 100 431 119.5 450.5 c 128,-1,14
 139 470 139 470 161 470 c 0,15,16
 174 470 174 470 183 464 c 128,-1,17
 192 458 192 458 200.5 450.5 c 128,-1,18
 209 443 209 443 217.5 437.5 c 128,-1,19
 226 432 226 432 237 432 c 0,20,21
 254 433 254 433 265 443.5 c 128,-1,22
 276 454 276 454 282 472 c 1,23,-1
 305 472 l 1,0,1
EndSplineSet
EndChar
StartChar: uni0E01
Encoding: 3585 3585 212
Width: 426
Flags: W
Fore
170 372 m 1,0,1
 171 370 171 370 177 364 c 128,-1,2
 183 358 183 358 190 351 c 128,-1,3
 197 344 197 344 202 338 c 128,-1,4
 207 332 207 332 207 331 c 2,5,-1
 200 301 l 1,6,7
 196 298 196 298 190.5 295 c 128,-1,8
 185 292 185 292 181 288 c 0,9,10
 147 258 147 258 136 210 c 2,11,-1
 97 0 l 1,12,-1
 69 0 l 1,13,-1
 102 182 l 2,14,15
 109 220 109 220 127 259.5 c 128,-1,16
 145 299 145 299 182 321 c 1,17,-1
 139 371 l 1,18,-1
 145 399 l 1,19,-1
 216 399 l 2,20,21
 261 399 261 399 301 397 c 128,-1,22
 341 395 341 395 368 379.5 c 128,-1,23
 395 364 395 364 405 328 c 128,-1,24
 415 292 415 292 401 225 c 2,25,-1
 359 0 l 1,26,-1
 328 0 l 1,27,-1
 368 227 l 2,28,29
 378 271 378 271 373.5 299.5 c 128,-1,30
 369 328 369 328 354.5 344 c 128,-1,31
 340 360 340 360 318 367 c 128,-1,32
 296 374 296 374 270.5 375 c 128,-1,33
 245 376 245 376 219 374.5 c 128,-1,34
 193 373 193 373 170 372 c 1,0,1
EndSplineSet
EndChar
StartChar: uni0E02
Encoding: 3586 3586 213
Width: 336
Flags: W
Fore
350 398 m 1,0,1
 334 323 334 323 318.5 249.5 c 128,-1,2
 303 176 303 176 287 101 c 0,3,4
 279 66 279 66 258 43 c 128,-1,5
 237 20 237 20 211 8 c 128,-1,6
 185 -4 185 -4 157 -5 c 128,-1,7
 129 -6 129 -6 108 5 c 256,8,9
 87 16 87 16 75 39 c 128,-1,10
 63 62 63 62 71 97 c 0,11,12
 81 143 81 143 105 170 c 128,-1,13
 129 197 129 197 153 220 c 0,14,15
 166 233 166 233 177.5 245.5 c 128,-1,16
 189 258 189 258 199 274 c 1,17,18
 190 263 190 263 179.5 256.5 c 128,-1,19
 169 250 169 250 159 247 c 0,20,21
 150 244 150 244 139 247 c 0,22,23
 119 252 119 252 116.5 278 c 128,-1,24
 114 304 114 304 129 336 c 0,25,26
 140 360 140 360 157 376.5 c 128,-1,27
 174 393 174 393 191 398 c 0,28,29
 201 401 201 401 211 399 c 0,30,31
 224 395 224 395 230 382 c 128,-1,32
 236 369 236 369 235 351 c 0,33,34
 237 318 237 318 229.5 295 c 128,-1,35
 222 272 222 272 208.5 253.5 c 128,-1,36
 195 235 195 235 178.5 219.5 c 128,-1,37
 162 204 162 204 146 188 c 0,38,39
 132 172 132 172 120.5 153.5 c 128,-1,40
 109 135 109 135 104 110 c 0,41,42
 99 86 99 86 102.5 68 c 128,-1,43
 106 50 106 50 115 39 c 0,44,45
 128 23 128 23 149.5 20 c 128,-1,46
 171 17 171 17 192.5 26.5 c 128,-1,47
 214 36 214 36 232.5 58.5 c 128,-1,48
 251 81 251 81 259 116 c 0,49,50
 273 183 273 183 289 256.5 c 128,-1,51
 305 330 305 330 319 398 c 1,52,-1
 350 398 l 1,0,1
200 315 m 0,53,54
 204 324 204 324 207.5 334.5 c 128,-1,55
 211 345 211 345 212 355 c 128,-1,56
 213 365 213 365 210.5 372.5 c 128,-1,57
 208 380 208 380 202 382 c 256,58,59
 196 384 196 384 187 379 c 0,60,61
 176 372 176 372 166 357.5 c 128,-1,62
 156 343 156 343 150 330 c 0,63,64
 146 321 146 321 142.5 310.5 c 128,-1,65
 139 300 139 300 138.5 290 c 128,-1,66
 138 280 138 280 140 272.5 c 128,-1,67
 142 265 142 265 148 263 c 1,68,69
 155 262 155 262 163 267 c 0,70,71
 174 274 174 274 184.5 288.5 c 128,-1,72
 195 303 195 303 200 315 c 0,53,54
EndSplineSet
EndChar
StartChar: uni0E03
Encoding: 3587 3587 214
Width: 388
Flags: W
Fore
254 360 m 1,0,-1
 270 404 l 1,1,-1
 289 404 l 1,2,-1
 290 363 l 2,3,4
 292 330 292 330 284.5 306 c 128,-1,5
 277 282 277 282 264 263 c 128,-1,6
 251 244 251 244 234.5 228.5 c 128,-1,7
 218 213 218 213 202 196.5 c 128,-1,8
 186 180 186 180 173 160 c 128,-1,9
 160 140 160 140 155 113 c 0,10,11
 148 82 148 82 155.5 61.5 c 128,-1,12
 163 41 163 41 178.5 30.5 c 128,-1,13
 194 20 194 20 214.5 20.5 c 128,-1,14
 235 21 235 21 255 32 c 128,-1,15
 275 43 275 43 291.5 64.5 c 128,-1,16
 308 86 308 86 315 119 c 0,17,18
 329 188 329 188 344.5 260.5 c 128,-1,19
 360 333 360 333 375 402 c 1,20,-1
 406 402 l 1,21,22
 389 325 389 325 374.5 253.5 c 128,-1,23
 360 182 360 182 343 104 c 0,24,25
 335 69 335 69 313.5 45 c 128,-1,26
 292 21 292 21 265 8.5 c 128,-1,27
 238 -4 238 -4 209.5 -4.5 c 128,-1,28
 181 -5 181 -5 159 6 c 128,-1,29
 137 17 137 17 125.5 40.5 c 128,-1,30
 114 64 114 64 122 100 c 0,31,32
 129 136 129 136 145.5 160 c 128,-1,33
 162 184 162 184 182 203.5 c 128,-1,34
 202 223 202 223 222 242 c 128,-1,35
 242 261 242 261 256 285 c 1,36,37
 263 308 263 308 256.5 320 c 128,-1,38
 250 332 250 332 241 341 c 1,39,-1
 236 351 l 1,40,41
 235 334 235 334 224 314 c 0,42,43
 208 282 208 282 183 263.5 c 128,-1,44
 158 245 158 245 138 250 c 0,45,46
 118 256 118 256 115 283 c 128,-1,47
 112 310 112 310 127 342 c 256,48,49
 142 374 142 374 167 392.5 c 128,-1,50
 192 411 192 411 213 406 c 0,51,52
 225 402 225 402 237.5 386.5 c 128,-1,53
 250 371 250 371 254 360 c 1,0,-1
149 336 m 0,54,55
 144 327 144 327 141 316 c 128,-1,56
 138 305 138 305 137 295 c 128,-1,57
 136 285 136 285 138 277.5 c 128,-1,58
 140 270 140 270 147 268 c 1,59,60
 153 265 153 265 161 269.5 c 128,-1,61
 169 274 169 274 176.5 282.5 c 128,-1,62
 184 291 184 291 191 301 c 128,-1,63
 198 311 198 311 202 320 c 256,64,65
 206 329 206 329 209.5 340 c 128,-1,66
 213 351 213 351 213.5 361 c 128,-1,67
 214 371 214 371 212 378.5 c 128,-1,68
 210 386 210 386 203 388 c 0,69,70
 196 391 196 391 188.5 386 c 128,-1,71
 181 381 181 381 173.5 373 c 128,-1,72
 166 365 166 365 159.5 355 c 128,-1,73
 153 345 153 345 149 336 c 0,54,55
EndSplineSet
EndChar
StartChar: uni0E04
Encoding: 3588 3588 215
Width: 457
Flags: W
Fore
423 376 m 0,0,1
 463 349 463 349 451 292 c 2,2,-1
 389 2 l 1,3,-1
 359 2 l 1,4,-1
 419 283 l 2,5,6
 424 309 424 309 419.5 326.5 c 128,-1,7
 415 344 415 344 396 358 c 0,8,9
 381 369 381 369 357.5 374.5 c 128,-1,10
 334 380 334 380 308 380 c 128,-1,11
 282 380 282 380 256.5 374.5 c 128,-1,12
 231 369 231 369 211 358 c 0,13,14
 185 344 185 344 173 326 c 128,-1,15
 161 308 161 308 156 283 c 2,16,-1
 139 204 l 1,17,18
 160 223 160 223 186.5 234.5 c 128,-1,19
 213 246 213 246 241 249 c 0,20,21
 247 250 247 250 253 250.5 c 128,-1,22
 259 251 259 251 265 250 c 1,23,-1
 269 250 l 2,24,25
 300 248 300 248 318.5 231.5 c 128,-1,26
 337 215 337 215 331 193 c 0,27,28
 325 172 325 172 299 158 c 128,-1,29
 273 144 273 144 242 145 c 0,30,31
 241 145 241 145 241 145.5 c 128,-1,32
 241 146 241 146 240 146 c 0,33,34
 210 148 210 148 191.5 163 c 128,-1,35
 173 178 173 178 176 198 c 1,36,37
 174 196 174 196 171.5 194.5 c 128,-1,38
 169 193 169 193 167 191 c 0,39,40
 150 175 150 175 137.5 156 c 128,-1,41
 125 137 125 137 120 113 c 2,42,-1
 96 2 l 1,43,-1
 66 2 l 1,44,-1
 128 294 l 2,45,46
 133 319 133 319 149.5 341 c 128,-1,47
 166 363 166 363 190 376 c 0,48,49
 215 389 215 389 247.5 395.5 c 128,-1,50
 280 402 280 402 312.5 402 c 128,-1,51
 345 402 345 402 374.5 395.5 c 128,-1,52
 404 389 404 389 423 376 c 0,0,1
260 227 m 2,53,54
 251 227 251 227 240.5 226 c 128,-1,55
 230 225 230 225 220 222 c 128,-1,56
 210 219 210 219 202.5 214 c 128,-1,57
 195 209 195 209 193 202 c 256,58,59
 191 195 191 195 195.5 189 c 128,-1,60
 200 183 200 183 208.5 179 c 128,-1,61
 217 175 217 175 227 172.5 c 128,-1,62
 237 170 237 170 246 170 c 0,63,64
 247 170 247 170 247 169 c 1,65,66
 256 169 256 169 266.5 170.5 c 128,-1,67
 277 172 277 172 286.5 175 c 128,-1,68
 296 178 296 178 303.5 183 c 128,-1,69
 311 188 311 188 314 195 c 0,70,71
 316 202 316 202 311.5 207.5 c 128,-1,72
 307 213 307 213 298.5 217 c 128,-1,73
 290 221 290 221 280 223.5 c 128,-1,74
 270 226 270 226 262 227 c 2,75,-1
 260 227 l 2,53,54
EndSplineSet
EndChar
StartChar: uni0E05
Encoding: 3589 3589 216
Width: 460
Flags: W
Fore
427 377 m 0,0,1
 445 364 445 364 451.5 340 c 128,-1,2
 458 316 458 316 453 290 c 2,3,-1
 397 0 l 1,4,-1
 367 0 l 1,5,-1
 421 278 l 2,6,7
 426 301 426 301 422 321 c 128,-1,8
 418 341 418 341 401 354 c 0,9,10
 393 361 393 361 381 364.5 c 128,-1,11
 369 368 369 368 355 371 c 1,12,-1
 294 303 l 1,13,-1
 262 370 l 1,14,15
 248 367 248 367 235 363.5 c 128,-1,16
 222 360 222 360 212 353 c 0,17,18
 165 327 165 327 156 283 c 2,19,-1
 140 210 l 1,20,21
 187 252 187 252 254 257 c 2,22,-1
 270 257 l 1,23,-1
 274 257 l 2,24,25
 306 255 306 255 324.5 238 c 128,-1,26
 343 221 343 221 337 199 c 0,27,28
 331 179 331 179 305.5 165 c 128,-1,29
 280 151 280 151 248 153 c 2,30,-1
 245 153 l 2,31,32
 214 155 214 155 196 171 c 128,-1,33
 178 187 178 187 183 208 c 1,34,35
 175 203 175 203 168 196 c 0,36,37
 151 182 151 182 138.5 162.5 c 128,-1,38
 126 143 126 143 121 119 c 2,39,-1
 101 0 l 1,40,-1
 71 0 l 1,41,-1
 128 294 l 2,42,43
 133 320 133 320 152 342 c 128,-1,44
 171 364 171 364 196 377 c 0,45,46
 214 387 214 387 235 392.5 c 128,-1,47
 256 398 256 398 279 401 c 1,48,49
 284 386 284 386 289.5 371 c 128,-1,50
 295 356 295 356 302 341 c 1,51,52
 313 357 313 357 324.5 371 c 128,-1,53
 336 385 336 385 349 401 c 1,54,55
 372 398 372 398 392 392.5 c 128,-1,56
 412 387 412 387 427 377 c 0,0,1
265 233 m 2,57,58
 256 233 256 233 246 232 c 128,-1,59
 236 231 236 231 226.5 228 c 128,-1,60
 217 225 217 225 209.5 220 c 128,-1,61
 202 215 202 215 200 208 c 256,62,63
 198 201 198 201 202.5 195.5 c 128,-1,64
 207 190 207 190 215 186 c 128,-1,65
 223 182 223 182 232.5 179.5 c 128,-1,66
 242 177 242 177 251 177 c 2,67,-1
 253 177 l 2,68,69
 262 177 262 177 272.5 178 c 128,-1,70
 283 179 283 179 293 182 c 128,-1,71
 303 185 303 185 310.5 190 c 128,-1,72
 318 195 318 195 320 201 c 0,73,74
 322 208 322 208 317.5 213.5 c 128,-1,75
 313 219 313 219 304.5 223 c 128,-1,76
 296 227 296 227 286 229.5 c 128,-1,77
 276 232 276 232 267 233 c 2,78,-1
 265 233 l 2,57,58
EndSplineSet
EndChar
StartChar: uni0E06
Encoding: 3590 3590 217
Width: 491
Flags: W
Fore
87 92 m 0,0,1
 91 110 91 110 99.5 127 c 128,-1,2
 108 144 108 144 120 157 c 128,-1,3
 132 170 132 170 145.5 178 c 128,-1,4
 159 186 159 186 173 186 c 0,5,6
 186 186 186 186 194 180 c 1,7,8
 200 205 200 205 218 228 c 0,9,10
 228 241 228 241 236 253.5 c 128,-1,11
 244 266 244 266 253 282 c 1,12,13
 260 305 260 305 254 317.5 c 128,-1,14
 248 330 248 330 240 339 c 2,15,-1
 233 348 l 1,16,17
 232 332 232 332 222 311 c 0,18,19
 206 279 206 279 180.5 260 c 128,-1,20
 155 241 155 241 135 247 c 256,21,22
 115 253 115 253 112 280 c 128,-1,23
 109 307 109 307 125 339 c 256,24,25
 141 371 141 371 165.5 389.5 c 128,-1,26
 190 408 190 408 210 402 c 0,27,28
 222 398 222 398 235 383 c 128,-1,29
 248 368 248 368 251 357 c 1,30,-1
 268 400 l 1,31,-1
 287 400 l 1,32,-1
 287 360 l 2,33,34
 289 334 289 334 285.5 313.5 c 128,-1,35
 282 293 282 293 275 276 c 128,-1,36
 268 259 268 259 258.5 245 c 128,-1,37
 249 231 249 231 239 217 c 256,38,39
 229 203 229 203 224 186 c 128,-1,40
 219 169 219 169 217.5 151.5 c 128,-1,41
 216 134 216 134 217 118.5 c 128,-1,42
 218 103 218 103 218 93 c 1,43,44
 223 82 223 82 230 70.5 c 128,-1,45
 237 59 237 59 246 49 c 128,-1,46
 255 39 255 39 267.5 32.5 c 128,-1,47
 280 26 280 26 296 26 c 0,48,49
 338 26 338 26 374.5 51.5 c 128,-1,50
 411 77 411 77 422 128 c 0,51,52
 436 196 436 196 450.5 264 c 128,-1,53
 465 332 465 332 480 401 c 1,54,-1
 510 401 l 1,55,56
 502 363 502 363 494.5 329 c 128,-1,57
 487 295 487 295 479.5 261.5 c 128,-1,58
 472 228 472 228 465 194 c 128,-1,59
 458 160 458 160 450 123 c 0,60,61
 443 93 443 93 428 69.5 c 128,-1,62
 413 46 413 46 392.5 30 c 128,-1,63
 372 14 372 14 349 6.5 c 128,-1,64
 326 -1 326 -1 302 -1 c 0,65,66
 261 -1 261 -1 237.5 18.5 c 128,-1,67
 214 38 214 38 202 59 c 1,68,69
 191 33 191 33 172 15 c 128,-1,70
 153 -3 153 -3 133 -3 c 0,71,72
 120 -3 120 -3 110 5 c 128,-1,73
 100 13 100 13 93.5 26 c 128,-1,74
 87 39 87 39 85 56 c 128,-1,75
 83 73 83 73 87 92 c 0,0,1
146 332 m 0,76,77
 141 323 141 323 138 312.5 c 128,-1,78
 135 302 135 302 134 292 c 128,-1,79
 133 282 133 282 135.5 274 c 128,-1,80
 138 266 138 266 145 264 c 0,81,82
 151 262 151 262 159 266.5 c 128,-1,83
 167 271 167 271 174.5 279.5 c 128,-1,84
 182 288 182 288 188.5 298 c 128,-1,85
 195 308 195 308 199 317 c 256,86,87
 203 326 203 326 206.5 337 c 128,-1,88
 210 348 210 348 210.5 358 c 128,-1,89
 211 368 211 368 209 375.5 c 128,-1,90
 207 383 207 383 200 385 c 1,91,92
 194 388 194 388 186.5 383 c 128,-1,93
 179 378 179 378 171.5 370 c 128,-1,94
 164 362 164 362 157 351.5 c 128,-1,95
 150 341 150 341 146 332 c 0,76,77
118 92 m 256,96,97
 116 83 116 83 116 71 c 128,-1,98
 116 59 116 59 118 48 c 128,-1,99
 120 37 120 37 125 30 c 128,-1,100
 130 23 130 23 138 23 c 256,101,102
 146 23 146 23 153.5 30.5 c 128,-1,103
 161 38 161 38 166.5 48.5 c 128,-1,104
 172 59 172 59 176 71 c 128,-1,105
 180 83 180 83 182 92 c 256,106,107
 184 101 184 101 185 112.5 c 128,-1,108
 186 124 186 124 184.5 134.5 c 128,-1,109
 183 145 183 145 179 152.5 c 128,-1,110
 175 160 175 160 166 160 c 256,111,112
 157 160 157 160 149.5 152.5 c 128,-1,113
 142 145 142 145 135.5 134.5 c 128,-1,114
 129 124 129 124 124.5 112.5 c 128,-1,115
 120 101 120 101 118 92 c 256,96,97
EndSplineSet
EndChar
StartChar: uni0E07
Encoding: 3591 3591 218
Width: 346
Flags: W
Fore
329 399 m 0,0,1
 345 394 345 394 350.5 377.5 c 128,-1,2
 356 361 356 361 351 338 c 2,3,-1
 303 111 l 2,4,5
 296 79 296 79 275.5 55 c 128,-1,6
 255 31 255 31 228 16 c 0,7,8
 214 8 214 8 202 3.5 c 128,-1,9
 190 -1 190 -1 170 -3 c 1,10,-1
 104 271 l 1,11,-1
 132 284 l 1,12,13
 147 226 147 226 164 158.5 c 128,-1,14
 181 91 181 91 196 29 c 1,15,16
 219 38 219 38 236 52 c 0,17,18
 266 78 266 78 275 122 c 2,19,-1
 306 264 l 1,20,21
 291 252 291 252 277 248 c 0,22,23
 266 245 266 245 256 248 c 0,24,25
 236 253 236 253 233 279 c 128,-1,26
 230 305 230 305 245 336 c 0,27,28
 256 360 256 360 274 376.5 c 128,-1,29
 292 393 292 393 309 398 c 0,30,31
 319 401 319 401 329 399 c 0,0,1
319 316 m 0,32,33
 323 324 323 324 326 334.5 c 128,-1,34
 329 345 329 345 330 355 c 128,-1,35
 331 365 331 365 328.5 372.5 c 128,-1,36
 326 380 326 380 320 382 c 256,37,38
 314 384 314 384 305 379 c 0,39,40
 294 372 294 372 283 357.5 c 128,-1,41
 272 343 272 343 267 331 c 0,42,43
 263 322 263 322 259.5 311.5 c 128,-1,44
 256 301 256 301 255.5 291 c 128,-1,45
 255 281 255 281 257 273.5 c 128,-1,46
 259 266 259 266 266 264 c 0,47,48
 274 262 274 262 281 268 c 1,49,50
 292 275 292 275 302.5 289.5 c 128,-1,51
 313 304 313 304 319 316 c 0,32,33
EndSplineSet
EndChar
StartChar: uni0E08
Encoding: 3592 3592 219
Width: 414
Flags: W
Fore
381 373 m 0,0,1
 419 346 419 346 409 297 c 0,2,3
 398 250 398 250 387 197 c 128,-1,4
 376 144 376 144 366 96 c 2,5,6
 363 87 l 130,-1,7
 360 78 360 78 353 65.5 c 128,-1,8
 346 53 346 53 333.5 39.5 c 128,-1,9
 321 26 321 26 302 16 c 0,10,11
 288 10 288 10 274 5 c 128,-1,12
 260 0 260 0 245 -4 c 1,13,-1
 219 -4 l 1,14,-1
 247 128 l 1,15,16
 241 121 241 121 237.5 117.5 c 128,-1,17
 234 114 234 114 219 110 c 0,18,19
 211 108 211 108 200 113 c 0,20,21
 186 119 186 119 174.5 134.5 c 128,-1,22
 163 150 163 150 161 173 c 0,23,24
 160 188 160 188 163.5 202.5 c 128,-1,25
 167 217 167 217 174 229 c 128,-1,26
 181 241 181 241 190.5 249.5 c 128,-1,27
 200 258 200 258 211 261 c 256,28,29
 222 264 222 264 231 261 c 0,30,31
 244 257 244 257 253.5 247 c 128,-1,32
 263 237 263 237 267 224 c 0,33,34
 273 207 273 207 273 181 c 128,-1,35
 273 155 273 155 270 126.5 c 128,-1,36
 267 98 267 98 261.5 70 c 128,-1,37
 256 42 256 42 252 21 c 1,38,39
 284 32 284 32 306 49.5 c 128,-1,40
 328 67 328 67 334 96 c 0,41,42
 338 117 338 117 343.5 141 c 128,-1,43
 349 165 349 165 354 190 c 128,-1,44
 359 215 359 215 364 238.5 c 128,-1,45
 369 262 369 262 374 283 c 0,46,47
 379 306 379 306 374 323.5 c 128,-1,48
 369 341 369 341 352 353 c 0,49,50
 335 364 335 364 309 370 c 128,-1,51
 283 376 283 376 255 374 c 0,52,53
 232 373 232 373 208.5 368 c 128,-1,54
 185 363 185 363 168 353 c 0,55,56
 160 349 160 349 154 344.5 c 128,-1,57
 148 340 148 340 143 336 c 1,58,-1
 114 346 l 1,59,60
 119 354 119 354 128.5 360 c 128,-1,61
 138 366 138 366 149 373 c 0,62,63
 171 384 171 384 200.5 390.5 c 128,-1,64
 230 397 230 397 260 398 c 0,65,66
 295 399 295 399 327 393 c 128,-1,67
 359 387 359 387 381 373 c 0,0,1
217 127 m 0,68,69
 224 129 224 129 229.5 136.5 c 128,-1,70
 235 144 235 144 238.5 154 c 128,-1,71
 242 164 242 164 243.5 174.5 c 128,-1,72
 245 185 245 185 245 194 c 1,73,74
 243 206 243 206 239 220 c 128,-1,75
 235 234 235 234 227 241 c 0,76,77
 221 247 221 247 213 245 c 256,78,79
 205 243 205 243 200 235.5 c 128,-1,80
 195 228 195 228 191.5 218.5 c 128,-1,81
 188 209 188 209 186.5 198.5 c 128,-1,82
 185 188 185 188 186 179 c 0,83,84
 187 166 187 166 191 152 c 128,-1,85
 195 138 195 138 203 130 c 0,86,87
 210 124 210 124 217 127 c 0,68,69
EndSplineSet
EndChar
StartChar: uni0E09
Encoding: 3593 3593 220
Width: 503
Flags: W
Fore
107 195 m 0,0,1
 122 227 122 227 147.5 246 c 128,-1,2
 173 265 173 265 193 259 c 0,3,4
 213 254 213 254 217 229.5 c 128,-1,5
 221 205 221 205 208 174 c 1,6,7
 206 160 206 160 203 147.5 c 128,-1,8
 200 135 200 135 197 121 c 0,9,10
 187 76 187 76 206 51.5 c 128,-1,11
 225 27 225 27 260 28 c 0,12,13
 276 29 276 29 295 38 c 128,-1,14
 314 47 314 47 332 63.5 c 128,-1,15
 350 80 350 80 364 103 c 128,-1,16
 378 126 378 126 384 155 c 2,17,-1
 413 289 l 2,18,19
 417 309 417 309 411.5 325.5 c 128,-1,20
 406 342 406 342 390 353 c 0,21,22
 374 363 374 363 345.5 368.5 c 128,-1,23
 317 374 317 374 285 374 c 128,-1,24
 253 374 253 374 222 368.5 c 128,-1,25
 191 363 191 363 171 353 c 1,26,27
 164 348 164 348 157.5 344.5 c 128,-1,28
 151 341 151 341 146 336 c 1,29,-1
 118 355 l 1,30,31
 125 363 125 363 134 369 c 128,-1,32
 143 375 143 375 154 381 c 0,33,34
 179 394 179 394 216 401 c 128,-1,35
 253 408 253 408 292 408 c 128,-1,36
 331 408 331 408 366 401 c 128,-1,37
 401 394 401 394 421 381 c 0,38,39
 459 353 459 353 450 306 c 0,40,41
 443 268 443 268 434 228 c 128,-1,42
 425 188 425 188 416 150 c 1,43,44
 426 156 426 156 438 156 c 0,45,46
 459 156 459 156 469.5 133 c 128,-1,47
 480 110 480 110 473 78 c 0,48,49
 466 45 466 45 445.5 22 c 128,-1,50
 425 -1 425 -1 404 -1 c 0,51,52
 382 -1 382 -1 371.5 22 c 128,-1,53
 361 45 361 45 368 77 c 1,54,55
 355 50 355 50 334 32 c 128,-1,56
 313 14 313 14 289.5 5 c 128,-1,57
 266 -4 266 -4 242 -2.5 c 128,-1,58
 218 -1 218 -1 199.5 10 c 128,-1,59
 181 21 181 21 170 43 c 128,-1,60
 159 65 159 65 161 98 c 1,61,62
 162 99 162 99 161.5 104 c 128,-1,63
 161 109 161 109 162 114 c 1,64,65
 140 98 140 98 118 103 c 0,66,67
 98 109 98 109 94.5 136 c 128,-1,68
 91 163 91 163 107 195 c 0,0,1
392 78 m 0,69,70
 388 61 388 61 392 42 c 128,-1,71
 396 23 396 23 409 22 c 0,72,73
 415 22 415 22 421 27.5 c 128,-1,74
 427 33 427 33 432.5 41.5 c 128,-1,75
 438 50 438 50 441.5 60 c 128,-1,76
 445 70 445 70 447 78 c 0,77,78
 451 94 451 94 447.5 113 c 128,-1,79
 444 132 444 132 432 133 c 0,80,81
 425 133 425 133 418.5 127.5 c 128,-1,82
 412 122 412 122 407 113.5 c 128,-1,83
 402 105 402 105 398 95.5 c 128,-1,84
 394 86 394 86 392 78 c 0,69,70
130 189 m 0,85,86
 125 180 125 180 121.5 169 c 128,-1,87
 118 158 118 158 117 148 c 128,-1,88
 116 138 116 138 118.5 130 c 128,-1,89
 121 122 121 122 128 120 c 0,90,91
 134 118 134 118 142 122.5 c 128,-1,92
 150 127 150 127 157.5 135.5 c 128,-1,93
 165 144 165 144 171.5 154 c 128,-1,94
 178 164 178 164 182 173 c 256,95,96
 186 182 186 182 189.5 193 c 128,-1,97
 193 204 193 204 193.5 214 c 128,-1,98
 194 224 194 224 192 232 c 128,-1,99
 190 240 190 240 184 242 c 0,100,101
 177 244 177 244 169 239.5 c 128,-1,102
 161 235 161 235 153.5 226.5 c 128,-1,103
 146 218 146 218 140 208 c 128,-1,104
 134 198 134 198 130 189 c 0,85,86
EndSplineSet
EndChar
StartChar: uni0E0A
Encoding: 3594 3594 221
Width: 353
Flags: W
Fore
377 426 m 1,0,1
 372 410 372 410 365 392 c 128,-1,2
 358 374 358 374 347.5 357.5 c 128,-1,3
 337 341 337 341 321.5 327 c 128,-1,4
 306 313 306 313 285 304 c 1,5,6
 296 289 296 289 303.5 279.5 c 128,-1,7
 311 270 311 270 315 262 c 128,-1,8
 319 254 319 254 320 244.5 c 128,-1,9
 321 235 321 235 319 219 c 0,10,11
 314 194 314 194 311.5 183 c 128,-1,12
 309 172 309 172 308 167.5 c 128,-1,13
 307 163 307 163 307 161.5 c 128,-1,14
 307 160 307 160 306 155 c 128,-1,15
 305 150 305 150 302 138.5 c 128,-1,16
 299 127 299 127 294 102 c 0,17,18
 286 67 286 67 265.5 44 c 128,-1,19
 245 21 245 21 218.5 9 c 128,-1,20
 192 -3 192 -3 164 -4 c 128,-1,21
 136 -5 136 -5 115 6 c 0,22,23
 92 17 92 17 80.5 40 c 128,-1,24
 69 63 69 63 77 98 c 0,25,26
 87 144 87 144 111 171 c 128,-1,27
 135 198 135 198 160 221 c 0,28,29
 173 234 173 234 184.5 246.5 c 128,-1,30
 196 259 196 259 206 275 c 1,31,32
 187 254 187 254 166 248 c 0,33,34
 155 245 155 245 145 248 c 0,35,36
 125 253 125 253 122.5 279 c 128,-1,37
 120 305 120 305 135 337 c 0,38,39
 146 361 146 361 163.5 377.5 c 128,-1,40
 181 394 181 394 198 399 c 0,41,42
 207 402 207 402 219 400 c 1,43,44
 231 396 231 396 237 383 c 128,-1,45
 243 370 243 370 242 352 c 0,46,47
 239 317 239 317 230.5 293 c 128,-1,48
 222 269 222 269 210 251.5 c 128,-1,49
 198 234 198 234 183.5 219.5 c 128,-1,50
 169 205 169 205 154 189 c 256,51,52
 139 173 139 173 127 154.5 c 128,-1,53
 115 136 115 136 110 111 c 0,54,55
 105 87 105 87 108.5 69 c 128,-1,56
 112 51 112 51 122 40 c 0,57,58
 135 25 135 25 156 21.5 c 128,-1,59
 177 18 177 18 199 27.5 c 128,-1,60
 221 37 221 37 239 59.5 c 128,-1,61
 257 82 257 82 265 117 c 0,62,63
 269 138 269 138 271 148 c 128,-1,64
 273 158 273 158 274 162 c 128,-1,65
 275 166 275 166 275 166.5 c 128,-1,66
 275 167 275 167 276 170 c 128,-1,67
 277 173 277 173 278.5 180 c 128,-1,68
 280 187 280 187 284 204 c 0,69,70
 288 225 288 225 288.5 238 c 128,-1,71
 289 251 289 251 284.5 261 c 128,-1,72
 280 271 280 271 271.5 281 c 128,-1,73
 263 291 263 291 251 307 c 1,74,75
 316 332 316 332 339 426 c 1,76,-1
 377 426 l 1,0,1
208 316 m 0,77,78
 212 325 212 325 215.5 335.5 c 128,-1,79
 219 346 219 346 219.5 356 c 128,-1,80
 220 366 220 366 218 373.5 c 128,-1,81
 216 381 216 381 209 383 c 0,82,83
 203 385 203 385 194 380 c 0,84,85
 183 373 183 373 172 358.5 c 128,-1,86
 161 344 161 344 156 331 c 0,87,88
 152 322 152 322 148.5 311.5 c 128,-1,89
 145 301 145 301 144.5 291 c 128,-1,90
 144 281 144 281 146 273.5 c 128,-1,91
 148 266 148 266 154 264 c 0,92,93
 163 262 163 262 170 268 c 1,94,95
 181 275 181 275 191.5 289.5 c 128,-1,96
 202 304 202 304 208 316 c 0,77,78
EndSplineSet
EndChar
StartChar: uni0E0B
Encoding: 3595 3595 222
Width: 407
Flags: W
Fore
366 228 m 1,0,1
 367 228 367 228 340 106 c 0,2,3
 332 71 332 71 311 47.5 c 128,-1,4
 290 24 290 24 263 12 c 128,-1,5
 236 0 236 0 208 -1 c 128,-1,6
 180 -2 180 -2 158 9.5 c 128,-1,7
 136 21 136 21 125 44 c 128,-1,8
 114 67 114 67 121 102 c 256,9,10
 128 137 128 137 144.5 161 c 128,-1,11
 161 185 161 185 181 205 c 128,-1,12
 201 225 201 225 221 243.5 c 128,-1,13
 241 262 241 262 255 287 c 1,14,15
 260 308 260 308 254.5 320.5 c 128,-1,16
 249 333 249 333 241 342 c 2,17,-1
 234 351 l 1,18,19
 233 335 233 335 223 314 c 0,20,21
 208 282 208 282 183 264 c 128,-1,22
 158 246 158 246 138 252 c 0,23,24
 118 257 118 257 114.5 283.5 c 128,-1,25
 111 310 111 310 126 342 c 0,26,27
 142 374 142 374 167 392.5 c 128,-1,28
 192 411 192 411 212 406 c 0,29,30
 224 402 224 402 236.5 386.5 c 128,-1,31
 249 371 249 371 253 360 c 1,32,-1
 268 404 l 1,33,-1
 287 404 l 1,34,-1
 289 363 l 2,35,36
 292 330 292 330 284.5 306 c 128,-1,37
 277 282 277 282 263.5 263.5 c 128,-1,38
 250 245 250 245 233.5 229.5 c 128,-1,39
 217 214 217 214 201.5 197.5 c 128,-1,40
 186 181 186 181 173 161.5 c 128,-1,41
 160 142 160 142 154 115 c 0,42,43
 148 85 148 85 155 64.5 c 128,-1,44
 162 44 162 44 177.5 34 c 128,-1,45
 193 24 193 24 213.5 24.5 c 128,-1,46
 234 25 234 25 253.5 36 c 128,-1,47
 273 47 273 47 289 68.5 c 128,-1,48
 305 90 305 90 312 122 c 0,49,50
 316 143 316 143 318.5 153 c 128,-1,51
 321 163 321 163 322 167.5 c 128,-1,52
 323 172 323 172 323.5 173 c 128,-1,53
 324 174 324 174 324.5 176 c 128,-1,54
 325 178 325 178 326 184.5 c 128,-1,55
 327 191 327 191 330 206 c 0,56,57
 335 229 335 229 335.5 243 c 128,-1,58
 336 257 336 257 332 267.5 c 128,-1,59
 328 278 328 278 319.5 288.5 c 128,-1,60
 311 299 311 299 298 315 c 1,61,62
 313 319 313 319 329 330.5 c 128,-1,63
 345 342 345 342 358 358.5 c 128,-1,64
 371 375 371 375 380.5 394 c 128,-1,65
 390 413 390 413 393 431 c 1,66,-1
 431 431 l 1,67,68
 428 421 428 421 422.5 405.5 c 128,-1,69
 417 390 417 390 405.5 373.5 c 128,-1,70
 394 357 394 357 376.5 341 c 128,-1,71
 359 325 359 325 334 313 c 1,72,73
 344 303 344 303 351 294.5 c 128,-1,74
 358 286 358 286 362 277 c 128,-1,75
 366 268 366 268 367 256.5 c 128,-1,76
 368 245 368 245 366 228 c 1,0,1
148 336 m 256,77,78
 144 327 144 327 141 316.5 c 128,-1,79
 138 306 138 306 137 296 c 128,-1,80
 136 286 136 286 138 278.5 c 128,-1,81
 140 271 140 271 146 268 c 1,82,83
 153 266 153 266 161 271 c 128,-1,84
 169 276 169 276 176.5 284 c 128,-1,85
 184 292 184 292 190.5 302 c 128,-1,86
 197 312 197 312 202 321 c 0,87,88
 206 330 206 330 208.5 340.5 c 128,-1,89
 211 351 211 351 212 361 c 128,-1,90
 213 371 213 371 210.5 378.5 c 128,-1,91
 208 386 208 386 202 389 c 1,92,93
 195 391 195 391 187.5 386 c 128,-1,94
 180 381 180 381 172.5 373 c 128,-1,95
 165 365 165 365 158.5 355 c 128,-1,96
 152 345 152 345 148 336 c 256,77,78
EndSplineSet
EndChar
StartChar: uni0E0C
Encoding: 3596 3596 223
Width: 633
Flags: W
Fore
647 396 m 1,0,-1
 586 110 l 2,1,2
 574 53 574 53 540.5 25.5 c 128,-1,3
 507 -2 507 -2 456 -2 c 0,4,5
 438 -2 438 -2 424 5 c 128,-1,6
 410 12 410 12 399 22 c 128,-1,7
 388 32 388 32 381 42.5 c 128,-1,8
 374 53 374 53 370 60 c 1,9,10
 361 34 361 34 346 17 c 128,-1,11
 331 0 331 0 312 0 c 0,12,13
 290 0 290 0 277 23 c 128,-1,14
 264 46 264 46 271 79 c 0,15,16
 278 111 278 111 298 133.5 c 128,-1,17
 318 156 318 156 340 156 c 0,18,19
 348 156 348 156 355 152 c 1,20,-1
 358 169 l 1,21,-1
 368 225 l 2,22,23
 378 269 378 269 374 297 c 128,-1,24
 370 325 370 325 355.5 341 c 128,-1,25
 341 357 341 357 318.5 363.5 c 128,-1,26
 296 370 296 370 270.5 371.5 c 128,-1,27
 245 373 245 373 219 371 c 128,-1,28
 193 369 193 369 170 369 c 1,29,30
 171 367 171 367 177 361 c 128,-1,31
 183 355 183 355 189.5 348 c 128,-1,32
 196 341 196 341 201 335 c 128,-1,33
 206 329 206 329 206 328 c 2,34,-1
 200 297 l 1,35,36
 195 295 195 295 190 292.5 c 128,-1,37
 185 290 185 290 181 286 c 0,38,39
 147 256 147 256 136 207 c 2,40,-1
 121 135 l 1,41,42
 129 141 129 141 135.5 145 c 128,-1,43
 142 149 142 149 150 151 c 0,44,45
 159 154 159 154 171 152 c 0,46,47
 191 146 191 146 194 120 c 128,-1,48
 197 94 197 94 182 63 c 0,49,50
 171 39 171 39 153 22.5 c 128,-1,51
 135 6 135 6 118 1 c 0,52,53
 107 -2 107 -2 98 1 c 0,54,55
 84 5 84 5 77.5 20 c 128,-1,56
 71 35 71 35 75 56 c 1,57,-1
 74 56 l 1,58,-1
 101 179 l 2,59,60
 104 198 104 198 110 218 c 128,-1,61
 116 238 116 238 125.5 257 c 128,-1,62
 135 276 135 276 149 291.5 c 128,-1,63
 163 307 163 307 182 318 c 1,64,-1
 139 368 l 1,65,-1
 145 396 l 1,66,-1
 216 396 l 2,67,68
 260 396 260 396 300 394 c 128,-1,69
 340 392 340 392 367.5 376.5 c 128,-1,70
 395 361 395 361 405.5 325.5 c 128,-1,71
 416 290 416 290 402 223 c 2,72,-1
 380 121 l 2,73,74
 376 102 376 102 381.5 85.5 c 128,-1,75
 387 69 387 69 399 56.5 c 128,-1,76
 411 44 411 44 428 37 c 128,-1,77
 445 30 445 30 464 30 c 0,78,79
 510 30 510 30 530 54.5 c 128,-1,80
 550 79 550 79 562 133 c 2,81,-1
 618 396 l 1,82,-1
 647 396 l 1,0,-1
146 132 m 0,83,84
 135 125 135 125 124.5 110.5 c 128,-1,85
 114 96 114 96 108 84 c 0,86,87
 104 75 104 75 100.5 64.5 c 128,-1,88
 97 54 97 54 96.5 44 c 128,-1,89
 96 34 96 34 98 26.5 c 128,-1,90
 100 19 100 19 106 17 c 0,91,92
 114 15 114 15 122 21 c 0,93,94
 133 28 133 28 144 42.5 c 128,-1,95
 155 57 155 57 160 69 c 0,96,97
 164 77 164 77 167 87.5 c 128,-1,98
 170 98 170 98 171 108 c 128,-1,99
 172 118 172 118 169.5 125.5 c 128,-1,100
 167 133 167 133 161 135 c 1,101,102
 158 137 158 137 154 135.5 c 128,-1,103
 150 134 150 134 146 132 c 0,83,84
310 17 m 1,104,105
 317 18 317 18 324 24.5 c 128,-1,106
 331 31 331 31 336.5 40 c 128,-1,107
 342 49 342 49 346 59.5 c 128,-1,108
 350 70 350 70 352 79 c 0,109,110
 354 87 354 87 354.5 97.5 c 128,-1,111
 355 108 355 108 354 117.5 c 128,-1,112
 353 127 353 127 349 133 c 128,-1,113
 345 139 345 139 338 139 c 2,114,-1
 336 139 l 1,115,116
 329 138 329 138 322.5 131.5 c 128,-1,117
 316 125 316 125 310.5 116 c 128,-1,118
 305 107 305 107 301 97 c 128,-1,119
 297 87 297 87 295 79 c 0,120,121
 293 70 293 70 292.5 59 c 128,-1,122
 292 48 292 48 293.5 38.5 c 128,-1,123
 295 29 295 29 298.5 23 c 128,-1,124
 302 17 302 17 310 17 c 1,104,105
EndSplineSet
EndChar
StartChar: uni0E0D
Encoding: 3597 3597 224
Width: 619
Flags: W
Fore
633 400 m 1,0,-1
 586 183 l 2,1,2
 573 122 573 122 550 85.5 c 128,-1,3
 527 49 527 49 497 30 c 128,-1,4
 467 11 467 11 430.5 5 c 128,-1,5
 394 -1 394 -1 354 -1 c 1,6,-1
 354 -2 l 1,7,-1
 323 -2 l 1,8,-1
 369 227 l 2,9,10
 379 271 379 271 375 299.5 c 128,-1,11
 371 328 371 328 356.5 344 c 128,-1,12
 342 360 342 360 319.5 367 c 128,-1,13
 297 374 297 374 271.5 375 c 128,-1,14
 246 376 246 376 220 374 c 128,-1,15
 194 372 194 372 171 372 c 1,16,17
 172 370 172 370 178 364 c 128,-1,18
 184 358 184 358 190.5 351 c 128,-1,19
 197 344 197 344 202 338 c 128,-1,20
 206 333 206 333 207 332 c 1,21,-1
 200 301 l 1,22,23
 196 298 196 298 191 295 c 128,-1,24
 186 292 186 292 181 288 c 0,25,26
 163 272 163 272 152.5 252.5 c 128,-1,27
 142 233 142 233 137 210 c 2,28,-1
 121 135 l 1,29,30
 137 148 137 148 151 152 c 0,31,32
 161 155 161 155 171 153 c 0,33,34
 191 147 191 147 194.5 121 c 128,-1,35
 198 95 198 95 183 63 c 0,36,37
 171 39 171 39 153.5 22.5 c 128,-1,38
 136 6 136 6 119 1 c 0,39,40
 107 -2 107 -2 99 1 c 0,41,42
 82 6 82 6 77 24 c 128,-1,43
 72 42 72 42 79 66 c 1,44,-1
 77 64 l 1,45,-1
 102 182 l 2,46,47
 106 201 106 201 112 221 c 128,-1,48
 118 241 118 241 127.5 259.5 c 128,-1,49
 137 278 137 278 150.5 294 c 128,-1,50
 164 310 164 310 183 321 c 1,51,-1
 140 371 l 1,52,-1
 146 399 l 1,53,-1
 217 400 l 2,54,55
 262 400 262 400 302 398 c 128,-1,56
 342 396 342 396 369 380 c 128,-1,57
 396 364 396 364 406.5 328.5 c 128,-1,58
 417 293 417 293 403 226 c 2,59,-1
 359 23 l 1,60,61
 389 23 389 23 419 28.5 c 128,-1,62
 449 34 449 34 475.5 51 c 128,-1,63
 502 68 502 68 522 99.5 c 128,-1,64
 542 131 542 131 552 182 c 2,65,-1
 599 400 l 1,66,-1
 633 400 l 1,0,-1
147 133 m 0,67,68
 136 126 136 126 125.5 111.5 c 128,-1,69
 115 97 115 97 109 84 c 0,70,71
 105 75 105 75 101.5 64.5 c 128,-1,72
 98 54 98 54 97.5 44 c 128,-1,73
 97 34 97 34 99 26.5 c 128,-1,74
 101 19 101 19 107 17 c 0,75,76
 115 15 115 15 123 21 c 0,77,78
 134 28 134 28 144.5 42.5 c 128,-1,79
 155 57 155 57 161 69 c 0,80,81
 165 78 165 78 168 88.5 c 128,-1,82
 171 99 171 99 172 109 c 128,-1,83
 173 119 173 119 170.5 126.5 c 128,-1,84
 168 134 168 134 162 136 c 1,85,86
 159 138 159 138 155 136.5 c 128,-1,87
 151 135 151 135 147 133 c 0,67,68
438 -89 m 1,88,89
 460 -78 460 -78 475 -65.5 c 128,-1,90
 490 -53 490 -53 505 -33 c 1,91,-1
 540 -33 l 1,92,93
 502 -81 502 -81 454 -109.5 c 128,-1,94
 406 -138 406 -138 358 -131 c 0,95,96
 340 -130 340 -130 326 -121 c 2,97,98
 323 -120 323 -120 319 -118 c 1,99,-1
 321 -117 l 1,100,101
 314 -112 314 -112 311 -104 c 128,-1,102
 308 -96 308 -96 310 -88 c 0,103,104
 314 -71 314 -71 335 -58.5 c 128,-1,105
 356 -46 356 -46 383 -46 c 0,106,107
 409 -46 409 -46 425.5 -58.5 c 128,-1,108
 442 -71 442 -71 438 -88 c 1,109,-1
 438 -89 l 1,88,89
419 -88 m 256,110,111
 422 -77 422 -77 406.5 -72 c 128,-1,112
 391 -67 391 -67 378 -67 c 0,113,114
 364 -67 364 -67 347.5 -72.5 c 128,-1,115
 331 -78 331 -78 328 -89 c 0,116,117
 326 -100 326 -100 340.5 -105 c 128,-1,118
 355 -110 355 -110 369 -110 c 0,119,120
 382 -110 382 -110 399 -104.5 c 128,-1,121
 416 -99 416 -99 419 -88 c 256,110,111
EndSplineSet
Substitution: 0 65534 'L026' uni0E0D.alt1
Substitution: 0 65534 'L026' uni0E0D.alt1
EndChar
StartChar: uni0E0E
Encoding: 3598 3598 225
Width: 448
Flags: W
Fore
242 399 m 2,0,1
 286 399 286 399 326 397 c 128,-1,2
 366 395 366 395 393.5 379 c 128,-1,3
 421 363 421 363 431.5 327.5 c 128,-1,4
 442 292 442 292 428 225 c 2,5,-1
 344 -169 l 1,6,-1
 313 -169 l 1,7,-1
 313 -166 l 1,8,9
 306 -152 306 -152 287 -137 c 128,-1,10
 268 -122 268 -122 243 -111 c 1,11,12
 219 -138 219 -138 186 -151 c 0,13,14
 183 -152 183 -152 181 -152 c 2,15,16
 168 -156 168 -156 150 -158 c 2,17,18
 147 -159 147 -159 142 -159 c 0,19,20
 111 -159 111 -159 91.5 -146 c 128,-1,21
 72 -133 72 -133 76 -114 c 0,22,23
 81 -95 81 -95 105 -83 c 1,24,-1
 106 -83 l 1,25,26
 130 -70 130 -70 160 -70 c 0,27,28
 197 -67 197 -67 237 -80 c 1,29,30
 248 -58 248 -58 254 -37 c 1,31,-1
 282 -37 l 1,32,33
 274 -62 274 -62 259 -88 c 1,34,35
 276 -96 276 -96 292 -106.5 c 128,-1,36
 308 -117 308 -117 321 -131 c 1,37,-1
 395 226 l 2,38,39
 405 270 405 270 400.5 298.5 c 128,-1,40
 396 327 396 327 381.5 343.5 c 128,-1,41
 367 360 367 360 345 366.5 c 128,-1,42
 323 373 323 373 297.5 374.5 c 128,-1,43
 272 376 272 376 245.5 374 c 128,-1,44
 219 372 219 372 196 371 c 1,45,46
 197 369 197 369 203 363 c 128,-1,47
 209 357 209 357 216 350 c 128,-1,48
 223 343 223 343 228 337 c 128,-1,49
 232 332 232 332 233 331 c 1,50,-1
 178 67 l 1,51,-1
 176 69 l 1,52,53
 173 44 173 44 160 25 c 128,-1,54
 147 6 147 6 129 1 c 0,55,56
 117 -2 117 -2 108 1 c 0,57,58
 93 6 93 6 82.5 22.5 c 128,-1,59
 72 39 72 39 70 63 c 0,60,61
 68 95 68 95 82.5 121 c 128,-1,62
 97 147 97 147 120 153 c 0,63,64
 132 155 132 155 140 152 c 0,65,66
 154 147 154 147 162 136 c 1,67,-1
 204 327 l 1,68,-1
 164 370 l 1,69,-1
 170 398 l 1,70,-1
 242 399 l 2,0,1
127 17 m 0,71,72
 134 19 134 19 139 26.5 c 128,-1,73
 144 34 144 34 147.5 44 c 128,-1,74
 151 54 151 54 152 64.5 c 128,-1,75
 153 75 153 75 153 84 c 0,76,77
 153 97 153 97 148.5 111.5 c 128,-1,78
 144 126 144 126 136 133 c 0,79,80
 129 138 129 138 122 136 c 0,81,82
 114 134 114 134 109 126.5 c 128,-1,83
 104 119 104 119 100.5 109 c 128,-1,84
 97 99 97 99 95.5 88.5 c 128,-1,85
 94 78 94 78 95 69 c 0,86,87
 96 57 96 57 100 42.5 c 128,-1,88
 104 28 104 28 112 21 c 0,89,90
 118 15 118 15 127 17 c 0,71,72
154 -140 m 2,91,92
 171 -138 171 -138 187 -129.5 c 128,-1,93
 203 -121 203 -121 212 -113 c 0,94,95
 218 -107 218 -107 220 -104 c 0,96,97
 221 -103 221 -103 219 -101 c 1,98,99
 199 -94 199 -94 179.5 -90.5 c 128,-1,100
 160 -87 160 -87 143 -89 c 256,101,102
 126 -91 126 -91 113 -98 c 128,-1,103
 100 -105 100 -105 98 -114 c 0,104,105
 96 -125 96 -125 107.5 -132.5 c 128,-1,106
 119 -140 119 -140 146 -140 c 2,107,-1
 154 -140 l 2,91,92
EndSplineSet
Substitution: 0 65534 'L026' uni0E0E.alt1
Substitution: 0 65534 'L026' uni0E0E.alt1
EndChar
StartChar: uni0E0F
Encoding: 3599 3599 226
Width: 449
Flags: W
Fore
242 398 m 2,0,1
 286 398 286 398 326 396 c 128,-1,2
 366 394 366 394 393 378 c 128,-1,3
 420 362 420 362 430.5 327 c 128,-1,4
 441 292 441 292 427 225 c 2,5,-1
 344 -169 l 1,6,-1
 313 -169 l 1,7,-1
 272 -91 l 1,8,-1
 201 -169 l 1,9,10
 196 -158 196 -158 190.5 -147 c 128,-1,11
 185 -136 185 -136 178 -125 c 1,12,13
 162 -139 162 -139 141 -150 c 1,14,-1
 140 -150 l 1,15,16
 137 -152 137 -152 136 -152 c 2,17,-1
 135 -152 l 1,18,19
 134 -153 134 -153 133 -153 c 2,20,-1
 132 -153 l 1,21,22
 117 -158 117 -158 105 -158 c 1,23,24
 104 -159 104 -159 100 -159 c 0,25,26
 74 -159 74 -159 58 -146 c 128,-1,27
 42 -133 42 -133 46 -114 c 0,28,29
 47 -104 47 -104 54.5 -96 c 128,-1,30
 62 -88 62 -88 73 -81 c 1,31,32
 75 -81 75 -81 76 -80 c 1,33,34
 81 -78 81 -78 85.5 -76.5 c 128,-1,35
 90 -75 90 -75 95 -73 c 1,36,-1
 96 -73 l 1,37,38
 101 -72 101 -72 105 -71.5 c 128,-1,39
 109 -71 109 -71 114 -71 c 0,40,41
 115 -71 115 -71 116.5 -70.5 c 128,-1,42
 118 -70 118 -70 119 -70 c 2,43,-1
 124 -70 l 2,44,45
 144 -71 144 -71 161 -83 c 0,46,47
 165 -85 165 -85 168.5 -88 c 128,-1,48
 172 -91 172 -91 177 -94 c 1,49,50
 185 -81 185 -81 191 -66.5 c 128,-1,51
 197 -52 197 -52 201 -38 c 1,52,-1
 229 -38 l 1,53,54
 222 -58 222 -58 213.5 -76 c 128,-1,55
 205 -94 205 -94 192 -109 c 1,56,57
 200 -119 l 128,-1,58
 204 -124 204 -124 207 -129 c 0,59,60
 208 -131 208 -131 208 -133 c 1,61,-1
 279 -57 l 1,62,-1
 320 -133 l 1,63,-1
 394 226 l 2,64,65
 404 270 404 270 399.5 298 c 128,-1,66
 395 326 395 326 381 342.5 c 128,-1,67
 367 359 367 359 344.5 365.5 c 128,-1,68
 322 372 322 372 297 373.5 c 128,-1,69
 272 375 272 375 245.5 373 c 128,-1,70
 219 371 219 371 196 370 c 1,71,72
 197 368 197 368 202 362 c 128,-1,73
 207 356 207 356 212.5 349 c 128,-1,74
 218 342 218 342 222.5 336 c 128,-1,75
 226 331 226 331 227 330 c 1,76,-1
 173 75 l 2,77,78
 171 48 171 48 158 27 c 128,-1,79
 145 6 145 6 125 1 c 0,80,81
 113 -2 113 -2 104 1 c 0,82,83
 89 6 89 6 78.5 22.5 c 128,-1,84
 68 39 68 39 67 63 c 0,85,86
 65 94 65 94 79.5 120 c 128,-1,87
 94 146 94 146 116 152 c 0,88,89
 128 154 128 154 136 151 c 0,90,91
 149 147 149 147 159 132 c 1,92,-1
 200 326 l 1,93,-1
 164 369 l 1,94,-1
 170 397 l 1,95,-1
 242 398 l 2,0,1
123 17 m 0,96,97
 130 19 130 19 135 26.5 c 128,-1,98
 140 34 140 34 143.5 44 c 128,-1,99
 147 54 147 54 148 64.5 c 128,-1,100
 149 75 149 75 149 84 c 0,101,102
 149 97 149 97 144.5 111 c 128,-1,103
 140 125 140 125 132 132 c 0,104,105
 125 137 125 137 118 135 c 0,106,107
 110 133 110 133 105 125.5 c 128,-1,108
 100 118 100 118 96.5 108.5 c 128,-1,109
 93 99 93 99 92 88.5 c 128,-1,110
 91 78 91 78 91 69 c 0,111,112
 92 57 92 57 96 42.5 c 128,-1,113
 100 28 100 28 108 21 c 0,114,115
 114 15 114 15 123 17 c 0,96,97
101 -142 m 0,116,117
 106 -142 106 -142 109 -141 c 0,118,119
 118 -139 118 -139 128 -135 c 128,-1,120
 138 -131 138 -131 147 -126 c 1,121,-1
 149 -124 l 1,122,123
 159 -118 159 -118 165 -110 c 1,124,125
 162 -107 162 -107 158.5 -104 c 128,-1,126
 155 -101 155 -101 152 -98 c 1,127,128
 145 -95 145 -95 136.5 -92 c 128,-1,129
 128 -89 128 -89 120 -87 c 1,130,-1
 113 -87 l 2,131,132
 96 -87 96 -87 81.5 -95 c 128,-1,133
 67 -103 67 -103 65 -114 c 0,134,135
 63 -126 63 -126 73.5 -134 c 128,-1,136
 84 -142 84 -142 101 -142 c 0,116,117
EndSplineSet
Substitution: 0 65534 'L026' uni0E0F.alt1
Substitution: 0 65534 'L026' uni0E0F.alt1
EndChar
